<?xml version="1.0" encoding="UTF-8"?>
<svg width="48px" height="48px" viewBox="0 0 48 48" version="1.1" xmlns="http://www.w3.org/2000/svg" xmlns:xlink="http://www.w3.org/1999/xlink">
    <!-- Generator: Sketch 42 (36781) - http://www.bohemiancoding.com/sketch -->
    <title>计算机-48px</title>
    <desc>Created with Sketch.</desc>
    <defs>
        <linearGradient x1="50%" y1="6.44132653%" x2="50%" y2="100%" id="linearGradient-1">
            <stop stop-color="#0E004D" offset="0%"></stop>
            <stop stop-color="#4735E4" offset="100%"></stop>
        </linearGradient>
    </defs>
    <g id="Page-1" stroke="none" stroke-width="1" fill="none" fill-rule="evenodd">
        <g id="计算机-48px">
            <g id="Group-3" transform="translate(2.000000, 6.000000)">
                <g id="Group-2">
                    <rect id="Rectangle-4" fill="#AFC0C8" x="18" y="31" width="8" height="5"></rect>
                    <rect id="Rectangle-3" fill="#E5E6E7" x="2" y="1" width="40" height="32" rx="2"></rect>
                    <path d="M12,36 C12,35.4477153 12.4553056,35 12.9918031,35 L31.0081969,35 C31.5559546,35 32,35.4438648 32,36 L32,36 C32,36.5522847 31.5446944,37 31.0081969,37 L12.9918031,37 C12.4440454,37 12,36.5561352 12,36 L12,36 Z" id="Rectangle-6" fill="#E5E6E7"></path>
                    <rect id="Rectangle-7" fill="#000000" x="3" y="2" width="38" height="25" rx="0.5"></rect>
                    <rect id="Rectangle-7" fill="url(#linearGradient-1)" x="4" y="3" width="36" height="23"></rect>
                    <g id="Group" transform="translate(4.000000, 9.000000)">
                        <path d="M36,9.39473684 L33,8 L29,3.57894737 L27,4.47368421 L23,0 L21,1.78947368 L19,0 L10.9278093,8.57670263 L3.5,9.39473684 L0,11.1842105 L0,17 L34.9995806,17 C35.552097,17 36,16.5470319 36,16.0057447 L36,9.39473684 Z" id="Path-3" fill="#3612C1"></path>
                        <polygon id="Path-4" fill="#4224CA" points="12 17 31 12.5263158 36 15.2105263 36 17"></polygon>
                        <polygon id="Path-7" fill="#5042EC" points="26.5 9.39473684 29 3.57894737 31 12.5263158"></polygon>
                        <polygon id="Path-10" fill="#AB76EF" points="19 0 16 6 13 9.84210526 8 11.6315789"></polygon>
                        <polygon id="Path-12" fill="#4531D8" points="21 4.47368421 19 5.36842105 24 6.71052632 25 5.9052635 23 3.57894737"></polygon>
                        <polygon id="Path-13" fill="#7365EE" points="20 2.68421053 16 5.99999999 19 5.36842105 23 3.57894737"></polygon>
                        <polygon id="Path-14" fill="#5241EB" points="16 6 18.5 10.4684217 13 9.84210526"></polygon>
                        <polygon id="Path-15" fill="#6C51EF" points="13 9.84210526 8 11.6315789 11 13.6000007"></polygon>
                        <polygon id="Path-5" fill="#3E2BCD" points="5 13.689473 11 13.6000007 12 17"></polygon>
                        <polygon id="Path-5" fill="#593EF3" points="11 13.6000007 20 9.84210526 22 8.05263158 22.5 9.84210526 12 17"></polygon>
                        <polygon id="Path-5" fill="#4735E4" points="0 17 5 13.689473 12 17"></polygon>
                        <polygon id="Path-16" fill="#523DE0" points="20 2.68421053 19 0 17 4"></polygon>
                        <polygon id="Path-6" fill="#654AF8" points="12 17 21 9.84210526 26.5 9.39473684 31 12.5263158"></polygon>
                        <polygon id="Path-8" fill="#7F5EF1" points="22 8.05263158 27 4.47368421 29 3.57894737 26.5 9.39473684 20 10.7368421"></polygon>
                        <polygon id="Path-9" fill="#B57BFF" points="22 8.05263158 20 10.7368421 24.5 8.5 29 3.57894737 27 4.47368421"></polygon>
                        <polygon id="Path-11" fill="#AB76EF" points="23 0 20 2.68421053 23 3.57894737"></polygon>
                        <polygon id="Path-17" fill="#442AE7" points="19 5.36842105 22 8.05263158 20 9.84210526 18.3999996 10.378946"></polygon>
                        <polygon id="Path-18" fill="#7F5EF1" points="8 11.6315789 3.5 9.39473684 11 8.5"></polygon>
                        <polygon id="Path-2" fill="#593EF3" points="3.5 9.39473684 0 11.1842105 8 11.6315789"></polygon>
                        <polygon id="Path-19" fill="#452AC5" points="6 12.0789474 5 13.689473 0 17 0 13.4210526"></polygon>
                        <polygon id="Path-21" fill="#411BCE" points="26.5 9.39473684 26 13.689473 31 12.5263158"></polygon>
                        <polygon id="Path-20" fill="#6F4EE6" points="0 13.4210526 0 11.1842105 8 11.6315789"></polygon>
                    </g>
                    <polygon id="Rectangle-8" fill="#FFFFFF" opacity="0.122959422" points="4 3 13.5 3 26 26 4 26"></polygon>
                </g>
            </g>
        </g>
    </g>
</svg>