<?xml version="1.0" encoding="UTF-8"?>
<svg width="40px" height="40px" viewBox="0 0 40 40" version="1.1" xmlns="http://www.w3.org/2000/svg" xmlns:xlink="http://www.w3.org/1999/xlink">
    <!-- Generator: Sketch 46.1 (44463) - http://www.bohemiancoding.com/sketch -->
    <title>reboot_hover</title>
    <desc>Created with Sketch.</desc>
    <defs></defs>
    <g id="Page-1" stroke="none" stroke-width="1" fill="none" fill-rule="evenodd">
        <g id="reboot_hover" fill="#FFFFFF">
            <path d="M33.8509115,7.2482891 C33.2419228,7.12053272 32.6480886,7.5065913 32.5201168,8.10911046 L31.792698,11.5245015 C29.115954,7.50268608 24.5493804,5 19.608433,5 C11.5535046,5 5,11.5139016 5,19.5195961 C5,27.5258484 11.5535046,34.03975 19.608433,34.03975 C25.3284369,34.03975 30.5522693,30.6901898 32.9163804,25.5068513 C33.1723241,24.945058 32.9219932,24.2839605 32.3579069,24.0295636 C31.7915754,23.772935 31.12702,24.0239847 30.8716376,24.5846622 C28.8706746,28.9730101 24.4494725,31.8081975 19.608433,31.8081975 C12.7911269,31.8081975 7.24511977,26.2957051 7.24511977,19.5195961 C7.24511977,12.7440449 12.7911269,7.23155246 19.608433,7.23155246 C23.8006329,7.23155246 27.6745871,9.3604535 29.9382291,12.7797498 L26.4375261,12.0433374 C25.8285373,11.9150232 25.2347032,12.3010817 25.1067313,12.9041588 C24.9781982,13.5072359 25.3660427,14.0991551 25.9727863,14.2269115 L32.0912989,15.5139594 C32.1698781,15.5301382 32.247896,15.5379486 32.3247914,15.5379486 C32.8439753,15.5379486 33.310399,15.1781108 33.4220937,14.653138 L34.7169665,8.57104182 C34.8449383,7.96796477 34.4576552,7.37660337 33.8509115,7.2482891" id="Fill-6"></path>
        </g>
    </g>
</svg>