<?xml version="1.0" encoding="UTF-8"?>
<svg width="28px" height="28px" viewBox="0 0 28 28" version="1.1" xmlns="http://www.w3.org/2000/svg" xmlns:xlink="http://www.w3.org/1999/xlink">
    <!-- Generator: Sketch 46.2 (44496) - http://www.bohemiancoding.com/sketch -->
    <title>unlock_normal</title>
    <desc>Created with Sketch.</desc>
    <defs></defs>
    <g id="Page-1" stroke="none" stroke-width="1" fill="none" fill-rule="evenodd">
        <g id="锁屏" transform="translate(-1067.000000, -610.000000)">
            <g id="unlock_normal" transform="translate(1067.000000, 610.000000)">
                <g id="登陆密码框" fill="#FFFFFF" fill-opacity="0.2">
                    <rect id="Rectangle-2" x="0" y="0" width="28" height="28" rx="4"></rect>
                </g>
                <path d="M7.5,10.9955775 L7.5,20.0044225 C7.5,20.2773723 7.72528783,20.5 8.00684547,20.5 L19.9931545,20.5 C20.2748105,20.5 20.5,20.2772036 20.5,20.0044225 L20.5,10.9955775 C20.5,10.7226277 20.2747122,10.5 19.9931545,10.5 L8.00684547,10.5 C7.72518951,10.5 7.5,10.7227964 7.5,10.9955775 Z" id="Imported-Layers" stroke="#FFFFFF"></path>
                <path d="M17,10.2999878 L17,9.03072222 C17,7.0965 15.59675,6 14.06,6 L14.06,6 L13.94,6 C12.40325,6 11,7.0965 11,9.03072222 L11,10.2999878" id="Path" stroke="#FFFFFF" stroke-width="1.2" stroke-linecap="round" stroke-linejoin="round"></path>
            </g>
        </g>
    </g>
</svg>