<svg xmlns="http://www.w3.org/2000/svg" width="36" height="36" viewBox="0 0 36 36">
  <path fill="#FFF" fill-opacity=".6" fill-rule="evenodd" d="M18.6773511,13 C19.3440178,16 20.1950677,18.4457871 21.2305008,20.3373613 C20.2899968,20.7015588 19.759417,21.0369048 18.9642618,21.251908 C18.3078143,20.2149626 17.5295471,18.2741749 16.6294602,15.4295449 C16.6294602,17.4516511 17.01468,19.480666 17.7851196,21.5165896 C17.1667246,21.7357064 14.4221563,22.0121254 13.8688034,22.0121254 C13.5225514,20.895616 13.2713671,19.1361264 13.1152504,16.7336564 C12.5073257,18.9052356 12.0720118,20.6647253 11.8093086,22.0121254 C11.2415731,22.0121254 9.64352848,21.8138546 8.52597736,21.6734795 C8.63017481,21.0398734 8.91784982,19.6507344 9.3890024,17.5060627 C8.2462045,19.8538481 7.59847735,21.1024632 7.44582095,21.251908 C7.14950054,21.251908 5.27715807,20.7554001 5,20.4849863 C6.0553203,19.2336891 7.28110401,16.7386937 8.67735113,13 L18.6773511,13 Z M13.6773511,1.77635684e-15 C14.5057783,1.62417725e-15 15.1773511,0.671572875 15.1773511,1.5 L15.1776392,8.03098281 C17.0859008,8.26908017 18.5766576,9.85135701 18.6724558,11.8003597 L18.6773511,12 L8.67735113,12 C8.67735113,9.96029044 10.2040467,8.27715974 12.1770631,8.03098281 L12.1773511,1.5 C12.1773511,0.671572875 12.848924,1.92853643e-15 13.6773511,1.77635684e-15 Z" transform="rotate(30 4.92 25.202)"/>
</svg>
