<svg xmlns="http://www.w3.org/2000/svg" width="60" height="70" viewBox="0 0 60 70">
  <path d="M30.5,59 C31.3284271,59 32,59.6715729 32,60.5 L32,68.5 C32,69.3284271 31.3284271,70 30.5,70 C29.6715729,70 29,69.3284271 29,68.5 L29,60.5 C29,59.6715729 29.6715729,59 30.5,59 Z M19.5,59 C20.3284271,59 21,59.6715729 21,60.5 L21,65.5 C21,66.3284271 20.3284271,67 19.5,67 C18.6715729,67 18,66.3284271 18,65.5 L18,60.5 C18,59.6715729 18.6715729,59 19.5,59 Z M40.5,59 C41.3284271,59 42,59.6715729 42,60.5 L42,65.5 C42,66.3284271 41.3284271,67 40.5,67 C39.6715729,67 39,66.3284271 39,65.5 L39,60.5 C39,59.6715729 39.6715729,59 40.5,59 Z M31.9541937,2.0888261 C32.0295963,2.15420274 32.1016897,2.22330116 32.170205,2.29586361 C37.6280669,8.07611687 41.3444616,14.5688935 43.3193891,21.7741935 C44.7725115,27.0757465 45.2833137,33.5967862 44.8517958,41.3373129 L53.657574,49.8417956 C54.8495174,50.9926375 54.8828367,52.8918402 53.7319949,54.0837835 C53.1666633,54.6693056 52.3876921,55 51.5737905,55 L8.42620951,55 C6.76935526,55 5.42620951,53.6568542 5.42620951,52 C5.42620951,51.1860984 5.75690394,50.4071272 6.34242597,49.8417956 L15.1662095,41.3204307 L15.158919,41.1717512 L15.1005096,39.9071942 L15.0554218,38.6718059 C15.0362084,38.061404 15.0219906,37.4619403 15.0127684,36.8734148 L15.0009849,35.7109483 L15.0025231,34.5776504 C15.0093557,33.6453892 15.030065,32.743512 15.0646512,31.8720189 L15.1128154,30.8408115 C15.304703,27.2826307 15.741377,24.2604248 16.4228374,21.7741935 C18.071508,15.7592049 21.6729355,9.48996859 27.2271199,2.96648454 L27.7222527,2.39021446 C28.8076448,1.13837011 30.7023494,1.00343395 31.9541937,2.0888261 Z M15.3262095,43.9464307 L7.73161499,51.2805985 C7.53644098,51.4690424 7.42620951,51.7286995 7.42620951,52 C7.42620951,52.5128358 7.8122497,52.9355072 8.30958838,52.9932723 L8.42620951,53 L16.2577543,53.0000527 C16.1835496,52.7897978 16.1318803,52.5683051 16.1057761,52.3382798 L15.940793,50.8403733 L15.7891316,49.3716355 L15.6507919,47.9320664 L15.5257739,46.5216659 L15.4140776,45.1404342 L15.3262095,43.9464307 Z M29.3260298,3.60537621 L29.2392209,3.69359748 L28.7499356,4.26303085 C23.37311,10.578204 19.9157228,16.5967001 18.3516944,22.3028812 C17.887404,23.9967925 17.5420484,25.9700057 17.3166721,28.2207292 L17.2329229,29.1358148 C17.2071411,29.4457741 17.1834948,29.7606626 17.1619863,30.0804761 L17.1038773,31.0546875 C17.0780321,31.5491765 17.0570028,32.0547372 17.0407977,32.5713553 L17.0148224,33.6193306 C17.0083097,33.9735672 17.0039435,34.332714 17.0015249,34.6967667 L17.0015249,35.8036383 C17.0056919,36.5513589 17.0184651,37.3186862 17.0398641,38.1055861 L17.0784346,39.3006112 L17.1299589,40.5249698 L17.1944517,41.7786365 L17.2719279,43.0615858 L17.3624025,44.3737921 L17.4658901,45.7152301 L17.5824058,47.0858742 L17.7119643,48.4856989 L17.8545805,49.9146788 C17.8794388,50.1552703 17.9048418,50.3970755 17.9307899,50.640094 L18.0930204,52.1127588 C18.145964,52.5792864 18.5143927,52.9405205 18.9708194,52.9933384 L19.0866278,53 L40.7419,53 C41.2390758,53 41.6607467,52.6347475 41.7316724,52.1426591 C42.2434101,48.5921212 42.599784,45.2477228 42.8017215,42.1101469 L42.7999813,42.1371311 C42.8367227,41.568544 42.8683961,41.0067438 42.895007,40.4517345 C43.2398883,33.2582522 42.7343903,27.2057959 41.3905321,22.3028812 C39.5036968,15.4189754 35.952394,9.21462491 30.7160197,3.6689423 L30.6440153,3.59992919 C30.258829,3.2659594 29.6910536,3.27859482 29.3260298,3.60537621 Z M43.7112172,52.4279701 C43.6826366,52.6262647 43.6350715,52.8176939 43.570523,53.0005244 L51.5737905,53 C51.845091,53 52.1047481,52.8897685 52.293192,52.6945945 C52.6472971,52.3278427 52.6650725,51.7602125 52.3532133,51.3733322 L52.268385,51.2805985 L44.6743129,43.9469269 C44.459522,46.6364514 44.1384901,49.4634658 43.7112172,52.4279701 Z M30,25 C33.8659932,25 37,28.1340068 37,32 C37,35.8659932 33.8659932,39 30,39 C26.1340068,39 23,35.8659932 23,32 C23,28.1340068 26.1340068,25 30,25 Z M30,27 C27.2385763,27 25,29.2385763 25,32 C25,34.7614237 27.2385763,37 30,37 C32.7614237,37 35,34.7614237 35,32 C35,29.2385763 32.7614237,27 30,27 Z"/>
</svg>
