<svg xmlns="http://www.w3.org/2000/svg" width="64" height="64" viewBox="0 0 64 64">
  <g fill="none" fill-rule="evenodd">
    <path fill="#FFF" d="M45,33 L45,36.0818935 C45,37.5359266 44.7364629,38.9030097 44.2093765,40.1831912 C43.6822901,41.4633666 42.9635432,42.6012855 42.0531235,43.5969843 C41.1427037,44.592677 40.0725781,45.4145059 38.8427099,46.0625015 C37.6128416,46.710491 36.295144,47.1135068 34.8895803,47.2715487 L34.8895803,51.8232759 C37.1895925,51.949713 39.122212,52.3290198 40.6875,52.9612069 C42.252788,53.593394 43.0354197,54.2571805 43.0354197,54.9525862 C43.0354197,54.9841956 42.0531357,55 40.0885432,55 L26.151042,55 C24.1864482,55 23.2041667,54.9841956 23.2041667,54.9525862 C23.2041667,54.2887901 23.9308955,53.6487102 25.3843753,53.0323273 C26.8378545,52.4159449 28.6506832,52.0129322 30.8229136,51.8232759 L30.8229136,47.2715487 C29.5832449,47.1003875 28.4151414,46.7361455 27.3185727,46.1788048 L28.4315084,45.067378 C28.4856356,45.091308 28.5400628,45.1148257 28.5947901,45.137931 C29.792716,45.6436822 31.0784651,45.8965517 32.4520864,45.8965517 C33.8257016,45.8965517 36.1194363,45.6436822 37.3333333,45.137931 C38.5472304,44.6321799 39.6093704,43.9288839 40.5197901,43.0280188 C41.4302099,42.1271537 42.1489568,41.0840563 42.6760432,39.8987084 C43.2031296,38.7133545 43.4666667,37.441099 43.4666667,36.0818935 L43.4666667,33 L45,33 Z M41.9333333,33 L41.9333333,35.987072 C41.9333333,38.2945534 41.0535462,40.2543012 39.2939394,41.8663823 C37.5343326,43.4784574 35.4194585,44.2844828 32.9492457,44.2844828 C31.7980193,44.2844828 30.7276468,44.1094178 29.7381206,43.7592856 L40.496,33 L41.9333333,33 Z M22.5333333,33 L22.5333333,36.0818935 C22.5333333,36.7583106 22.5966241,37.4131936 22.7232065,38.0465482 L21.4716005,39.2974627 C21.1571989,38.2693571 21,37.1975076 21,36.0818935 L21,33 L22.5333333,33 Z M27.769,33 L24.0931132,36.676111 C24.0754822,36.4499839 24.0666667,36.2203043 24.0666667,35.987072 L24.0666667,33 L27.769,33 Z M30.768,30 L28.769,32 L24.0666667,32 L24.0666667,30 L30.768,30 Z M32.9492457,11 C35.4194585,11 37.5343326,11.8139272 39.2939394,13.4418119 C40.9368509,14.9617313 41.8127706,16.764078 41.9217249,18.8488915 L38.768,22 L38,22 L38,22.768 L31,29.768 L31,29 L24.0666667,29 L24.0666667,27 L31,27 L31,26 L24.0666667,26 L24.0666667,19.2974168 C24.0666667,17.0215426 24.929537,15.0696905 26.655303,13.4418119 C28.3810704,11.8139272 30.4790263,11 32.9492457,11 Z M28,22 L26,22 L26,24 L28,24 L28,22 Z M32,22 L30,22 L30,24 L32,24 L32,22 Z M36,22 L34,22 L34,24 L36,24 L36,22 Z M28,18 L26,18 L26,20 L28,20 L28,18 Z M32,18 L30,18 L30,20 L32,20 L32,18 Z M36,18 L34,18 L34,20 L36,20 L36,18 Z M40,18 L38,18 L38,20 L40,20 L40,18 Z M28,14 L26.5,16 L28,16 L28,14 Z M32,14 L30,14 L30,16 L32,16 L32,14 Z M36,14 L34,14 L34,16 L36,16 L36,14 Z M38,14 L38,16 L39.5,16 L38,14 Z"/>
    <polygon fill="#FFF" points="56 32 56 35 11 35 11 32" transform="rotate(-45 33.5 33.5)"/>
  </g>
</svg>
