<?xml version="1.0" encoding="UTF-8"?>
<svg width="63px" height="57px" viewBox="0 0 63 57" version="1.1" xmlns="http://www.w3.org/2000/svg" xmlns:xlink="http://www.w3.org/1999/xlink">
    <title>OSD-Fn键开关</title>
    <g id="OSD" stroke="none" stroke-width="1" fill="none" fill-rule="evenodd">
        <g id="osd-显示2" transform="translate(-1119.000000, -610.000000)">
            <g id="OSD-Fn键开关" transform="translate(1081.000000, 567.000000)">
                <g transform="translate(39.000000, 44.000000)">
                    <path d="M36,33.824 L38,35.824 L38,41 L43.176,41 L45.176,43 L38,43 L38,52 C38,52.5128358 37.6139598,52.9355072 37.1166211,52.9932723 L37,53 C36.4871642,53 36.0644928,52.6139598 36.0067277,52.1166211 L36,52 L36,33.824 Z M56.5,40 C59.4634791,40 61.8795391,42.34378 61.9956328,45.2787929 L62,45.5 L62,52 C62,52.5522847 61.5522847,53 61,53 C60.9329718,53 60.8674838,52.9934054 60.8041495,52.9808295 L60.0191705,52.1958505 C60.0139961,52.1697911 60.0098342,52.143367 60.0067277,52.1166211 L60,52 L60,45.5 C60,43.5670034 58.4329966,42 56.5,42 C54.6713238,42 53.1702029,43.4024305 53.0135033,45.1904254 L51,43.175 L51,41 C51,40.4477153 51.4477153,40 52,40 C52.5128358,40 52.9355072,40.3860402 52.9932723,40.8833789 L53,41 L53.00044,41.2567987 C53.9513167,40.4716721 55.1705759,40 56.5,40 Z M51,48.825 L53,50.825 L53,52 C53,52.5522847 52.5522847,53 52,53 C51.4871642,53 51.0644928,52.6139598 51.0067277,52.1166211 L51,52 L51,48.825 Z M49,32 C49.5522847,32 50,32.4477153 50,33 C50,33.5128358 49.6139598,33.9355072 49.1166211,33.9932723 L49,34 L41.824,34 L39.824,32 L49,32 Z" id="形状结合" fill="#000000" fill-rule="nonzero"></path>
                    <path d="M60.3116312,56 C60.0600508,56 59.8084703,55.9036974 59.6158541,55.7130576 L34.5803435,30.6769426 C34.1970764,30.2936976 34.1970764,29.6706788 34.5803435,29.2874338 C34.9636106,28.9041887 35.5866653,28.9041887 35.9699324,29.2874338 L61.0054429,54.3235487 C61.38871,54.7067937 61.38871,55.3298126 61.0054429,55.7130576 C60.8147921,55.9036974 60.5632117,56 60.3116312,56 Z" id="路径" fill="#000000" fill-rule="nonzero" transform="translate(47.792893, 42.500000) rotate(-360.000000) translate(-47.792893, -42.500000) "></path>
                    <g id="编组" transform="translate(6.000000, 1.000000)" stroke="#000000" stroke-linecap="round" stroke-width="1.7758">
                        <path d="M33,5.33882861 C51.8379344,2.54002146 49.9471533,18 49.9471533,18" id="路径"></path>
                        <polyline id="路径" stroke-linejoin="round" points="39 0 32 5.33231102 39 11"></polyline>
                        <path d="M17,45.6611714 C-1.83793441,48.4599785 0.0528467013,33 0.0528467013,33" id="路径"></path>
                        <polyline id="路径" stroke-linejoin="round" points="11 50 18 44.6686508 11 39"></polyline>
                    </g>
                    <g id="编组-4" fill="#000000" fill-rule="nonzero">
                        <path d="M12,-1 C12.5522847,-1 13,-0.55228475 13,0 C13,0.512835839 12.6139598,0.935507161 12.1166211,0.993272269 L12,1 L1,1 L1,8 L11,8 C11.5522847,8 12,8.44771525 12,9 C12,9.51283584 11.6139598,9.93550716 11.1166211,9.99327227 L11,10 L1,10 L1,20 C1,20.5128358 0.61395981,20.9355072 0.116621125,20.9932723 L0,21 C-0.512835839,21 -0.935507161,20.6139598 -0.993272269,20.1166211 L-1,20 L-1,0 C-1,-0.512835839 -0.61395981,-0.935507161 -0.116621125,-0.993272269 L0,-1 L12,-1 Z M15,8 C15,7.44771525 15.4477153,7 16,7 C16.5128358,7 16.9355072,7.38604019 16.9932723,7.88337887 L17,8 L17.00044,8.25679874 C17.9513167,7.47167211 19.1705759,7 20.5,7 C23.4634791,7 25.8795391,9.34378001 25.9956328,12.2787929 L26,12.5 L26,19.5 C26,20.0522847 25.5522847,20.5 25,20.5 C24.4871642,20.5 24.0644928,20.1139598 24.0067277,19.6166211 L24,19.5 L24,12.5 C24,10.5670034 22.4329966,9 20.5,9 C18.6314366,9 17.1048736,10.4642776 17.0051789,12.3079648 L17,12.5 L17,19.5 C17,20.0522847 16.5522847,20.5 16,20.5 C15.4871642,20.5 15.0644928,20.1139598 15.0067277,19.6166211 L15,19.5 L15,8 Z" id="形状结合"></path>
                    </g>
                </g>
            </g>
        </g>
    </g>
</svg>