<svg xmlns="http://www.w3.org/2000/svg" width="64" height="64" viewBox="0 0 64 64">
  <path d="M52.0095608,11 C55.317989,11 58,13.6898426 58,17.0015877 L58,47.9984123 C58,51.3129976 55.3137533,54 52.0095608,54 L11.9904392,54 C8.68201099,54 6,51.3101574 6,47.9984123 L6,17.0015877 C6,13.6870024 8.68624675,11 11.9904392,11 L52.0095608,11 Z M55,27 L9,27 L9,48.003476 C9,49.6612917 10.3433446,51 12.0004442,51 L12.0004442,51 L51.9995558,51 C53.6482195,51 55,49.6584105 55,48.003476 L55,48.003476 L55,27 Z M12.0004442,14 C10.3517805,14 9,15.3415895 9,16.996524 L9,16.996524 L9,24 L31,24 L31,14 Z M34,24 L55,24 L55,16.996524 C55,15.397916 53.7508951,14.096029 52.1758547,14.0050762 L51.9995558,14 L34,14 L34,24 Z" opacity=".9"/>
</svg>
