<?xml version="1.0" encoding="UTF-8"?>
<svg width="40px" height="40px" viewBox="0 0 40 40" version="1.1" xmlns="http://www.w3.org/2000/svg" xmlns:xlink="http://www.w3.org/1999/xlink">
    <!-- Generator: Sketch 46.1 (44463) - http://www.bohemiancoding.com/sketch -->
    <title>pause_hover</title>
    <desc>Created with Sketch.</desc>
    <defs></defs>
    <g id="Page-1" stroke="none" stroke-width="1" fill="none" fill-rule="evenodd">
        <g id="pause_hover" fill="#FFFFFF">
            <path d="M4,19.9986667 C4,11.176 11.1786667,4 20.0013333,4 C28.824,4 36,11.176 36,19.9986667 C36,28.8213333 28.824,36 20.0013333,36 C11.1786667,36 4,28.8213333 4,19.9986667 Z M6.00133333,19.9986667 C6.00133333,27.72 12.28,34.0013333 20.0013333,34.0013333 C27.7193333,34.0013333 34.0013333,27.72 34.0013333,19.9986667 C34.0013333,12.28 27.7193333,5.99866667 20.0013333,5.99866667 C12.28,5.99866667 6.00133333,12.28 6.00133333,19.9986667 Z M16.0006667,26.0006667 L16.0006667,13.9993333 L18,13.9993333 L18,26.0006667 L16.0006667,26.0006667 Z M22,26.0006667 L22,13.9993333 L24.0013333,13.9993333 L24.0013333,26.0006667 L22,26.0006667 Z" id="Fill-4"></path>
        </g>
    </g>
</svg>