<?xml version="1.0" encoding="UTF-8"?>
<svg width="40px" height="40px" viewBox="0 0 40 40" version="1.1" xmlns="http://www.w3.org/2000/svg" xmlns:xlink="http://www.w3.org/1999/xlink">
    <!-- Generator: Sketch 46.1 (44463) - http://www.bohemiancoding.com/sketch -->
    <title>start_normal</title>
    <desc>Created with Sketch.</desc>
    <defs></defs>
    <g id="Page-1" stroke="none" stroke-width="1" fill="none" fill-rule="evenodd" opacity="0.7">
        <g id="start_normal" fill="#FFFFFF">
            <path d="M20.0013333,36 C11.1786667,36 4,28.8213333 4,19.9986667 C4,11.176 11.1786667,4 20.0013333,4 C28.824,4 36,11.176 36,19.9986667 C36,28.8213333 28.824,36 20.0013333,36 M20.0013333,5.99866667 C27.72,5.99866667 34.0013333,12.28 34.0013333,19.9986667 C34.0013333,27.72 27.72,34.0013333 20.0013333,34.0013333 C12.28,34.0013333 6.002,27.72 6.002,19.9986667 C6.002,12.28 12.28,5.99866667 20.0013333,5.99866667 Z M18.0150258,23.4960724 L18.0061886,16.4841761 L24.0247305,19.99791 L18.0150258,23.4960724 Z M16.0017933,12.9980778 L16.0194049,26.9718455 L27.9959391,20.0004776 L16.0017933,12.9980778 Z" id="Combined-Shape"></path>
        </g>
    </g>
</svg>