<?xml version="1.0" encoding="UTF-8"?>
<svg width="40px" height="40px" viewBox="0 0 40 40" version="1.1" xmlns="http://www.w3.org/2000/svg" xmlns:xlink="http://www.w3.org/1999/xlink">
    <!-- Generator: Sketch 46.1 (44463) - http://www.bohemiancoding.com/sketch -->
    <title>deepin_indicator_normal</title>
    <desc>Created with Sketch.</desc>
    <defs></defs>
    <g id="Page-1" stroke="none" stroke-width="1" fill="none" fill-rule="evenodd" opacity="0.7">
        <g id="deepin_indicator_normal" fill-rule="nonzero" fill="#FFFFFF">
            <path d="M22.8840861,6.3372471 C21.2527245,7.75607391 19.4744343,9.52488947 19.4744343,9.52488947 C14.6319896,14.0396359 15.5826268,17.8359428 15.5826268,17.8359428 C16.3678544,21.8195059 19.2515995,20.2122237 19.2515995,20.2122237 C21.7764369,17.5868921 22.4880104,13.4560208 22.4880104,13.4560208 C22.223355,17.4689207 21.5479844,18.8764629 21.5479844,18.8764629 C19.5418466,23.0223147 16.5750845,21.7439792 16.5750845,21.7439792 C13.2768791,20.0655397 13.4229389,15.319844 13.4229389,15.319844 C13.3133057,11.9798276 14.4282597,8.80559627 15.3084012,6.84686322 C12.2097027,7.95220571 9.61625077,10.1214687 7.96783274,12.9148649 C9.06631315,16.6559322 10.6829316,19.5535293 11.8680884,20.8282965 C13.7749805,22.8806242 16.5869441,25.0596619 20.1822627,24.1527178 C23.7763329,23.2451495 24.4978934,19.3040312 24.4978934,19.3040312 C25.2862419,15.9459038 24.523485,13.5409103 24.4641873,13.4560208 C24.4641873,13.4560208 26.6226268,15.2986216 26.6937841,18.5493888 C26.6937841,18.5493888 27.2049935,22.8481664 23.4249155,25.493472 C19.6485826,28.1425228 16.3416385,27.8522757 11.9898049,27.7742523 C10.5434953,27.7485781 9.21980215,27.5513703 8.09675319,27.2992005 C10.5527034,31.2957878 14.9650569,33.9609883 20,33.9609883 C20.0159033,33.9609883 20.0318003,33.9609617 20.0476911,33.9609086 C23.6232807,33.0789376 27.7406661,31.7759101 29.4352146,28.3872042 C29.4352146,28.3872042 36.5141222,8.98122237 24.5671782,11.2719896 C20.293368,12.0915475 18.5674902,16.4677243 18.5674902,16.4677243 C18.5674902,16.4677243 18.9988036,12.1102731 22.5735241,9.97055917 C24.2070618,8.99263302 26.9514453,8.73250095 28.1510953,8.66424482 C26.6029359,7.54907284 24.8170932,6.74323394 22.8840861,6.3372471 Z M36,20 C36,28.8366596 28.8366596,36 20,36 C11.1633404,36 4,28.8366596 4,20 C4,11.1633404 11.1633404,4 20,4 C28.8366596,4 36,11.1633404 36,20 Z" id="Shape"></path>
        </g>
    </g>
</svg>