<?xml version="1.0" encoding="UTF-8"?>
<svg width="40px" height="40px" viewBox="0 0 40 40" version="1.1" xmlns="http://www.w3.org/2000/svg" xmlns:xlink="http://www.w3.org/1999/xlink">
    <!-- Generator: Sketch 46.1 (44463) - http://www.bohemiancoding.com/sketch -->
    <title>enlightenment_indicator_press</title>
    <desc>Created with Sketch.</desc>
    <defs></defs>
    <g id="Page-1" stroke="none" stroke-width="1" fill="none" fill-rule="evenodd" opacity="0.4">
        <g id="enlightenment_indicator_press" fill-rule="nonzero" fill="#FFFFFF">
            <path d="M36,20 C36,11.1633404 28.8366596,4 20,4 C11.1633404,4 4,11.1633404 4,20 C4,28.8366596 11.1633404,36 20,36 C28.8366596,36 36,28.8366596 36,20 L36,20 Z M33.9609883,20 C33.9609883,27.7105445 27.7105445,33.9609883 20,33.9609883 C12.2894555,33.9609883 6.0390117,27.7105445 6.0390117,20 C6.0390117,12.2894555 12.2894555,6.0390117 20,6.0390117 C27.7105445,6.0390117 33.9609883,12.2894555 33.9609883,20 Z M19.5494218,9.04054422 C19.5316667,9.76911565 19.3528912,10.7860544 19.0479932,11.2513605 C18.950034,11.3493197 18.8514626,11.4478912 18.7535034,11.5458503 C18.5055442,11.5121769 18.4186054,11.3627891 18.2814626,11.2219728 C17.967381,10.8987075 17.4586054,9.83278912 17.397381,9.2762585 C17.3135034,9.41646259 17.4206463,9.74585034 17.4267687,9.92462585 C17.4506463,10.6176871 17.5167687,11.5654422 17.0728912,11.8703401 C16.9259524,11.9536054 16.672483,11.707483 16.5720748,11.6346259 C16.2114626,11.372585 15.9267687,10.9813605 15.6879932,10.6029932 C15.5710544,10.4180952 15.507381,10.1982993 15.3635034,10.0427891 L15.3635034,10.0134014 L15.3341156,10.0134014 C15.4553401,10.8264626 15.9757483,11.6903401 15.5404422,12.577483 C14.7751361,12.5719728 13.7655442,11.5587075 13.4471769,11.0744218 L13.4177891,11.0744218 C13.467381,11.2403401 13.580034,11.3517687 13.6535034,11.4870748 C13.9620748,12.0552381 14.3012585,12.7182993 14.1843197,13.5209524 C14.1745238,13.5307483 14.1647279,13.5405442 14.154932,13.5503401 C13.3590136,13.6997279 12.7847279,13.1836054 12.327381,12.872585 C12.1528912,12.7538095 11.9177891,12.6589116 11.7965646,12.4893197 L11.7671769,12.4893197 C11.8565646,12.7262585 12.1241156,12.8866667 12.2679932,13.0789116 C12.4939116,13.3813605 12.6757483,13.6709524 12.857585,14.022381 C12.9279932,14.1589116 13.1557483,14.5556463 13.0051361,14.7889116 L13.0051361,14.8476871 L13.0345238,14.8476871 C13.2867687,14.3505442 13.7814626,13.9072789 14.2137075,13.5803401 C14.5112585,13.355034 14.7794218,13.055034 15.0984014,12.8431973 C15.892483,12.3154422 16.8402381,11.9842177 17.8694218,11.6934014 C18.232483,11.6444218 18.5961565,11.5954422 18.9598299,11.5458503 L19.520034,11.5458503 C19.8108503,11.4913605 20.6330952,11.5513605 20.9643197,11.6346259 C21.5110544,11.7717687 22.0584014,11.8715646 22.5561565,12.0766667 C23.6422789,12.5242177 24.5018707,13.1713605 25.3271769,13.8748299 C25.6253401,14.1295238 25.8084014,14.5195238 26.0937075,14.7889116 L26.0937075,14.8182993 C26.1781973,14.6836054 26.1439116,14.2734014 26.2112585,14.1105442 C26.3679932,13.7327891 27.0488095,12.7893197 27.3610544,12.577483 L27.3610544,12.5187075 C27.1535034,12.6295238 26.9863605,12.8015646 26.8008503,12.9313605 C26.482483,13.1548299 26.1506463,13.3017687 25.7692177,13.4621769 C25.6394218,13.5166667 25.2384014,13.6856463 25.0326871,13.5503401 C24.8808503,13.4597279 24.8869728,13.0556463 24.9439116,12.8431973 C25.0657483,12.3882993 25.4361565,11.4515646 25.7104422,11.162585 L25.7104422,11.1038095 C25.3651361,11.3358503 25.157585,11.7687075 24.8257483,12.0178912 C24.6708503,12.1342177 24.5135034,12.272585 24.3543197,12.3711565 C24.2030952,12.4648299 24.0004422,12.4752381 23.8528912,12.577483 C23.0630952,12.5744218 23.5890136,10.8515646 23.7059524,10.4848299 C23.7530952,10.3360544 23.7402381,10.2062585 23.8235034,10.1015646 L23.8235034,9.98340136 L23.7941156,9.98340136 C23.7298299,10.2148299 23.5553401,10.3905442 23.4402381,10.5729932 C23.0710544,11.1613605 22.7906463,11.6395238 22.0847279,11.8997279 C21.5630952,11.1111565 21.7302381,10.3887075 21.7896259,9.2762585 C21.6163605,9.49544218 21.4779932,10.1872789 21.347585,10.4848299 C21.2043197,10.812381 20.9526871,11.2642177 20.6692177,11.4576871 C20.6055442,11.5011565 20.5443197,11.495034 20.4922789,11.5458503 C19.9063605,11.4895238 19.7747279,10.2901361 19.637585,9.71829932 C19.584932,9.49727891 19.6516667,9.21319728 19.5494218,9.04054422 Z M15.3047279,9.95401361 L15.3047279,10.0134014 L15.3341156,10.0134014 C15.3151361,9.96258503 15.3279932,9.98401361 15.3047279,9.95401361 Z M19.1367687,12.2536054 C18.984932,12.3485034 18.5753401,12.2909524 18.3702381,12.3417687 C17.7726871,12.4905442 17.1867687,12.6154422 16.6602381,12.8431973 C14.4304422,13.807483 13.0326871,15.5285034 12.327381,18.0313605 C12.0053401,19.1719728 12.1528912,20.7821769 12.4743197,21.7752381 C13.2763605,24.2468707 14.8969728,25.9727891 17.3386054,26.7864626 C19.007585,27.342381 21.0420748,27.0938095 22.4379932,26.4913605 C22.7771769,26.3456463 23.1861565,26.2544218 23.4402381,26.019932 L23.4696259,26.019932 C23.2798299,25.4542177 22.7581973,25.0305442 22.5855442,24.457483 C22.2316667,24.5162585 21.8784014,24.7678912 21.5539116,24.9001361 C20.7530952,25.2252381 19.1490136,25.4138095 18.1345238,25.1358503 C16.1698299,24.5964626 14.9196259,23.3180952 14.2430952,21.4801361 C13.8935034,20.5305442 13.8181973,19.0470748 14.154932,18.0019728 C14.392483,17.2648299 14.7726871,16.625034 15.1865646,16.0562585 C15.3402381,15.845034 15.5802381,15.6705442 15.7761565,15.4960544 C16.6908503,14.682381 17.7904422,14.0517687 19.520034,14.0517687 C19.9345238,14.0517687 20.2884014,14.0480952 20.6398299,14.139932 C21.3218707,14.3180952 21.9867687,14.5427891 22.5267687,14.8770748 C23.840034,15.6913605 24.5398299,16.7364626 25.0026871,18.4146259 C25.1398299,18.9111565 25.2616667,19.7940136 25.1208503,20.4191156 C25.0081973,20.9187075 24.8441156,21.3882993 24.737585,21.8340136 C24.5196259,21.7917687 23.9428912,21.3668707 23.7941156,21.215034 C23.7941156,21.215034 24.0212585,20.2905442 24.0598299,20.1240136 C24.2355442,19.3611565 23.9581973,18.3019728 23.7353401,17.7956463 C23.1384014,16.4401361 22.1086054,15.7305442 20.6104422,15.2603401 C20.1463605,15.1146259 19.312483,15.0209524 18.7535034,15.1721769 C18.4277891,15.2597279 18.077585,15.335034 17.7806463,15.4666667 C16.9118707,15.8511565 16.1722789,16.5521769 15.6879932,17.3236054 C15.5484014,17.5458503 15.4951361,17.8513605 15.3341156,18.0607483 C18.5759524,20.232381 21.8196259,22.4040136 25.0620748,24.5756463 C25.3926871,24.5064626 25.7967687,23.7129932 25.9755442,23.4258503 C26.8222789,22.0648299 27.3684014,19.6868707 26.7420748,17.6480952 C25.790034,14.5476871 23.2743197,12.1715646 19.1367687,12.2536054 Z M13.0345238,24.457483 C13.1539116,25.5576871 12.257585,26.0891156 11.8259524,26.7570748 L11.7965646,26.7570748 L11.7965646,26.7864626 C11.9722789,26.7246259 12.0696259,26.585034 12.2092177,26.4913605 C12.5753401,26.2464626 12.9665646,25.987483 13.3884014,25.8136054 C13.552483,25.7462585 14.0251361,25.6421769 14.1843197,25.7842177 C14.3030952,25.9434014 14.2792177,26.3297279 14.2137075,26.5507483 C14.0857483,26.9805442 13.7141156,27.8927891 13.4471769,28.1719728 L13.4471769,28.2307483 C13.7618707,27.9068707 14.0759524,27.582381 14.3906463,27.2578912 C14.5706463,27.122585 14.7745238,26.9395238 14.9802381,26.8452381 C15.0977891,26.7913605 15.2306463,26.7962585 15.3341156,26.7276871 C16.0994218,26.7338095 15.6053401,28.4205442 15.4810544,28.7909524 C15.4259524,28.9568707 15.4308503,29.1411565 15.3341156,29.262381 L15.3341156,29.3511565 L15.3635034,29.3511565 C15.4277891,29.1197279 15.6022789,28.9440136 15.717381,28.7615646 C16.0920748,28.1646259 16.3792177,27.6619728 17.1028912,27.4054422 C17.5994218,28.1787075 17.4212585,28.8962585 17.397381,29.9995238 C17.5712585,29.7803401 17.7096259,29.0897279 17.8394218,28.7909524 C17.9441156,28.5503401 18.2337075,28.0507483 18.4290136,27.9068707 C18.5135034,27.8444218 18.6212585,27.8303401 18.6941156,27.7593197 C18.9261565,27.8009524 18.9720748,27.9729932 19.0779932,28.142585 C19.3865646,28.6360544 19.5684014,29.5085034 19.5788095,30.2646259 C19.637585,29.8519728 19.6969728,29.4393197 19.7557483,29.0266667 C19.8543197,28.6556463 19.9657483,28.2436054 20.1684014,27.9656463 C20.2277891,27.8836054 20.3422789,27.8419728 20.4041156,27.7593197 C21.0010544,27.8058503 21.3806463,28.8570748 21.5832993,29.3511565 C21.6677891,29.5568707 21.6671769,29.8036054 21.7896259,29.9701361 L21.7896259,30.0289116 L21.8190136,30.0289116 C21.7241156,29.2489116 21.5508503,27.8070748 22.1141156,27.4348299 C22.2616667,27.3515646 22.5120748,27.5995238 22.614932,27.6705442 C22.9890136,27.9301361 23.2859524,28.3758503 23.5290136,28.7615646 C23.6318707,28.925034 23.6796259,29.1417687 23.8235034,29.262381 L23.8235034,29.3217687 L23.8528912,29.3217687 C23.7353401,28.5356463 23.1763605,27.5168707 23.6471769,26.7276871 C24.3996259,26.7331973 25.3963605,27.7256463 25.7104422,28.2013605 L25.7398299,28.2013605 C25.6755442,27.9809524 25.5243197,27.7911565 25.4153401,27.6117687 C25.2414626,27.3246259 25.1037075,26.9364626 25.0026871,26.6095238 C24.9439116,26.4185034 24.8820748,25.9782993 25.0026871,25.8136054 L25.0026871,25.7548299 C25.762483,25.6121769 26.277381,26.0548299 26.7126871,26.3444218 C26.9104422,26.4754422 27.1663605,26.5660544 27.3022789,26.7570748 L27.3610544,26.7570748 C27.2943197,26.5782993 27.112483,26.4846259 27.0071769,26.3444218 C26.6226871,25.8289116 26.1384014,25.3893197 26.152483,24.4868707 C26.0196259,24.5817687 25.9553401,24.7397279 25.8579932,24.8701361 C25.6871769,25.0978912 25.4410544,25.3170748 25.2384014,25.5191156 C24.6371769,26.1185034 23.8198299,26.6909524 22.9981973,27.0515646 C22.3810544,27.3227891 21.7026871,27.4948299 20.9937075,27.6705442 C20.4732993,27.7997279 19.2561565,27.8162585 18.7241156,27.7005442 C18.5569728,27.6907483 18.3898299,27.6803401 18.2226871,27.6705442 C17.6986054,27.5419728 17.1696259,27.4556463 16.6896259,27.2578912 C15.9971769,26.972585 15.3255442,26.6076871 14.7445238,26.1968707 C14.4635034,25.9978912 14.2271769,25.7297279 13.9486054,25.5191156 C13.5788095,25.2387075 13.3706463,24.7721769 13.0345238,24.457483 Z M25.7398299,28.2013605 L25.7398299,28.2601361 L25.7692177,28.2601361 C25.7502381,28.2093197 25.7637075,28.2313605 25.7398299,28.2013605 Z M23.8528912,29.3217687 L23.8528912,29.3805442 L23.8828912,29.3805442 C23.8639116,29.3297279 23.8767687,29.3517687 23.8528912,29.3217687 Z" id="Shape"></path>
        </g>
    </g>
</svg>