<?xml version="1.0" encoding="UTF-8"?>
<svg width="40px" height="40px" viewBox="0 0 40 40" version="1.1" xmlns="http://www.w3.org/2000/svg" xmlns:xlink="http://www.w3.org/1999/xlink">
    <!-- Generator: Sketch 46.1 (44463) - http://www.bohemiancoding.com/sketch -->
    <title>fluxbox_indicator_normal</title>
    <desc>Created with Sketch.</desc>
    <defs></defs>
    <g id="Page-1" stroke="none" stroke-width="1" fill="none" fill-rule="evenodd" opacity="0.7">
        <g id="fluxbox_indicator_normal" fill-rule="nonzero" fill="#FFFFFF">
            <path d="M36,20 C36,11.1633404 28.8366596,4 20,4 C11.1633404,4 4,11.1633404 4,20 C4,28.8366596 11.1633404,36 20,36 C28.8366596,36 36,28.8366596 36,20 L36,20 Z M33.9609883,20 C33.9609883,27.7105445 27.7105445,33.9609883 20,33.9609883 C12.2894555,33.9609883 6.0390117,27.7105445 6.0390117,20 C6.0390117,12.2894555 12.2894555,6.0390117 20,6.0390117 C27.7105445,6.0390117 33.9609883,12.2894555 33.9609883,20 Z M27.5759532,12.8390058 C18.9812211,12.8271458 6.695542,16.1878864 9.03133162,24.0647782 C9.03133162,24.0647782 8.85655314,24.6097126 8.83782687,25.3868526 C8.30849774,25.19959 7.76293918,24.9867347 7.19678173,24.7414207 C7.76169077,25.1665069 8.31099458,25.5435291 8.84781421,25.8787292 C8.90024776,26.6583661 9.13557451,27.5790742 9.80410221,28.4105204 C9.75104446,28.0328741 9.86090522,27.4099136 10.1848696,26.6415125 C18.1466539,30.740068 22.6802829,25.0703787 22.6166136,21.843843 C22.0173731,23.3282118 18.6547599,28.0553456 10.5350508,25.9149333 C12.43327,22.3962679 18.3014577,16.8701467 31.8861155,16.4044869 C31.8861155,16.4044869 21.3919158,14.6005232 12.8933119,19.461862 C12.8933119,19.461862 18.6953335,13.3770738 31.8542808,13.1835691 C30.6320798,12.9576055 29.1676858,12.8415026 27.5759532,12.8390058 Z M12.2185422,24.4193289 L13.4413673,24.38687 L13.924505,23.5822648 L12.797808,23.6147236 L12.2185422,24.4193289 Z" id="Shape"></path>
        </g>
    </g>
</svg>