<?xml version="1.0" encoding="UTF-8"?>
<svg width="40px" height="40px" viewBox="0 0 40 40" version="1.1" xmlns="http://www.w3.org/2000/svg" xmlns:xlink="http://www.w3.org/1999/xlink">
    <!-- Generator: Sketch 46.1 (44463) - http://www.bohemiancoding.com/sketch -->
    <title>gnome_indicator_hover</title>
    <desc>Created with Sketch.</desc>
    <defs></defs>
    <g id="Page-1" stroke="none" stroke-width="1" fill="none" fill-rule="evenodd">
        <g id="gnome_indicator_hover" fill="#FFFFFF">
            <path d="M33.9609883,20 C33.9609883,27.7105445 27.7105445,33.9609883 20,33.9609883 C12.2894555,33.9609883 6.0390117,27.7105445 6.0390117,20 C6.0390117,12.2894555 12.2894555,6.0390117 20,6.0390117 C27.7105445,6.0390117 33.9609883,12.2894555 33.9609883,20 Z M21.9430949,16.7991678 C20.4556567,16.7748244 18.7073082,17.1356047 17.2747984,17.8584135 C15.8416645,18.5812224 14.7586996,19.6435891 14.4453576,21.0080624 C14.1120416,22.4617945 14.8136281,24.3281144 16.1319116,25.8161769 C17.4501951,27.3042393 19.3396099,28.3940702 21.2046814,28.3940702 C22.9430429,28.3940702 25.1276983,26.749961 25.5109493,24.7706632 C25.5359168,24.643329 25.5215605,24.5902731 25.4972172,24.5478283 C25.4722497,24.5053836 25.4148244,24.4598179 25.3018466,24.4080104 C25.076515,24.3050195 24.6458257,24.2538362 24.2007802,24.2969051 C23.7569831,24.339974 23.2982055,24.4610663 23.0023407,24.6171131 C22.8544083,24.6957607 22.7539142,24.7856437 22.7102211,24.839948 C22.6652796,24.8948765 22.6684005,24.8961248 22.6684005,24.8961248 C22.7776333,25.7106892 22.4493108,26.4278804 21.8457217,26.7493368 C21.2421326,27.0714174 20.4594018,26.9690507 19.7690507,26.456593 C19.256593,26.0770871 18.9207802,25.6813524 18.793446,25.2306892 C18.666736,24.780026 18.7978153,24.3237451 19.0443693,23.9623407 C19.5381014,23.2395319 20.4425488,22.7071001 21.4137841,22.1228609 C22.3850195,21.5386216 23.419922,20.9244213 24.1452276,20.2690247 C24.8705332,19.6142523 25.2506632,19.0006762 25.1208322,18.2485306 C25.0490507,17.8340702 24.7588036,17.5069961 24.2007802,17.2448375 C23.6427568,16.9826788 22.8356827,16.8135241 21.9430949,16.7991678 Z M26.5701951,10.1097529 C24.809987,10.1097529 23.8119116,11.3824707 23.4486346,12.6876463 C23.2663719,13.3405462 23.2644993,13.9909493 23.406814,14.4160208 C23.5485046,14.8410923 23.7288947,15.0152406 24.0896749,15.0152406 C24.4504551,15.0152406 25.0758908,14.7131339 25.6782315,14.2069181 C26.2811964,13.7007022 26.8648114,13.0115995 27.2530559,12.3393498 C27.6413004,11.6671001 27.80671,11.0079584 27.726814,10.6671521 C27.6868661,10.4961248 27.6250715,10.4043693 27.4621586,10.3044993 C27.2992458,10.2052536 27.0102471,10.1097529 26.5701951,10.1097529 Z M20.3127178,11.0154486 C19.8757867,11.0685046 19.6504551,11.2557607 19.4906632,11.5310273 C19.3302471,11.8069181 19.2659558,12.2076463 19.2952926,12.6183615 C19.3246294,13.0290767 19.4507152,13.4354226 19.6161248,13.7194278 C19.7815345,14.0028088 19.963173,14.1051756 20.0343303,14.1095449 C20.0543043,14.1101691 20.2659038,14.0215345 20.48,13.6913394 C20.6940962,13.3611443 20.8950845,12.8717815 20.9812224,12.4092588 C21.0679844,11.946736 21.0330299,11.5054356 20.9262939,11.280104 C20.8189337,11.0553966 20.736541,10.9642653 20.3127178,11.0154486 Z M13.6095709,14.7643173 C13.5689987,14.7630689 13.5003381,14.7705592 13.3723797,14.8616905 C13.1170871,15.0458257 13.0440572,15.2255917 13.0378153,15.4889987 C13.0315735,15.7524057 13.1426788,16.0944603 13.316827,16.3953186 C13.4909753,16.6955527 13.7312874,16.9558388 13.9441352,17.1056437 C14.1563589,17.2554486 14.2855657,17.2417165 14.2780754,17.2448375 C14.2293888,17.2673082 14.3286346,17.1961508 14.3617165,16.9383615 C14.3954226,16.6805722 14.3798179,16.3135501 14.3061638,15.9627568 C14.2325098,15.6119636 14.1026788,15.2642913 13.9578674,15.0427048 C13.8130559,14.8217425 13.6882185,14.7674382 13.6095709,14.7643173 Z M16.6056697,12.3393498 C16.543251,12.3243693 16.4546164,12.3281144 16.2848375,12.3949025 C15.9490247,12.5278544 15.8216905,12.7088687 15.7555267,12.966658 C15.6893628,13.2244473 15.719948,13.5739922 15.8391678,13.9141743 C15.9583875,14.2537321 16.1543823,14.5751886 16.3547464,14.7786736 C16.5551105,14.9809103 16.726762,15.0214824 16.7592198,15.0152406 C16.7442393,15.0177373 16.8590897,14.9571912 16.9539662,14.7081404 C17.0488427,14.4597139 17.1062679,14.0852016 17.1075163,13.7194278 C17.1087646,13.3530299 17.0463459,12.9978674 16.9402341,12.7438231 C16.8341222,12.4891547 16.726762,12.3686866 16.6056697,12.3393498 Z M36,20 C36,11.1633404 28.8366596,4 20,4 C11.1633404,4 4,11.1633404 4,20 C4,28.8366596 11.1633404,36 20,36 C28.8366596,36 36,28.8366596 36,20 L36,20 Z" id="Fill-14"></path>
        </g>
    </g>
</svg>