<?xml version="1.0" encoding="UTF-8"?>
<svg width="40px" height="40px" viewBox="0 0 40 40" version="1.1" xmlns="http://www.w3.org/2000/svg" xmlns:xlink="http://www.w3.org/1999/xlink">
    <!-- Generator: Sketch 46.1 (44463) - http://www.bohemiancoding.com/sketch -->
    <title>lxde_indicator_normal</title>
    <desc>Created with Sketch.</desc>
    <defs></defs>
    <g id="Page-1" stroke="none" stroke-width="1" fill="none" fill-rule="evenodd" opacity="0.7">
        <g id="lxde_indicator_normal" fill-rule="nonzero" fill="#FFFFFF">
            <path d="M36,20 C36,11.1633404 28.8366596,4 20,4 C11.1633404,4 4,11.1633404 4,20 C4,28.8366596 11.1633404,36 20,36 C28.8366596,36 36,28.8366596 36,20 L36,20 Z M30.2036334,29.5287987 C30.2467971,29.8156916 30.2789473,30.0626196 30.2959688,30.2672562 C30.2614952,30.1785891 30.1928626,29.9624127 30.0940727,29.6447421 C27.5521288,32.3043599 23.9695582,33.9609883 20,33.9609883 C15.9913939,33.9609883 12.3774263,32.2716076 9.83121592,29.5659649 C9.78588209,29.6033134 9.73969554,29.6369104 9.69154746,29.666788 C9.69154746,29.6294631 9.71049984,29.5644897 9.74633954,29.4749697 C7.44517278,26.9858953 6.0390117,23.6571869 6.0390117,20 C6.0390117,12.2894555 12.2894555,6.0390117 20,6.0390117 C27.7105445,6.0390117 33.9609883,12.2894555 33.9609883,20 C33.9609883,23.683615 32.534431,27.033987 30.2036334,29.5287987 Z M30.2036334,29.5287987 C30.104342,28.8688469 29.9467719,27.9974184 29.7810143,26.9428349 C28.7848114,20.5686346 27.423459,12.6439532 23.9342523,10.320104 C24.1146424,10.0804161 24.280052,9.33139142 24.2887906,8.86824447 C24.2944083,8.58548765 24.6239792,8.40946684 25.2494148,7.53248375 C25.1064759,7.44572172 24.5297269,7.7209883 23.6727178,8.05929779 C22.8831209,8.37139142 22.4405722,8.74590377 22.2302211,8.76712614 C20.4269441,8.94814044 6.92577373,18.4426528 6.87708713,18.5431469 C7.00691808,18.6130559 11.0304291,16.6730819 14.3941743,15.8710013 C15.1837711,15.6831209 15.7105852,15.8298049 14.3330039,17.7541743 C12.7350845,19.9868921 9.21591678,25.3829909 9.10793238,25.8211704 C9.41815345,25.9141743 13.916671,19.8845254 15.4359428,18.2647594 C16.2679844,17.3777893 16.8147724,16.9808062 17.0837971,16.9795579 C17.2735501,16.9789337 17.3241092,16.8272562 15.736801,19.4307412 C14.4985164,21.4606394 10.2762855,28.1512765 9.74633954,29.4749697 C9.77449797,29.5054275 9.80279041,29.5357595 9.83121592,29.5659649 C10.0491733,29.3863999 10.2474198,29.1201217 10.5491808,28.7635891 C11.8037971,27.2817685 18.6417685,17.9788817 19.7815345,16.3553706 C21.696541,13.6264239 22.989857,14.6725618 24.4254876,16.2935761 C26.8858216,19.0708214 29.3485889,27.2475496 30.0940727,29.6447421 C30.130811,29.6063032 30.1673318,29.5676547 30.2036334,29.5287987 Z" id="Shape"></path>
        </g>
    </g>
</svg>