<?xml version="1.0" encoding="UTF-8"?>
<svg width="40px" height="40px" viewBox="0 0 40 40" version="1.1" xmlns="http://www.w3.org/2000/svg" xmlns:xlink="http://www.w3.org/1999/xlink">
    <!-- Generator: Sketch 46.1 (44463) - http://www.bohemiancoding.com/sketch -->
    <title>kde_indicator_normal</title>
    <desc>Created with Sketch.</desc>
    <defs></defs>
    <g id="Page-1" stroke="none" stroke-width="1" fill="none" fill-rule="evenodd" opacity="0.7">
        <g id="kde_indicator_normal" fill="#FFFFFF">
            <path d="M28.5132313,23.1765986 C30.0358844,23.1765986 31.2744558,21.9429252 31.2744558,20.4202721 C31.2744558,18.897619 30.0358844,17.6663946 28.5132313,17.6663946 L28.035068,17.6663946 C27.9383333,17.0541497 27.8269048,17.0663946 27.7032313,16.8061905 L28.0387415,16.4412925 C28.5597619,15.9202721 28.845068,15.2143537 28.845068,14.4753741 C28.845068,13.7363946 28.5597619,13.0372109 28.0387415,12.5161905 C27.5195578,11.9970068 26.8271088,11.7061905 26.0881293,11.7061905 C25.3491497,11.7061905 24.6542517,11.9921088 24.1356803,12.5112925 L23.9379252,12.8480272 C23.6777211,12.7243537 23.2718027,12.6117007 23.2718027,12.514966 L23.2718027,12.0368027 C23.2718027,10.5141497 22.0393537,9.27557823 20.5167007,9.27557823 C18.9946599,9.27557823 17.7615986,10.5141497 17.7615986,12.0368027 L17.7615986,12.514966 C17.1493537,12.6117007 17.0709864,12.7237415 16.8089456,12.8468027 L16.399966,12.5094558 C15.8789456,11.9902721 15.1491497,11.702517 14.4101701,11.702517 C13.6711905,11.702517 12.9603741,11.9902721 12.4393537,12.5094558 C11.9201701,13.0304762 11.6232313,13.7229252 11.6232313,14.4619048 C11.6232313,15.2008844 11.9067007,15.8939456 12.4252721,16.414966 L12.7607823,16.8043537 C12.6371088,17.0663946 12.5232313,17.0541497 12.4264966,17.6663946 L11.9483333,17.6663946 C10.4238435,17.6663946 9.18710884,18.897619 9.18710884,20.4202721 C9.18710884,21.9429252 10.4238435,23.1765986 11.9483333,23.1765986 L12.4264966,23.1765986 C12.5232313,23.1765986 12.6352721,23.6737415 12.7589456,23.9363946 L12.4209864,24.2480272 C11.9018027,24.7672109 11.6140476,25.4492517 11.6140476,26.1888435 C11.6140476,26.9278231 11.9018027,27.6141497 12.4209864,28.1333333 C12.9420068,28.6543537 13.6344558,28.9365986 14.3734354,28.9365986 C15.112415,28.9365986 15.8054762,28.6494558 16.3264966,28.1284354 L16.8089456,27.7923129 C17.0709864,27.9159864 17.1493537,28.024966 17.7615986,28.1235374 L17.7615986,28.6017007 C17.7615986,30.1243537 18.9946599,31.3629252 20.5167007,31.3629252 C22.0393537,31.3629252 23.2718027,30.1243537 23.2718027,28.6017007 L23.2718027,28.1235374 C23.2718027,28.024966 23.6777211,27.9147619 23.9379252,27.7917007 L24.2054762,28.1272109 C24.7246599,28.6482313 25.3840476,28.9335374 26.1230272,28.9335374 C26.8620068,28.9335374 27.5373129,28.6482313 28.0564966,28.1272109 C28.577517,27.6080272 28.8542517,26.9155782 28.8542517,26.1765986 C28.8542517,25.437619 28.5640476,24.7427211 28.0430272,24.2235374 L27.7056803,23.9345578 C27.8287415,23.6737415 27.9383333,23.1765986 28.035068,23.1765986 L28.5132313,23.1765986 L28.5132313,23.1765986 Z M33.9609883,20 C33.9609883,27.7105445 27.7105445,33.9609883 20,33.9609883 C12.2894555,33.9609883 6.0390117,27.7105445 6.0390117,20 C6.0390117,12.2894555 12.2894555,6.0390117 20,6.0390117 C27.7105445,6.0390117 33.9609883,12.2894555 33.9609883,20 Z M25.1820068,25.5698639 C25.3969048,25.2478231 25.3387415,24.8131293 25.0173129,24.5982313 L19.0203741,20.5929252 L24.4932313,15.8021088 C24.7840476,15.5468027 24.8238435,15.1041497 24.5685374,14.8133333 C24.3144558,14.522517 23.7860884,14.492517 23.4952721,14.7478231 L18.3738435,19.1792517 L18.3738435,15.2296599 C18.3738435,14.8427211 18.1485374,14.5292517 17.7615986,14.5292517 C17.3752721,14.5292517 17.1493537,14.8427211 17.1493537,15.2296599 L17.1493537,20.1441497 C17.1493537,20.1472109 17.145068,20.1496599 17.142619,20.1527211 C16.9785374,20.3988435 17.1493537,20.7092517 17.1493537,20.9388435 L17.1493537,25.9739456 C17.1493537,26.3608844 17.3752721,26.674966 17.7615986,26.674966 C18.1485374,26.674966 18.3738435,26.3608844 18.3738435,25.9739456 L18.3738435,21.9355782 L24.172415,25.7633333 C24.2918027,25.8429252 24.4381293,25.8814966 24.5722109,25.8814966 C24.7987415,25.8814966 25.0467007,25.7719048 25.1820068,25.5698639 Z M36,20 C36,11.1633404 28.8366596,4 20,4 C11.1633404,4 4,11.1633404 4,20 C4,28.8366596 11.1633404,36 20,36 C28.8366596,36 36,28.8366596 36,20 L36,20 Z" id="Fill-12"></path>
        </g>
    </g>
</svg>