<?xml version="1.0" encoding="UTF-8"?>
<svg width="40px" height="40px" viewBox="0 0 40 40" version="1.1" xmlns="http://www.w3.org/2000/svg" xmlns:xlink="http://www.w3.org/1999/xlink">
    <!-- Generator: Sketch 46.1 (44463) - http://www.bohemiancoding.com/sketch -->
    <title>ubuntu_indicator_press</title>
    <desc>Created with Sketch.</desc>
    <defs></defs>
    <g id="Page-1" stroke="none" stroke-width="1" fill="none" fill-rule="evenodd" opacity="0.4">
        <g id="ubuntu_indicator_press" fill="#FFFFFF">
            <path d="M33.2666848,9.85659121 C32.5231864,10.5873909 31.3178563,10.5873909 30.5749923,9.85659121 C29.8314939,9.1251674 29.8314939,7.94003614 30.5749923,7.20861233 C31.3178563,6.47781259 32.5231864,6.47781259 33.2666848,7.20861233 C34.0095488,7.94003614 34.0095488,9.1251674 33.2666848,9.85659121 Z M7.24868195,16.9174522 C6.50581794,17.6482519 5.30048779,17.6482519 4.55762379,16.9174522 C3.8141254,16.1860284 3.8141254,15.0008971 4.55762379,14.2694733 C5.30048779,13.5380495 6.50581794,13.5380495 7.24868195,14.2694733 C7.99218033,15.0008971 7.99218033,16.1860284 7.24868195,16.9174522 Z M26.089261,35.4514321 C25.3457626,36.182856 24.1410668,36.182856 23.3975684,35.4514321 C22.6547044,34.7206324 22.6547044,33.5348771 23.3975684,32.8034533 C24.1410668,32.0726535 25.3457626,32.0726535 26.089261,32.8034533 C26.832125,33.5348771 26.832125,34.7206324 26.089261,35.4514321 Z M17.886407,32.1549574 L17.886407,32.1549574 L17.879991,32.1587984 C18.1875153,31.0588014 18.7782634,30.0462652 19.6194224,29.2193938 C22.24266,26.6414481 26.4900623,26.6278107 29.1298499,29.1785856 L29.1154928,29.1791424 L29.1154928,29.1791424 C29.3772188,28.9607561 29.6204542,28.7413546 29.84946,28.5162387 C30.7882366,27.5934077 31.5732886,26.4623818 32.2855185,25.0752407 C32.5527366,24.5548059 33.19013,24.3501126 33.7091765,24.6180455 C34.228223,24.8859783 34.4323703,25.5250766 34.1651522,26.0455114 C33.3566409,27.6201705 32.4455294,28.9328105 31.3294831,30.0299001 C30.8181865,30.532512 30.257018,31.0021222 29.6148438,31.4762927 C29.1478447,31.8211169 28.4909611,31.7242617 28.1427354,31.2592356 C27.9859756,31.049896 27.8410465,30.8798662 27.6918063,30.7331609 C25.8773181,28.9494928 22.9143434,28.9494928 21.0993381,30.7331609 C20.3415548,31.4780728 19.8846952,32.4375721 19.7746739,33.4665807 C19.7120616,34.0521826 19.1853066,34.4742907 18.6018334,34.406421 C16.0861602,34.1137974 13.6698749,33.2259893 11.5273056,31.7779113 C11.0432177,31.4507355 10.9153079,30.7920266 11.241611,30.3066439 C11.5679141,29.8212612 12.2248658,29.6930093 12.7089537,30.0201852 C14.2949276,31.0920823 16.0509819,31.8094365 17.886407,32.1549574 Z M7.26377951,21.8814534 C8.41224689,21.5891673 9.4728912,21.0019559 10.336439,20.153076 C12.9846754,17.5498214 12.9846754,13.3072936 10.336439,10.7040391 C10.2709595,10.6396718 10.2041502,10.5767557 10.1360269,10.5152673 L10.1360269,10.5152673 L10.1359882,10.5057407 C10.3440367,10.2622995 10.5548918,10.0353244 10.7721557,9.82175082 C11.8262692,8.78554207 13.1244189,7.93881494 14.6664297,7.23446913 C15.197694,6.99180303 15.4321738,6.36325658 15.190155,5.83057134 C14.9481363,5.2978861 14.3212665,5.06277914 13.7900022,5.30544524 C12.0377055,6.10584354 10.5360254,7.08532475 9.29213252,8.30808939 C8.75935788,8.83181455 8.26812823,9.41190466 7.78170486,10.0759772 C7.41823116,10.572197 7.5514887,11.2734732 8.07147622,11.6009171 C8.36158845,11.7836051 8.62310477,11.9883524 8.85641586,12.2177005 C10.6592122,13.9898754 10.6592122,16.8672397 8.85641586,18.6394145 C8.07199588,19.4105107 7.04929164,19.8680093 5.95592131,19.9584522 C5.35721451,20.0079769 4.9199718,20.5471977 4.99379073,21.1449804 C5.3076407,23.686525 6.20644915,26.0773456 7.61416113,28.0458608 C7.9543446,28.5215663 8.61472457,28.6306911 9.0891611,28.2895977 C9.56359762,27.9485043 9.67243123,27.286358 9.33224776,26.8106525 C8.32031042,25.3955803 7.61162799,23.7073381 7.25288968,21.890224 L7.26377951,21.8814534 L7.26377951,21.8814534 L7.26377951,21.8814534 Z M33.0971003,14.8537916 C33.7936182,16.7626945 34.033895,18.8072201 33.7978694,20.8212246 C33.7297392,21.4025797 34.1445329,21.9292394 34.7243373,21.9975519 C35.3041416,22.0658644 35.8293964,21.6499612 35.8975267,21.068606 C36.2133026,18.3740929 35.7966809,15.6336888 34.6835442,13.1406849 C34.452267,12.6227118 33.8551177,12.379314 33.3290002,12.5885734 C31.6042113,13.2745957 29.6070533,12.89501 28.2750269,11.5856089 C26.9508521,10.283926 26.5695135,8.34396157 27.2600868,6.66697052 C27.4806111,6.1314483 27.2314003,5.51761305 26.7005532,5.28877393 C24.3270541,4.2655991 21.7329785,3.84296191 19.1608369,4.05204158 C18.5789524,4.09934077 18.1454832,4.61065658 18.1926562,5.19409739 C18.2398292,5.77753821 18.749781,6.21216688 19.3316655,6.16486769 C21.2450107,6.00933908 23.1724893,6.25711287 24.9799865,6.89062754 L24.9799865,6.89062754 C24.9797199,6.88687156 24.9794661,6.88311103 24.9792252,6.879346 C24.4663627,9.08517216 25.1142117,11.4470275 26.7950038,13.0992704 C28.4789206,14.7545849 30.8806217,15.3848664 33.1180571,14.8683176 C33.1081041,14.8627516 33.1028078,14.8597897 33.1028078,14.8597897 L33.0971003,14.8537916 L33.0971003,14.8537916 L33.0971003,14.8537916 Z" id="Fill-5"></path>
        </g>
    </g>
</svg>