<?xml version="1.0" encoding="UTF-8"?>
<svg width="40px" height="40px" viewBox="0 0 40 40" version="1.1" xmlns="http://www.w3.org/2000/svg" xmlns:xlink="http://www.w3.org/1999/xlink">
    <!-- Generator: Sketch 46.1 (44463) - http://www.bohemiancoding.com/sketch -->
    <title>unknown_indicator_press</title>
    <desc>Created with Sketch.</desc>
    <defs></defs>
    <g id="Page-1" stroke="none" stroke-width="1" fill="none" fill-rule="evenodd" opacity="0.4">
        <g id="unknown_indicator_press" fill-rule="nonzero" fill="#FFFFFF">
            <path d="M36,20 C36,11.1633403 28.8366597,4 20,4 C11.1633403,4 4,11.1633403 4,20 C4,28.8366597 11.1633403,36 20,36 C28.8366597,36 36,28.8366597 36,20 L36,20 Z M34,20 C34,27.7320903 27.7320903,34 20,34 C12.2679097,34 6,27.7320903 6,20 C6,12.2679097 12.2679097,6 20,6 C27.7320903,6 34,12.2679097 34,20 Z M27.5824231,20.2428318 C28.5901751,19.9150089 29.3550952,19.5993275 29.6950598,19.3322125 L29.39152,17.571682 C28.9787059,17.4624077 28.2502105,17.4259829 27.3274497,17.4502661 C27.1574674,17.4502661 26.963202,17.4624077 26.7689365,17.4745492 C26.5018215,16.770337 26.1375738,16.1268327 25.6761934,15.5440364 C25.7854677,15.3740541 25.8826004,15.2162135 25.9797332,15.0583728 C26.4653968,14.2570278 26.8053613,13.601382 26.9146356,13.1764263 L25.5669191,12.0229752 C25.1783882,12.2172407 24.5955919,12.6543379 23.9035212,13.2857006 C23.7699638,13.3949749 23.6364063,13.5285324 23.4907072,13.6620899 C22.8472029,13.3099838 22.1551323,13.0428688 21.4266368,12.8971697 C21.4023537,12.7029043 21.3780705,12.5207804 21.3537873,12.3386566 C21.2202298,11.4037541 21.0623891,10.6752587 20.8802653,10.2867278 L19.1197347,10.2867278 C18.9376109,10.6874003 18.7797702,11.4037541 18.6462127,12.3386566 C18.6219295,12.5086389 18.5976463,12.7029043 18.5733632,12.8971697 C17.8327262,13.0428688 17.1406555,13.3099838 16.5092928,13.6620899 C16.3635937,13.540674 16.2300362,13.4071165 16.0964788,13.2857006 C15.4044081,12.6543379 14.8216118,12.2050991 14.4330809,12.0229752 L13.0853644,13.1764263 C13.2067803,13.601382 13.5346032,14.2570278 14.0202668,15.0583728 C14.1173996,15.2162135 14.2145323,15.3740541 14.3238066,15.5440364 C13.8745677,16.1268327 13.4981785,16.770337 13.2310635,17.4745492 C13.036798,17.4624077 12.8546742,17.4502661 12.6725503,17.4502661 C11.7497895,17.4259829 11.0212941,17.4624077 10.60848,17.571682 L10.3049402,19.3322125 C10.6934711,19.5993275 11.4583913,19.9150089 12.4661433,20.2428318 C12.5511344,20.267115 12.6482671,20.3035398 12.7453999,20.3278229 C12.769683,21.1534511 12.9153821,21.9305128 13.1824971,22.6711498 C13.1703555,22.6832914 13.1582139,22.6832914 13.1460723,22.695433 C12.5389928,23.1810966 11.8954885,23.7153266 11.1669931,24.3102645 L12.0533292,25.8643881 C12.9275237,25.5122819 13.7045855,25.2208838 14.4209393,24.9294856 C14.4330809,24.9294856 14.4452225,24.917344 14.4573641,24.917344 C14.991594,25.5608483 15.6472399,26.1193615 16.3757353,26.5443171 C16.3635937,26.5564587 16.3635937,26.5686003 16.3635937,26.5807419 C16.2178947,27.3456621 16.060054,28.1712902 15.8779301,29.1061926 L17.5291864,29.7132722 C17.9784252,28.8755024 18.3790977,28.147007 18.755487,27.4549364 C18.7676286,27.4427948 18.7676286,27.4306532 18.7797702,27.4185116 C19.1804427,27.4913611 19.6053983,27.5399275 20.030354,27.5399275 C20.4553096,27.5399275 20.8681237,27.4913611 21.2809378,27.4185116 C21.2930794,27.4306532 21.2930794,27.4427948 21.3052209,27.4549364 C21.6816102,28.147007 22.0822827,28.8755024 22.5315216,29.7132722 L24.1827778,29.1061926 C23.9885124,28.1712902 23.8428133,27.3578037 23.6849726,26.5807419 C23.672831,26.5686003 23.672831,26.5564587 23.672831,26.5443171 C24.4013264,26.1193615 25.0569723,25.5729899 25.5912023,24.917344 C25.6033439,24.917344 25.6154855,24.9294856 25.6276271,24.9294856 C26.3561225,25.2208838 27.1210426,25.5244235 27.9952371,25.8643881 L28.8815732,24.3102645 C28.1409362,23.7153266 27.5095735,23.1810966 26.902494,22.695433 C26.8903524,22.6832914 26.8782108,22.6832914 26.8660693,22.6711498 C27.1331842,21.9305128 27.2788833,21.1534511 27.3031665,20.3278229 C27.3881576,20.3035398 27.4974319,20.267115 27.5824231,20.2428318 Z M20.030354,14.5727092 C23.0536099,14.5727092 25.4940696,17.0131688 25.4940696,20.0364248 C25.4940696,23.0596807 23.0536099,25.5001404 20.030354,25.5001404 C17.007098,25.5001404 14.5666384,23.0596807 14.5666384,20.0364248 C14.5666384,17.0131688 17.007098,14.5727092 20.030354,14.5727092 Z M20.030354,22.4647428 C18.6947791,22.4647428 17.6020359,21.3719997 17.6020359,20.0364248 C17.6020359,18.7008498 18.6947791,17.6081067 20.030354,17.6081067 C21.3659289,17.6081067 22.458672,18.7008498 22.458672,20.0364248 C22.458672,21.3719997 21.3659289,22.4647428 20.030354,22.4647428 L20.030354,22.4647428 L20.030354,22.4647428 Z" id="Shape"></path>
        </g>
    </g>
</svg>