<?xml version="1.0" encoding="UTF-8"?>
<svg width="40px" height="40px" viewBox="0 0 40 40" version="1.1" xmlns="http://www.w3.org/2000/svg" xmlns:xlink="http://www.w3.org/1999/xlink">
    <!-- Generator: Sketch 46.1 (44463) - http://www.bohemiancoding.com/sketch -->
    <title>xfce_indicator_press</title>
    <desc>Created with Sketch.</desc>
    <defs></defs>
    <g id="Page-1" stroke="none" stroke-width="1" fill="none" fill-rule="evenodd" opacity="0.4">
        <g id="xfce_indicator_press" fill-rule="nonzero" fill="#FFFFFF">
            <path d="M36,20 C36,11.1633404 28.8366596,4 20,4 C11.1633404,4 4,11.1633404 4,20 C4,28.8366596 11.1633404,36 20,36 C28.8366596,36 36,28.8366596 36,20 L36,20 Z M7.08572105,14.6864535 C6.43245842,14.375342 5.94954884,14.1443549 5.91708713,14.1070481 C5.78351105,14.0121717 5.40525358,13.7418986 5.60436931,13.7350325 C5.51573472,13.5852276 6.1879844,13.8536281 6.6923277,14.1357607 C6.82033484,14.2072103 7.003952,14.2945024 7.21347065,14.38636 C9.37442628,9.4711935 14.2863351,6.0390117 20,6.0390117 C27.7105445,6.0390117 33.9609883,12.2894555 33.9609883,20 C33.9609883,27.7105445 27.7105445,33.9609883 20,33.9609883 C12.2894555,33.9609883 6.0390117,27.7105445 6.0390117,20 C6.0390117,18.118703 6.41110811,16.3243276 7.08572105,14.6864535 Z M7.08572105,14.6864535 C8.11565983,15.1769544 9.56904369,15.8666199 10.3481925,16.3104291 C11.6951886,17.0607022 13.513446,18.5930819 13.6563849,18.8521196 C12.2563329,21.0742263 12.9192198,23.0160728 12.7544343,23.2239272 C12.6345904,23.4005722 11.5229129,24.5228609 11.8755787,24.6839012 C12.2288687,24.8449415 12.7825228,24.6246034 12.8661638,24.576541 C13.043433,24.4747984 13.2487906,24.3043953 13.1751365,24.5884005 C13.0253316,25.1670221 12.3037711,26.563329 13.2388036,26.2674642 C13.3505332,26.210039 14.8654356,24.6888947 15.0470741,24.6395839 C18.033186,25.3480364 21.393186,25.05342 22.0148765,24.7868921 C22.3350845,24.8037451 23.2370351,25.3324317 23.7563589,25.5796099 C24.2763069,25.8274122 25.7007022,26.4297529 25.2812484,25.3074642 C25.1545384,24.9529259 24.2195059,24.0559688 24.3755527,24.0004161 C24.7094928,23.8824447 25.5253056,24.310013 25.8417685,24.3905332 C26.7880364,24.6314694 26.9172432,24.2869181 26.3205202,23.5491287 C25.7237971,22.8113394 25.640156,22.9193238 25.4591417,22.5803901 C25.3143303,22.3082445 25.4173212,21.9836671 25.526554,21.9087646 C25.7175553,21.7739402 28.5819506,20.363277 29.2423407,19.8152406 C30.2260598,19.0019246 29.2173732,17.9763849 28.9795579,17.833446 C26.9403381,16.4995579 24.8555527,16.7779454 24.8280884,16.5663459 C24.8137321,16.3216645 24.8224707,15.6419246 24.7875163,15.4003641 C24.5859038,13.7662419 23.7944343,14.1613524 23.6795839,14.1607282 C22.8506632,14.276827 23.0997139,15.4390637 23.4511313,16.5282705 C23.4804681,16.806658 23.1902211,16.6905592 23.0017165,16.3984395 C22.3650455,14.8410923 22.0841612,14.8904031 21.9062679,14.8448375 C21.7364889,14.809883 21.1460078,15.1207282 21.1591157,15.7511573 C21.1616125,15.9321717 21.3869441,16.7848114 21.3888166,17.0494668 C20.9962029,17.3621847 21.0018205,18.0637711 20.5917295,18.3221847 C19.3914174,18.5506372 16.5051756,17.7822627 16.1468921,17.7485566 C14.8997659,17.5357087 14.3461118,18.3958388 14.143251,18.1942263 C12.5303511,16.5082965 10.0485826,15.2449415 8.97810143,15.0283485 C8.66930084,14.9659363 7.82944755,14.6564178 7.21347065,14.38636 C7.16975633,14.4857897 7.12716775,14.5858262 7.08572105,14.6864535 Z M25.3205722,18.363381 C25.1014824,18.363381 24.9160988,18.1592718 24.9160988,17.9301951 C24.9160988,17.7011183 25.0939922,17.5151105 25.3130819,17.5151105 C25.5321717,17.5151105 25.710065,17.7011183 25.710065,17.9301951 C25.710065,18.1592718 25.5396619,18.363381 25.3205722,18.363381 Z M29.7423147,15.7055917 C29.6986216,15.5894928 28.6605982,16.8984135 28.843485,17.3796619 C28.923381,17.590013 29.8802601,16.0707412 29.7423147,15.7055917 Z M28.6231469,15.5002341 C28.2349025,15.8803641 28.3054356,17.2822887 28.3903251,17.266684 C28.7873082,17.1936541 28.7404941,15.3853836 28.6231469,15.5002341 Z" id="Shape"></path>
        </g>
    </g>
</svg>