<?xml version="1.0" encoding="iso-8859-1"?>
<!-- Generator: Adobe Illustrator 18.0.0, SVG Export Plug-In . SVG Version: 6.00 Build 0)  -->
<!DOCTYPE svg PUBLIC "-//W3C//DTD SVG 1.1//EN" "http://www.w3.org/Graphics/SVG/1.1/DTD/svg11.dtd">
<svg version="1.1" id="&#x56FE;&#x5C42;_1" xmlns="http://www.w3.org/2000/svg" xmlns:xlink="http://www.w3.org/1999/xlink" x="0px"
	 y="0px" viewBox="0 0 56 56" style="enable-background:new 0 0 56 56;" xml:space="preserve">
<g>
	<path style="fill:#FFFFFF;" d="M27.382,7.807c-0.373-0.154-0.804-0.068-1.09,0.218L16.35,18H6c-0.552,0-1,0.448-1,1v18
		c0,0.552,0.448,1,1,1h10.351l9.942,9.938c0.191,0.191,0.447,0.293,0.707,0.293c0.129,0,0.259-0.025,0.383-0.076
		C27.756,48,28,47.636,28,47.231v-38.5C28,8.327,27.756,7.962,27.382,7.807z"/>
	<path style="fill:#FFFFFF;" d="M36.03,25.548c-0.314-0.744-0.765-1.412-1.339-1.987c-0.575-0.574-1.243-1.024-1.986-1.338
		c-0.51-0.215-1.096,0.023-1.311,0.531c-0.215,0.509,0.022,1.096,0.531,1.311c0.505,0.214,0.96,0.521,1.351,0.911
		c0.391,0.392,0.698,0.846,0.912,1.352c0.221,0.524,0.333,1.081,0.333,1.654c0,0.574-0.112,1.131-0.333,1.654
		c-0.214,0.506-0.521,0.96-0.911,1.351c-0.392,0.391-0.846,0.698-1.352,0.912c-0.509,0.215-0.747,0.802-0.531,1.311
		c0.161,0.381,0.532,0.611,0.921,0.611c0.13,0,0.262-0.026,0.389-0.08c0.744-0.314,1.412-0.765,1.986-1.339
		c0.574-0.574,1.024-1.242,1.339-1.986c0.326-0.771,0.492-1.59,0.492-2.433C36.522,27.139,36.356,26.32,36.03,25.548z"/>
</g>
</svg>
