<?xml version="1.0" encoding="iso-8859-1"?>
<!-- Generator: Adobe Illustrator 18.0.0, SVG Export Plug-In . SVG Version: 6.00 Build 0)  -->
<!DOCTYPE svg PUBLIC "-//W3C//DTD SVG 1.1//EN" "http://www.w3.org/Graphics/SVG/1.1/DTD/svg11.dtd">
<svg version="1.1" id="&#x56FE;&#x5C42;_1" xmlns="http://www.w3.org/2000/svg" xmlns:xlink="http://www.w3.org/1999/xlink" x="0px"
	 y="0px" viewBox="0 0 56 56" style="enable-background:new 0 0 56 56;" xml:space="preserve">
<g>
	<path style="fill:#FFFFFF;" d="M27.382,7.807c-0.374-0.154-0.804-0.068-1.09,0.218L16.35,18H6c-0.552,0-1,0.448-1,1v18
		c0,0.552,0.448,1,1,1h10.351l9.942,9.938c0.191,0.191,0.447,0.293,0.707,0.293c0.129,0,0.259-0.025,0.383-0.076
		C27.756,48,28,47.636,28,47.231v-38.5C28,8.327,27.756,7.962,27.382,7.807z"/>
	<path style="fill:#FFFFFF;" d="M49.188,20.181c-1.021-2.411-2.483-4.577-4.343-6.437c-1.861-1.861-4.026-3.322-6.437-4.344
		c-0.51-0.215-1.096,0.022-1.311,0.531s0.022,1.095,0.531,1.311c2.172,0.92,4.125,2.238,5.803,3.916
		c1.678,1.677,2.995,3.629,3.916,5.803c0.953,2.25,1.436,4.637,1.436,7.095c0,2.459-0.483,4.846-1.436,7.096
		c-0.921,2.173-2.238,4.126-3.916,5.803c-1.679,1.678-3.631,2.995-5.803,3.915c-0.508,0.215-0.746,0.802-0.531,1.311
		c0.162,0.381,0.532,0.61,0.921,0.61c0.13,0,0.262-0.026,0.39-0.08c2.41-1.021,4.575-2.481,6.437-4.343
		c1.86-1.86,3.321-4.026,4.343-6.437c1.058-2.498,1.594-5.148,1.594-7.876S50.246,22.679,49.188,20.181z"/>
	<path style="fill:#FFFFFF;" d="M42.739,33.21c0.692-1.633,1.043-3.367,1.043-5.154s-0.351-3.521-1.043-5.153
		c-0.668-1.578-1.625-2.995-2.842-4.211c-1.216-1.217-2.633-2.173-4.211-2.842c-0.51-0.215-1.096,0.022-1.311,0.531
		s0.022,1.095,0.531,1.311c1.34,0.568,2.543,1.38,3.578,2.415c1.035,1.034,1.847,2.238,2.415,3.578
		c0.587,1.384,0.885,2.855,0.885,4.372c0,1.517-0.298,2.988-0.885,4.374c-0.567,1.339-1.379,2.542-2.414,3.578
		c-1.034,1.034-2.238,1.846-3.578,2.414c-0.509,0.216-0.746,0.803-0.531,1.311c0.162,0.381,0.532,0.61,0.921,0.61
		c0.13,0,0.262-0.026,0.39-0.08c1.578-0.669,2.995-1.625,4.211-2.842C41.115,36.204,42.071,34.787,42.739,33.21z"/>
	<path style="fill:#FFFFFF;" d="M36.03,30.415c0.326-0.771,0.492-1.59,0.492-2.433c0-0.843-0.166-1.661-0.492-2.433
		c-0.314-0.744-0.765-1.412-1.339-1.987c-0.575-0.574-1.243-1.024-1.986-1.338c-0.51-0.215-1.096,0.023-1.311,0.531
		c-0.215,0.509,0.022,1.096,0.531,1.311c0.505,0.214,0.96,0.521,1.351,0.911c0.391,0.392,0.698,0.846,0.912,1.352
		c0.221,0.524,0.333,1.081,0.333,1.654c0,0.574-0.112,1.131-0.333,1.654c-0.214,0.506-0.521,0.96-0.911,1.351
		c-0.392,0.391-0.846,0.698-1.352,0.912c-0.509,0.215-0.747,0.802-0.531,1.311c0.161,0.381,0.532,0.611,0.921,0.611
		c0.13,0,0.262-0.026,0.389-0.08c0.744-0.314,1.412-0.765,1.986-1.339C35.265,31.827,35.715,31.159,36.03,30.415z"/>
</g>
</svg>
