<?xml version="1.0" encoding="iso-8859-1"?>
<!-- Generator: Adobe Illustrator 18.0.0, SVG Export Plug-In . SVG Version: 6.00 Build 0)  -->
<!DOCTYPE svg PUBLIC "-//W3C//DTD SVG 1.1//EN" "http://www.w3.org/Graphics/SVG/1.1/DTD/svg11.dtd">
<svg version="1.1" id="&#x56FE;&#x5C42;_1" xmlns="http://www.w3.org/2000/svg" xmlns:xlink="http://www.w3.org/1999/xlink" x="0px"
	 y="0px" viewBox="0 0 56 56" style="enable-background:new 0 0 56 56;" xml:space="preserve">
<g>
	<path style="fill:#FFFFFF;" d="M27.383,7.883c-0.375-0.155-0.804-0.07-1.09,0.217l-9.9,9.9H6c-0.552,0-1,0.448-1,1v18
		c0,0.552,0.448,1,1,1h10.389l9.9,10.01c0.191,0.194,0.449,0.297,0.711,0.297c0.128,0,0.257-0.024,0.38-0.075
		c0.375-0.154,0.62-0.52,0.62-0.925v-38.5C28,8.402,27.756,8.038,27.383,7.883z"/>
	<path style="fill:#FFFFFF;" d="M42.781,22.979c-0.668-1.577-1.624-2.994-2.842-4.211c-1.217-1.217-2.634-2.174-4.211-2.842
		c-0.509-0.214-1.095,0.022-1.311,0.531c-0.215,0.508,0.022,1.095,0.531,1.311c1.339,0.567,2.543,1.38,3.578,2.415
		c1.035,1.035,1.847,2.239,2.414,3.578c0.587,1.385,0.885,2.856,0.885,4.373c0,1.516-0.298,2.988-0.885,4.373
		c-0.567,1.339-1.379,2.542-2.414,3.578c-1.034,1.034-2.238,1.846-3.578,2.414c-0.509,0.216-0.746,0.803-0.531,1.311
		c0.162,0.381,0.532,0.61,0.921,0.61c0.13,0,0.262-0.026,0.39-0.08c1.578-0.669,2.995-1.625,4.211-2.842
		c1.218-1.218,2.174-2.635,2.842-4.211c0.692-1.634,1.043-3.368,1.043-5.153C43.824,26.346,43.473,24.612,42.781,22.979z"/>
	<path style="fill:#FFFFFF;" d="M36.072,30.49c0.326-0.771,0.492-1.59,0.492-2.433c0-0.843-0.166-1.661-0.492-2.433
		c-0.314-0.744-0.765-1.412-1.339-1.987c-0.574-0.573-1.242-1.023-1.985-1.338c-0.511-0.215-1.096,0.023-1.311,0.531
		c-0.215,0.509,0.022,1.096,0.531,1.311c0.506,0.214,0.96,0.521,1.351,0.91c0.391,0.392,0.698,0.846,0.912,1.352
		c0.221,0.524,0.333,1.081,0.333,1.654c0,0.574-0.112,1.131-0.333,1.654c-0.214,0.506-0.521,0.96-0.911,1.351
		c-0.391,0.391-0.846,0.697-1.352,0.911c-0.509,0.215-0.747,0.802-0.531,1.311c0.161,0.381,0.532,0.611,0.921,0.611
		c0.13,0,0.262-0.026,0.389-0.08c0.744-0.314,1.412-0.765,1.986-1.339C35.307,31.902,35.757,31.234,36.072,30.49z"/>
</g>
</svg>
