<?xml version="1.0" encoding="iso-8859-1"?>
<!-- Generator: Adobe Illustrator 18.0.0, SVG Export Plug-In . SVG Version: 6.00 Build 0)  -->
<!DOCTYPE svg PUBLIC "-//W3C//DTD SVG 1.1//EN" "http://www.w3.org/Graphics/SVG/1.1/DTD/svg11.dtd">
<svg version="1.1" id="&#x56FE;&#x5C42;_1" xmlns="http://www.w3.org/2000/svg" xmlns:xlink="http://www.w3.org/1999/xlink" x="0px"
	 y="0px" viewBox="0 0 56 56" style="enable-background:new 0 0 56 56;" xml:space="preserve">
<g>
	<path style="fill:#FFFFFF;" d="M44.086,42.518h-7.36c-0.412-0.32-0.719-0.761-0.92-1.325c-0.206-0.561-0.307-1.242-0.307-2.048
		c-1.433,1.287-3.172,2.25-5.213,2.891C28.24,42.68,26.093,43,23.846,43c-3.273,0-6.033-0.64-8.28-1.927
		c-2.252-1.284-3.373-3.132-3.373-5.541c0-2.409,1.021-4.336,3.067-5.782c2.041-1.445,5.213-2.409,9.507-2.89
		c2.861-0.32,5.367-0.723,7.513-1.205c2.147-0.482,3.22-1.122,3.22-1.927c0-0.964-0.46-1.927-1.38-2.891
		c-0.92-0.964-2.913-1.445-5.98-1.445c-2.453,0-4.246,0.362-5.367,1.084c-1.126,0.723-1.893,1.728-2.3,3.012h-6.747
		c0.407-2.567,1.888-4.615,4.447-6.143c2.554-1.524,5.874-2.289,9.967-2.289c4.494,0,7.868,0.806,10.12,2.409
		c2.247,1.608,3.373,3.855,3.373,6.746v13.25c0,0.964,0.201,1.848,0.613,2.65C42.653,40.915,43.267,41.716,44.086,42.518z
		 M35.499,33.604v-4.818c-1.227,0.324-2.406,0.603-3.527,0.843c-1.126,0.241-3.019,0.523-5.673,0.843
		c-3.067,0.324-5.06,0.885-5.98,1.686c-0.92,0.806-1.38,1.769-1.38,2.891c0,0.964,0.46,1.807,1.38,2.529
		c0.92,0.723,2.3,1.085,4.14,1.085c1.84,0,3.833-0.399,5.98-1.205C32.586,36.657,34.273,35.373,35.499,33.604z"/>
</g>
</svg>
