<?xml version="1.0" encoding="iso-8859-1"?>
<!-- Generator: Adobe Illustrator 18.0.0, SVG Export Plug-In . SVG Version: 6.00 Build 0)  -->
<!DOCTYPE svg PUBLIC "-//W3C//DTD SVG 1.1//EN" "http://www.w3.org/Graphics/SVG/1.1/DTD/svg11.dtd">
<svg version="1.1" id="&#x56FE;&#x5C42;_1" xmlns="http://www.w3.org/2000/svg" xmlns:xlink="http://www.w3.org/1999/xlink" x="0px"
	 y="0px" viewBox="0 0 56 56" style="enable-background:new 0 0 56 56;" xml:space="preserve">
<path style="fill:#FFFFFF;" d="M45,25h-5v-7.5C40,11.159,34.599,6,27.953,6C21.362,6,16,11.159,16,17.5V25h-5c-1.105,0-2,0.895-2,2
	v22c0,1.105,0.895,2,2,2h34c1.105,0,2-0.895,2-2V27C47,25.895,46.105,25,45,25z M35,47H22v-4h5v-8h-4v-2.242
	c0,0,4.188-0.758,4.188-3.758H31v14h4V47z M18,25v-7.5c0-5.238,4.465-9.5,9.96-9.5C33.402,8,38,12.351,38,17.5V25H18z"/>
</svg>
