<?xml version="1.0" encoding="iso-8859-1"?>
<!-- Generator: Adobe Illustrator 18.0.0, SVG Export Plug-In . SVG Version: 6.00 Build 0)  -->
<!DOCTYPE svg PUBLIC "-//W3C//DTD SVG 1.1//EN" "http://www.w3.org/Graphics/SVG/1.1/DTD/svg11.dtd">
<svg version="1.1" id="&#x56FE;&#x5C42;_1" xmlns="http://www.w3.org/2000/svg" xmlns:xlink="http://www.w3.org/1999/xlink" x="0px"
	 y="0px" viewBox="0 0 56 56" style="enable-background:new 0 0 56 56;" xml:space="preserve">
<g>
	<path style="fill:#FFFFFF;" d="M44.391,7H11.609C9.068,7,7,9.068,7,11.609v32.782C7,46.932,9.068,49,10.609,49h34.782
		C46.932,49,49,46.932,49,44.391V11.609C49,9.068,46.932,7,44.391,7z M27,47H11.609C10.033,47,9,45.967,9,44.391V39h18V47z
		 M47,44.391C47,45.967,45.967,47,44.391,47H29v-8h18V44.391z M47,37H9V11.609C9,10.033,10.033,9,11.609,9h32.782
		C45.967,9,47,10.033,47,11.609V37z"/>
</g>
</svg>
