<?xml version="1.0" encoding="iso-8859-1"?>
<!-- Generator: Adobe Illustrator 18.0.0, SVG Export Plug-In . SVG Version: 6.00 Build 0)  -->
<!DOCTYPE svg PUBLIC "-//W3C//DTD SVG 1.1//EN" "http://www.w3.org/Graphics/SVG/1.1/DTD/svg11.dtd">
<svg version="1.1" id="&#x56FE;&#x5C42;_1" xmlns="http://www.w3.org/2000/svg" xmlns:xlink="http://www.w3.org/1999/xlink" x="0px"
	 y="0px" viewBox="0 0 56 56" style="enable-background:new 0 0 56 56;" xml:space="preserve">
<g>
	<g>
		<path style="fill:#FFFFFF;" d="M13.733,9h30.657C45.967,9,47,10.033,47,11.609V37h-5.267l1.75,2H47v3.267l2,1.75V11.609
			C49,9.068,46.932,7,44.391,7H11.983L13.733,9z"/>
		<path style="fill:#FFFFFF;" d="M42.335,47H29v-8h4.585l-1.75-2H9V13.665l-2-1.75v32.476C7,46.932,9.068,49,11.609,49h32.476
			L42.335,47z M27,47H11.609C10.033,47,9,45.967,9,44.391V39h18V47z"/>
	</g>
	<path style="fill:#FFFFFF;" d="M49.918,50.759c-0.224,0-0.448-0.085-0.619-0.256L5.549,6.752c-0.342-0.342-0.342-0.896,0-1.237
		s0.896-0.342,1.237,0l43.75,43.75c0.342,0.342,0.342,0.896,0,1.237C50.365,50.673,50.142,50.759,49.918,50.759z"/>
</g>
</svg>
