<?xml version="1.0" encoding="UTF-8"?>
<svg width="75px" height="75px" viewBox="0 0 75 75" version="1.1" xmlns="http://www.w3.org/2000/svg" xmlns:xlink="http://www.w3.org/1999/xlink">
    <!-- Generator: Sketch 46.1 (44463) - http://www.bohemiancoding.com/sketch -->
    <title>cancel_press</title>
    <desc>Created with Sketch.</desc>
    <defs>
        <linearGradient x1="50%" y1="0%" x2="50%" y2="100%" id="linearGradient-1">
            <stop stop-color="#009AFF" offset="0%"></stop>
            <stop stop-color="#2CA7F8" offset="98.0707908%"></stop>
        </linearGradient>
    </defs>
    <g id="Page-1" stroke="none" stroke-width="1" fill="none" fill-rule="evenodd">
        <g id="cancel_press" fill-rule="nonzero" fill="url(#linearGradient-1)">
            <path d="M37.5,57 C48.2695526,57 57,48.2695526 57,37.5 C57,26.7304474 48.2695526,18 37.5,18 C26.7304474,18 18,26.7304474 18,37.5 C18,48.2695526 26.7304474,57 37.5,57 L37.5,57 Z M35.8786797,38 L31.2824856,42.5961941 C30.6966991,43.1819805 30.6966991,44.131728 31.2824856,44.7175144 C31.868272,45.3033009 32.8180195,45.3033009 33.4038059,44.7175144 L38,40.1213203 L42.5961941,44.7175144 C43.1819805,45.3033009 44.131728,45.3033009 44.7175144,44.7175144 C45.3033009,44.131728 45.3033009,43.1819805 44.7175144,42.5961941 L40.1213203,38 L44.7395899,33.3817304 C45.3253764,32.795944 45.3253764,31.8461965 44.7395899,31.2604101 C44.1538035,30.6746236 43.204056,30.6746236 42.6182696,31.2604101 L38,35.8786797 L33.3817304,31.2604101 C32.795944,30.6746236 31.8461965,30.6746236 31.2604101,31.2604101 C30.6746236,31.8461965 30.6746236,32.795944 31.2604101,33.3817304 L35.8786797,38 Z M37.5,54 C28.3873016,54 21,46.6126984 21,37.5 C21,28.3873016 28.3873016,21 37.5,21 C46.6126984,21 54,28.3873016 54,37.5 C54,46.6126984 46.6126984,54 37.5,54 Z" id="Combined-Shape"></path>
        </g>
    </g>
</svg>