<?xml version="1.0" encoding="UTF-8"?>
<svg width="75px" height="75px" viewBox="0 0 75 75" version="1.1" xmlns="http://www.w3.org/2000/svg" xmlns:xlink="http://www.w3.org/1999/xlink">
    <!-- Generator: Sketch 46.1 (44463) - http://www.bohemiancoding.com/sketch -->
    <title>lock_press</title>
    <desc>Created with Sketch.</desc>
    <defs>
        <linearGradient x1="50%" y1="0%" x2="50%" y2="98.0707908%" id="linearGradient-1">
            <stop stop-color="#009AFF" offset="0%"></stop>
            <stop stop-color="#2CA7F8" offset="100%"></stop>
        </linearGradient>
    </defs>
    <g id="Page-1" stroke="none" stroke-width="1" fill="none" fill-rule="evenodd">
        <g id="lock_press" fill="url(#linearGradient-1)">
            <path d="M48.77175,31.6666667 L46.5,31.6666667 L46.5,27.5865098 C46.5,23.0123529 42.51,19 37.9605,19 L36.7185,19 C32.2635,19 28.5,22.9318824 28.5,27.5865098 L28.5,31.6666667 L26.22825,31.6666667 C23.34525,31.6666667 21,33.9965882 21,36.8607451 L21,51.8059216 C21,54.6700784 23.34525,57 26.22825,57 L48.77175,57 C51.65475,57 54,54.6700784 54,51.8059216 L54,36.8607451 C54,33.9965882 51.65475,31.6666667 48.77175,31.6666667 L48.77175,31.6666667 Z M31.5,27.7876923 C31.5,24.65 33.8895,22 36.7185,22 L37.9605,22 C40.86,22 43.5,24.7584615 43.5,27.7876923 L43.5,32 L31.5,32 L31.5,27.7876923 L31.5,27.7876923 Z M51,51.8288846 C51,53.0258846 50.00025,54 48.77175,54 L26.22825,54 C24.99975,54 24,53.0258846 24,51.8288846 L24,37.1711154 C24,35.9741154 24.99975,35 26.22825,35 L48.77175,35 C50.00025,35 51,35.9741154 51,37.1711154 L51,51.8288846 L51,51.8288846 Z" id="Fill-1"></path>
        </g>
    </g>
</svg>