<?xml version="1.0" encoding="UTF-8"?>
<svg width="75px" height="75px" viewBox="0 0 75 75" version="1.1" xmlns="http://www.w3.org/2000/svg" xmlns:xlink="http://www.w3.org/1999/xlink">
    <!-- Generator: Sketch 46.1 (44463) - http://www.bohemiancoding.com/sketch -->
    <title>logout_normal</title>
    <desc>Created with Sketch.</desc>
    <defs></defs>
    <g id="Page-1" stroke="none" stroke-width="1" fill="none" fill-rule="evenodd">
        <g id="logout_normal" fill="#FFFFFF">
            <path d="M53.1825,43.677 C53.937,44.019 54.27075,44.90775 53.92875,45.663 C50.76,52.6545 43.75575,57.17325 36.08625,57.17325 C25.28625,57.17325 16.5,48.387 16.5,37.58625 C16.5,26.78625 25.28625,18 36.08625,18 C43.75575,18 50.76,22.51875 53.92875,29.51025 C54.27075,30.2655 53.937,31.1535 53.1825,31.4955 C52.42725,31.83975 51.5385,31.50375 51.19725,30.74925 C48.51225,24.82725 42.58125,21 36.08625,21 C26.94075,21 19.5,28.44075 19.5,37.58625 C19.5,46.7325 26.94075,54.17325 36.08625,54.17325 C42.58125,54.17325 48.51225,50.346 51.19725,44.424 C51.5385,43.67025 52.4265,43.33425 53.1825,43.677 Z M56.5,36 C57.32875,36 58,36.67125 58,37.5 C58,38.328 57.32875,39 56.5,39 L35.5,39 C34.672,39 34,38.328 34,37.5 C34,36.67125 34.672,36 35.5,36 L56.5,36 Z" id="Fill-2"></path>
        </g>
    </g>
</svg>