<?xml version="1.0" encoding="UTF-8"?>
<svg width="75px" height="75px" viewBox="0 0 75 75" version="1.1" xmlns="http://www.w3.org/2000/svg" xmlns:xlink="http://www.w3.org/1999/xlink">
    <!-- Generator: Sketch 46.1 (44463) - http://www.bohemiancoding.com/sketch -->
    <title>logout_warning_press</title>
    <desc>Created with Sketch.</desc>
    <defs>
        <path d="M53.6825,43.677 C54.437,44.019 54.77075,44.90775 54.42875,45.663 C51.26,52.6545 44.25575,57.17325 36.58625,57.17325 C25.78625,57.17325 17,48.387 17,37.58625 C17,26.78625 25.78625,18 36.58625,18 C44.25575,18 51.26,22.51875 54.42875,29.51025 C54.77075,30.2655 54.437,31.1535 53.6825,31.4955 C52.92725,31.83975 52.0385,31.50375 51.69725,30.74925 C49.01225,24.82725 43.08125,21 36.58625,21 C27.44075,21 20,28.44075 20,37.58625 C20,46.7325 27.44075,54.17325 36.58625,54.17325 C43.08125,54.17325 49.01225,50.346 51.69725,44.424 C52.0385,43.67025 52.9265,43.33425 53.6825,43.677 Z M57,36 C57.82875,36 58.5,36.67125 58.5,37.5 C58.5,38.328 57.82875,39 57,39 L36,39 C35.172,39 34.5,38.328 34.5,37.5 C34.5,36.67125 35.172,36 36,36 L57,36 Z" id="path-1"></path>
        <filter x="-39.8%" y="-42.1%" width="179.5%" height="184.2%" filterUnits="objectBoundingBox" id="filter-2">
            <feOffset dx="0" dy="0" in="SourceAlpha" result="shadowOffsetOuter1"></feOffset>
            <feGaussianBlur stdDeviation="5.5" in="shadowOffsetOuter1" result="shadowBlurOuter1"></feGaussianBlur>
            <feComposite in="shadowBlurOuter1" in2="SourceAlpha" operator="out" result="shadowBlurOuter1"></feComposite>
            <feColorMatrix values="0 0 0 0 1   0 0 0 0 0.435270676   0 0 0 0 0.435270676  0 0 0 1 0" type="matrix" in="shadowBlurOuter1"></feColorMatrix>
        </filter>
    </defs>
    <g id="Page-1" stroke="none" stroke-width="1" fill="none" fill-rule="evenodd">
        <g id="logout_warning_press">
            <g id="Fill-2">
                <use fill="black" fill-opacity="1" filter="url(#filter-2)" xlink:href="#path-1"></use>
                <use fill-opacity="0.672101449" fill="#FF4E4E" fill-rule="evenodd" xlink:href="#path-1"></use>
            </g>
        </g>
    </g>
</svg>