<?xml version="1.0" encoding="UTF-8"?>
<svg width="75px" height="75px" viewBox="0 0 75 75" version="1.1" xmlns="http://www.w3.org/2000/svg" xmlns:xlink="http://www.w3.org/1999/xlink">
    <!-- Generator: Sketch 46.1 (44463) - http://www.bohemiancoding.com/sketch -->
    <title>reboot_warning_press</title>
    <desc>Created with Sketch.</desc>
    <defs>
        <path d="M56.5515,21.0225 C55.73775,20.85075 54.94425,21.36975 54.77325,22.17975 L53.80125,26.77125 C50.2245,21.3645 44.1225,18 37.52025,18 C26.757,18 18,26.757 18,37.5195 C18,48.28275 26.757,57.03975 37.52025,57.03975 C45.1635,57.03975 52.14375,52.53675 55.30275,45.5685 C55.64475,44.81325 55.31025,43.9245 54.5565,43.5825 C53.79975,43.2375 52.91175,43.575 52.5705,44.32875 C49.89675,50.22825 43.989,54.03975 37.52025,54.03975 C28.41075,54.03975 21,46.629 21,37.5195 C21,28.41075 28.41075,21 37.52025,21 C43.122,21 48.2985,23.862 51.32325,28.45875 L46.6455,27.46875 C45.83175,27.29625 45.03825,27.81525 44.86725,28.626 C44.6955,29.43675 45.21375,30.2325 46.0245,30.40425 L54.20025,32.1345 C54.30525,32.15625 54.4095,32.16675 54.51225,32.16675 C55.206,32.16675 55.82925,31.683 55.9785,30.97725 L57.70875,22.80075 C57.87975,21.99 57.36225,21.195 56.5515,21.0225" id="path-1"></path>
        <filter x="-41.5%" y="-42.3%" width="183.0%" height="184.5%" filterUnits="objectBoundingBox" id="filter-2">
            <feOffset dx="0" dy="0" in="SourceAlpha" result="shadowOffsetOuter1"></feOffset>
            <feGaussianBlur stdDeviation="5.5" in="shadowOffsetOuter1" result="shadowBlurOuter1"></feGaussianBlur>
            <feComposite in="shadowBlurOuter1" in2="SourceAlpha" operator="out" result="shadowBlurOuter1"></feComposite>
            <feColorMatrix values="0 0 0 0 1   0 0 0 0 0.435270676   0 0 0 0 0.435270676  0 0 0 1 0" type="matrix" in="shadowBlurOuter1"></feColorMatrix>
        </filter>
    </defs>
    <g id="Page-1" stroke="none" stroke-width="1" fill="none" fill-rule="evenodd">
        <g id="reboot_warning_press">
            <g id="Fill-6">
                <use fill="black" fill-opacity="1" filter="url(#filter-2)" xlink:href="#path-1"></use>
                <use fill-opacity="0.672101449" fill="#FF4E4E" fill-rule="evenodd" xlink:href="#path-1"></use>
            </g>
        </g>
    </g>
</svg>