<?xml version="1.0" encoding="UTF-8" standalone="no"?>
<svg width="100px" height="100px" viewBox="0 0 100 100" version="1.1" xmlns="http://www.w3.org/2000/svg" xmlns:xlink="http://www.w3.org/1999/xlink" xmlns:sketch="http://www.bohemiancoding.com/sketch/ns">
    <!-- Generator: Sketch 3.3.3 (12072) - http://www.bohemiancoding.com/sketch -->
    <title>reboot_press</title>
    <desc>Created with Sketch.</desc>
    <defs>
        <linearGradient x1="50%" y1="0%" x2="50%" y2="100%" id="linearGradient-1">
            <stop stop-color="#5EB9F5" offset="0%"></stop>
            <stop stop-color="#2CA7F8" offset="100%"></stop>
        </linearGradient>
        <filter x="-50%" y="-50%" width="200%" height="200%" filterUnits="objectBoundingBox" id="filter-2">
            <feOffset dx="0" dy="12" in="SourceAlpha" result="shadowOffsetOuter1"></feOffset>
            <feGaussianBlur stdDeviation="10" in="shadowOffsetOuter1" result="shadowBlurOuter1"></feGaussianBlur>
            <feColorMatrix values="0 0 0 0 0   0 0 0 0 0   0 0 0 0 0  0 0 0 0.21 0" in="shadowBlurOuter1" type="matrix" result="shadowMatrixOuter1"></feColorMatrix>
            <feMerge>
                <feMergeNode in="shadowMatrixOuter1"></feMergeNode>
                <feMergeNode in="SourceGraphic"></feMergeNode>
            </feMerge>
        </filter>
    </defs>
    <g id="Page-1" stroke="none" stroke-width="1" fill="none" fill-rule="evenodd" sketch:type="MSPage">
        <g id="reboot_press" sketch:type="MSArtboardGroup" filter="url(#filter-2)" fill="url(#linearGradient-1)">
            <path d="M75.402,28.03 C74.317,27.801 73.259,28.493 73.031,29.573 L71.735,35.695 C66.966,28.486 58.83,24 50.027,24 C35.676,24 24,35.676 24,50.026 C24,64.377 35.676,76.053 50.027,76.053 C60.218,76.053 69.525,70.049 73.737,60.758 C74.193,59.751 73.747,58.566 72.742,58.11 C71.733,57.65 70.549,58.1 70.094,59.105 C66.529,66.971 58.652,72.053 50.027,72.053 C37.881,72.053 28,62.172 28,50.026 C28,37.881 37.881,28 50.027,28 C57.496,28 64.398,31.816 68.431,37.945 L62.194,36.625 C61.109,36.395 60.051,37.087 59.823,38.168 C59.594,39.249 60.285,40.31 61.366,40.539 L72.267,42.846 C72.407,42.875 72.546,42.889 72.683,42.889 C73.608,42.889 74.439,42.244 74.638,41.303 L76.945,30.401 C77.173,29.32 76.483,28.26 75.402,28.03" id="Fill-6" sketch:type="MSShapeGroup"></path>
        </g>
    </g>
</svg>