<?xml version="1.0" encoding="UTF-8"?>
<svg width="75px" height="75px" viewBox="0 0 75 75" version="1.1" xmlns="http://www.w3.org/2000/svg" xmlns:xlink="http://www.w3.org/1999/xlink">
    <!-- Generator: Sketch 46.1 (44463) - http://www.bohemiancoding.com/sketch -->
    <title>sleep_normal</title>
    <desc>Created with Sketch.</desc>
    <defs></defs>
    <g id="Page-1" stroke="none" stroke-width="1" fill="none" fill-rule="evenodd">
        <g id="sleep_normal" fill="#FFFFFF">
            <g id="Group" transform="translate(19.000000, 18.000000)">
                <path d="M15.66175,19.39125 C15.66175,10.1985 9.0055,2.565 0.25,1.035 C1.29025,0.85425 2.35675,0.75 3.44875,0.75 C13.744,0.75 22.09,9.096 22.09,19.39125 C22.09,29.68725 13.744,38.03325 3.44875,38.03325 C2.35675,38.03325 1.29025,37.929 0.25,37.74825 C9.0055,36.21825 15.66175,28.58475 15.66175,19.39125" id="Fill-7" transform="translate(11.170000, 19.391625) scale(-1, 1) translate(-11.170000, -19.391625) "></path>
                <path d="M19.47,30 L19.47,29.3 L23.16,23.61 L19.81,23.61 L19.81,22.64 L24.59,22.64 L24.59,23.33 L20.91,29.02 L24.63,29.02 L24.63,30 L19.47,30 Z M26.774,26 L26.774,24.398 L32.984,14.894 L27.368,14.894 L27.368,12.68 L36.242,12.68 L36.242,14.264 L30.05,23.768 L36.314,23.768 L36.314,26 L26.774,26 Z M20.658,18 L20.658,17.02 L25.824,9.054 L21.134,9.054 L21.134,7.696 L27.826,7.696 L27.826,8.662 L22.674,16.628 L27.882,16.628 L27.882,18 L20.658,18 Z" id="Combined-Shape"></path>
            </g>
        </g>
    </g>
</svg>