<?xml version="1.0" encoding="UTF-8"?>
<svg width="75px" height="75px" viewBox="0 0 75 75" version="1.1" xmlns="http://www.w3.org/2000/svg" xmlns:xlink="http://www.w3.org/1999/xlink">
    <!-- Generator: Sketch 46.1 (44463) - http://www.bohemiancoding.com/sketch -->
    <title>sleep_press</title>
    <desc>Created with Sketch.</desc>
    <defs>
        <linearGradient x1="50%" y1="0%" x2="50%" y2="100%" id="linearGradient-1">
            <stop stop-color="#009AFF" offset="0%"></stop>
            <stop stop-color="#2CA7F8" offset="98.0707908%"></stop>
        </linearGradient>
    </defs>
    <g id="Page-1" stroke="none" stroke-width="1" fill="none" fill-rule="evenodd">
        <g id="sleep_press" fill="url(#linearGradient-1)">
            <g id="Group" transform="translate(19.000000, 18.000000)">
                <path d="M6.67825,19.39125 C6.67825,28.58475 13.3345,36.21825 22.09,37.74825 C21.04975,37.929 19.98325,38.03325 18.89125,38.03325 C8.596,38.03325 0.25,29.68725 0.25,19.39125 C0.25,9.096 8.596,0.75 18.89125,0.75 C19.98325,0.75 21.04975,0.85425 22.09,1.035 C13.3345,2.565 6.67825,10.1985 6.67825,19.39125 Z M19.47,30 L19.47,29.3 L23.16,23.61 L19.81,23.61 L19.81,22.64 L24.59,22.64 L24.59,23.33 L20.91,29.02 L24.63,29.02 L24.63,30 L19.47,30 Z M26.774,26 L26.774,24.398 L32.984,14.894 L27.368,14.894 L27.368,12.68 L36.242,12.68 L36.242,14.264 L30.05,23.768 L36.314,23.768 L36.314,26 L26.774,26 Z M20.658,18 L20.658,17.02 L25.824,9.054 L21.134,9.054 L21.134,7.696 L27.826,7.696 L27.826,8.662 L22.674,16.628 L27.882,16.628 L27.882,18 L20.658,18 Z" id="Combined-Shape"></path>
            </g>
        </g>
    </g>
</svg>