<?xml version="1.0" encoding="UTF-8"?>
<svg width="75px" height="75px" viewBox="0 0 75 75" version="1.1" xmlns="http://www.w3.org/2000/svg" xmlns:xlink="http://www.w3.org/1999/xlink">
    <!-- Generator: Sketch 46.1 (44463) - http://www.bohemiancoding.com/sketch -->
    <title>userswitch_press</title>
    <desc>Created with Sketch.</desc>
    <defs>
        <linearGradient x1="50%" y1="0%" x2="50%" y2="100%" id="linearGradient-1">
            <stop stop-color="#009AFF" offset="0%"></stop>
            <stop stop-color="#2CA7F8" offset="98.0707908%"></stop>
        </linearGradient>
    </defs>
    <g id="Page-1" stroke="none" stroke-width="1" fill="none" fill-rule="evenodd">
        <g id="userswitch_press" fill="url(#linearGradient-1)">
            <path d="M47.89425,39.31875 C50.952,37.4535 53.02725,33.8865 53.02725,29.79525 C53.02725,23.7825 48.5505,18.89175 43.04775,18.89175 C37.54575,18.89175 33.06825,23.7825 33.06825,29.79525 C33.06825,33.84 35.09925,37.3695 38.10075,39.252 C30.75075,41.28 25.49925,47.904 25.49925,55.9845 C25.49925,56.8125 26.1705,57.4845 26.99925,57.4845 L58.75425,57.4845 C59.58225,57.4845 60.25425,56.8125 60.25425,55.9845 C60.25425,47.9925 55.1175,41.424 47.89425,39.31875 L47.89425,39.31875 Z M43.04775,21.89175 C46.896,21.89175 50.02725,25.437 50.02725,29.79525 C50.02725,34.1535 46.896,37.69875 43.04775,37.69875 C39.1995,37.69875 36.06825,34.1535 36.06825,29.79525 C36.06825,25.437 39.1995,21.89175 43.04775,21.89175 L43.04775,21.89175 Z M28.5735,54.4845 C29.301,47.15325 35.322,41.607 42.87675,41.607 C50.4315,41.607 56.45175,47.15325 57.18,54.4845 L28.5735,54.4845 Z M28.2,38.88375 C22.872,39.9465 18.7455,44.583 18.09075,49.9845 L20.34225,49.9845 C21.171,49.9845 21.84225,50.65575 21.84225,51.4845 C21.84225,52.3125 21.171,52.9845 20.34225,52.9845 L16.5,52.9845 C15.672,52.9845 15,52.3125 15,51.4845 C15,44.7795 19.19025,38.8815 25.248,36.62475 C23.12775,34.668 21.84,31.6935 21.84,28.47375 C21.84,22.69875 25.95,18 31.0035,18 C31.64325,18 32.2815,18.07575 32.898,18.22425 C33.7035,18.4185 34.2,19.2285 34.00575,20.03325 C33.8115,20.84025 33.003,21.336 32.196,21.141 C31.80825,21.048 31.407,21 31.0035,21 C27.60525,21 24.84,24.3525 24.84,28.47375 C24.84,31.52325 26.34975,34.242 28.686,35.39925 C29.40075,35.7525 29.70225,36.59775 29.39625,37.323 C29.442,38.06025 28.944,38.736 28.2,38.88375 Z" id="Fill-8"></path>
        </g>
    </g>
</svg>