<?xml version="1.0" encoding="UTF-8"?>
<svg width="21px" height="15px" viewBox="0 0 21 15" version="1.1" xmlns="http://www.w3.org/2000/svg" xmlns:xlink="http://www.w3.org/1999/xlink">
    <!-- Generator: Sketch 46.2 (44496) - http://www.bohemiancoding.com/sketch -->
    <title>keyboard_normal</title>
    <desc>Created with Sketch.</desc>
    <defs></defs>
    <g id="Page-1" stroke="none" stroke-width="1" fill="none" fill-rule="evenodd" stroke-linecap="round" opacity="0.7" stroke-linejoin="round">
        <g id="Artboard" transform="translate(-45.000000, -64.000000)" stroke="#FFFFFF">
            <path d="M65,77.0714286 C65,77.6936875 64.7165833,78 64.05,78 L46.95,78 C46.2834167,78 46,77.6936875 46,77.0714286 L46,65.9285714 C46,65.3063125 46.2834167,65 46.95,65 L64.05,65 C64.7165833,65 65,65.3063125 65,65.9285714 L65,77.0714286 L65,77.0714286 Z M46,74 L65,74 L46,74 Z M50,74 L50,78 L50,74 Z M61,74 L61,78 L61,74 Z M46,70 L65,70 L46,70 Z M50,65 L50,70 L50,65 Z M55,65 L55,70 L55,65 Z M60,65 L60,70 L60,65 Z M50,70 L50,74 L50,70 Z M54,70 L54,74 L54,70 Z M58,70 L58,74 L58,70 Z" id="keyboard_normal"></path>
        </g>
    </g>
</svg>