<?xml version="1.0" encoding="UTF-8"?>
<svg width="21px" height="15px" viewBox="0 0 21 15" version="1.1" xmlns="http://www.w3.org/2000/svg" xmlns:xlink="http://www.w3.org/1999/xlink">
    <!-- Generator: Sketch 46.2 (44496) - http://www.bohemiancoding.com/sketch -->
    <title>keyboard_hover</title>
    <desc>Created with Sketch.</desc>
    <defs></defs>
    <g id="Page-1" stroke="none" stroke-width="1" fill="none" fill-rule="evenodd" stroke-linecap="round" stroke-linejoin="round">
        <g id="Artboard" transform="translate(-45.000000, -26.000000)" stroke="#FFFFFF">
            <path d="M65,39.0714286 C65,39.6936875 64.7165833,40 64.05,40 L46.95,40 C46.2834167,40 46,39.6936875 46,39.0714286 L46,27.9285714 C46,27.3063125 46.2834167,27 46.95,27 L64.05,27 C64.7165833,27 65,27.3063125 65,27.9285714 L65,39.0714286 L65,39.0714286 Z M46,36 L65,36 L46,36 Z M50,36 L50,40 L50,36 Z M61,36 L61,40 L61,36 Z M46,32 L65,32 L46,32 Z M50,27 L50,32 L50,27 Z M55,27 L55,32 L55,27 Z M60,27 L60,32 L60,27 Z M50,32 L50,36 L50,32 Z M54,32 L54,36 L54,32 Z M58,32 L58,36 L58,32 Z" id="keyboard_hover"></path>
        </g>
    </g>
</svg>