<?xml version="1.0" encoding="UTF-8"?>
<svg width="21px" height="15px" viewBox="0 0 21 15" version="1.1" xmlns="http://www.w3.org/2000/svg" xmlns:xlink="http://www.w3.org/1999/xlink">
    <!-- Generator: Sketch 46.2 (44496) - http://www.bohemiancoding.com/sketch -->
    <title>keyboard_press</title>
    <desc>Created with Sketch.</desc>
    <defs></defs>
    <g id="Page-1" stroke="none" stroke-width="1" fill="none" fill-rule="evenodd" stroke-linecap="round" stroke-linejoin="round">
        <g id="Artboard" transform="translate(-45.000000, -46.000000)" stroke="#2CA7F8">
            <path d="M65,59.0714286 C65,59.6936875 64.7165833,60 64.05,60 L46.95,60 C46.2834167,60 46,59.6936875 46,59.0714286 L46,47.9285714 C46,47.3063125 46.2834167,47 46.95,47 L64.05,47 C64.7165833,47 65,47.3063125 65,47.9285714 L65,59.0714286 L65,59.0714286 Z M46,56 L65,56 L46,56 Z M50,56 L50,60 L50,56 Z M61,56 L61,60 L61,56 Z M46,52 L65,52 L46,52 Z M50,47 L50,52 L50,47 Z M55,47 L55,52 L55,47 Z M60,47 L60,52 L60,47 Z M50,52 L50,56 L50,52 Z M54,52 L54,56 L54,52 Z M58,52 L58,56 L58,52 Z" id="keyboard_press"></path>
        </g>
    </g>
</svg>