<svg xmlns="http://www.w3.org/2000/svg" width="40" height="40" viewBox="0 0 40 40">
  <path fill="#FFF" fill-rule="evenodd" d="M96,54 C87.7157288,54 81,47.2842712 81,39 C81,30.7157288 87.7157288,24 96,24 C104.284271,24 111,30.7157288 111,39 C111,47.2842712 104.284271,54 96,54 Z M87,34 L87,44 L105,44 L105,34 L87,34 Z M102,35 L104,35 L104,37 L102,37 L102,35 Z M99,35 L101,35 L101,37 L99,37 L99,35 Z M96,35 L98,35 L98,37 L96,37 L96,35 Z M99,38 L99,40 L97,40 L97,38 L99,38 Z M93,35 L95,35 L95,37 L93,37 L93,35 Z M96,38 L96,40 L94,40 L94,38 L96,38 Z M88,35 L92,35 L92,37 L88,37 L88,35 Z M88,38 L93,38 L93,40 L88,40 L88,38 Z M101,43 L92,43 L92,41 L101,41 L101,43 Z M91,43 L88,43 L88,41 L91,41 L91,43 Z M104,40 L100,40 L100,38 L104,38 L104,40 Z M104,43 L102,43 L102,41 L104,41 L104,43 Z" opacity=".7" transform="translate(-76 -19)"/>
</svg>
