<svg xmlns="http://www.w3.org/2000/svg" width="40" height="40" viewBox="0 0 40 40">
  <path fill="#FFF" fill-rule="evenodd" d="M96,100 C87.7157288,100 81,93.2842712 81,85 C81,76.7157288 87.7157288,70 96,70 C104.284271,70 111,76.7157288 111,85 C111,93.2842712 104.284271,100 96,100 Z M87,80 L87,90 L105,90 L105,80 L87,80 Z M102,81 L104,81 L104,83 L102,83 L102,81 Z M99,81 L101,81 L101,83 L99,83 L99,81 Z M96,81 L98,81 L98,83 L96,83 L96,81 Z M99,84 L99,86 L97,86 L97,84 L99,84 Z M93,81 L95,81 L95,83 L93,83 L93,81 Z M96,84 L96,86 L94,86 L94,84 L96,84 Z M88,81 L92,81 L92,83 L88,83 L88,81 Z M88,84 L93,84 L93,86 L88,86 L88,84 Z M101,89 L92,89 L92,87 L101,87 L101,89 Z M91,89 L88,89 L88,87 L91,87 L91,89 Z M104,86 L100,86 L100,84 L104,84 L104,86 Z M104,89 L102,89 L102,87 L104,87 L104,89 Z" transform="translate(-76 -65)"/>
</svg>
