<svg xmlns="http://www.w3.org/2000/svg" width="40" height="40" viewBox="0 0 40 40">
  <path fill="#FFF" fill-rule="evenodd" d="M96,146 C87.7157288,146 81,139.284271 81,131 C81,122.715729 87.7157288,116 96,116 C104.284271,116 111,122.715729 111,131 C111,139.284271 104.284271,146 96,146 Z M87,126 L87,136 L105,136 L105,126 L87,126 Z M102,127 L104,127 L104,129 L102,129 L102,127 Z M99,127 L101,127 L101,129 L99,129 L99,127 Z M96,127 L98,127 L98,129 L96,129 L96,127 Z M99,130 L99,132 L97,132 L97,130 L99,130 Z M93,127 L95,127 L95,129 L93,129 L93,127 Z M96,130 L96,132 L94,132 L94,130 L96,130 Z M88,127 L92,127 L92,129 L88,129 L88,127 Z M88,130 L93,130 L93,132 L88,132 L88,130 Z M101,135 L92,135 L92,133 L101,133 L101,135 Z M91,135 L88,135 L88,133 L91,133 L91,135 Z M104,132 L100,132 L100,130 L104,130 L104,132 Z M104,135 L102,135 L102,133 L104,133 L104,135 Z" opacity=".4" transform="translate(-76 -111)"/>
</svg>
