<?xml version="1.0" encoding="UTF-8"?>
<svg width="75px" height="75px" viewBox="0 0 75 75" version="1.1" xmlns="http://www.w3.org/2000/svg" xmlns:xlink="http://www.w3.org/1999/xlink">
    <!-- Generator: Sketch 46.1 (44463) - http://www.bohemiancoding.com/sketch -->
    <title>poweroff_press</title>
    <desc>Created with Sketch.</desc>
    <defs>
        <linearGradient x1="50%" y1="0%" x2="50%" y2="100%" id="linearGradient-1">
            <stop stop-color="#009AFF" offset="0%"></stop>
            <stop stop-color="#2CA7F8" offset="98.0707908%"></stop>
        </linearGradient>
    </defs>
    <g id="Page-1" stroke="none" stroke-width="1" fill="none" fill-rule="evenodd">
        <g id="poweroff_press" fill="url(#linearGradient-1)">
            <path d="M45.56925,20.79525 C52.5375,23.955 57.0405,30.9345 57.0405,38.5785 C57.0405,49.34175 48.2835,58.09875 37.52025,58.09875 C26.757,58.09875 18,49.34175 18,38.5785 C18,30.9345 22.503,23.955 29.47125,20.79525 C30.228,20.4525 31.116,20.7885 31.45725,21.54225 C31.79925,22.29675 31.46475,23.1855 30.711,23.5275 C24.8115,26.20125 21,32.109 21,38.5785 C21,47.68725 28.41075,55.09875 37.52025,55.09875 C46.629,55.09875 54.0405,47.68725 54.0405,38.5785 C54.0405,32.109 50.229,26.20125 44.33025,23.5275 C43.57575,23.1855 43.242,22.29675 43.584,21.54225 C43.92525,20.7885 44.81325,20.4525 45.56925,20.79525 Z M37.446,39.75 C36.618,39.75 35.946,39.078 35.946,38.25 L35.946,18 C35.946,17.172 36.618,16.5 37.446,16.5 C38.274,16.5 38.946,17.172 38.946,18 L38.946,38.25 C38.946,39.078 38.274,39.75 37.446,39.75 Z" id="Fill-4"></path>
        </g>
    </g>
</svg>