<?xml version="1.0" encoding="UTF-8"?>
<svg width="40px" height="40px" viewBox="0 0 40 40" version="1.1" xmlns="http://www.w3.org/2000/svg" xmlns:xlink="http://www.w3.org/1999/xlink">
    <!-- Generator: Sketch 46.1 (44463) - http://www.bohemiancoding.com/sketch -->
    <title>shutdown_press</title>
    <desc>Created with Sketch.</desc>
    <defs></defs>
    <g id="Page-1" stroke="none" stroke-width="1" fill="none" fill-rule="evenodd" opacity="0.4">
        <g id="shutdown_press" fill="#FFFFFF">
            <path d="M25.5075448,7.26270695 C30.6909176,9.66287884 34.0405,14.964564 34.0405,20.7710088 C34.0405,28.9468613 27.5265553,35.59875 19.52025,35.59875 C11.5139447,35.59875 5,28.9468613 5,20.7710088 C5,14.964564 8.3495824,9.66287884 13.5329552,7.26270695 C14.095868,7.00235126 14.7564119,7.2575796 15.0102527,7.83013425 C15.2646513,8.40325861 15.0158316,9.07836036 14.4551503,9.33814635 C10.0667734,11.3691487 7.23156722,15.8567238 7.23156722,20.7710088 C7.23156722,27.6900896 12.7440961,33.3199255 19.52025,33.3199255 C26.295846,33.3199255 31.8089328,27.6900896 31.8089328,20.7710088 C31.8089328,15.8567238 28.9737266,11.3691487 24.5859076,9.33814635 C24.0246684,9.07836036 23.7764066,8.40325861 24.0308052,7.83013425 C24.284646,7.2575796 24.9451899,7.00235126 25.5075448,7.26270695 Z M19.4650187,21.6608898 C18.8491062,21.6608898 18.3492351,21.1504331 18.3492351,20.5214775 L18.3492351,5.13941224 C18.3492351,4.51045668 18.8491062,4 19.4650187,4 C20.0809313,4 20.5808023,4.51045668 20.5808023,5.13941224 L20.5808023,20.5214775 C20.5808023,21.1504331 20.0809313,21.6608898 19.4650187,21.6608898 Z" id="Fill-4"></path>
        </g>
    </g>
</svg>