<?xml version="1.0" encoding="UTF-8"?>
<svg width="40px" height="40px" viewBox="0 0 40 40" version="1.1" xmlns="http://www.w3.org/2000/svg" xmlns:xlink="http://www.w3.org/1999/xlink">
    <!-- Generator: Sketch 46.1 (44463) - http://www.bohemiancoding.com/sketch -->
    <title>userswitch_normal</title>
    <desc>Created with Sketch.</desc>
    <defs></defs>
    <g id="Page-1" stroke="none" stroke-width="1" fill="none" fill-rule="evenodd" opacity="0.4">
        <g id="userswitch_normal" fill="#FFFFFF">
            <path d="M27.5061645,20.7342283 C27.8252584,20.8341907 28.1401015,20.9481584 28.4494918,21.0760764 C29.7217698,21.6021036 30.8960418,22.3599083 31.8977358,23.3045203 C32.9690716,24.3148022 33.8378386,25.534787 34.4421739,26.8776259 C34.8917512,27.8765896 35.1940897,28.9400721 35.3431513,30.0251637 C35.4171458,30.563769 35.4504758,31.1055886 35.453819,31.6490405 L35.4506408,31.7389512 C35.4362779,31.8597633 35.4131387,31.974448 35.3644795,32.086759 C35.2443871,32.3639571 35.0085514,32.5823331 34.7229525,32.6807932 C34.6072365,32.7206858 34.491116,32.7349524 34.3695583,32.7399998 L13.6267286,32.7399998 C13.5051709,32.7349524 13.3890464,32.7206854 13.2733304,32.680792 C12.9584559,32.5722379 12.7061005,32.3183201 12.599491,32.0027816 C12.5603114,31.8868221 12.5467618,31.7706127 12.5424639,31.6490244 C12.5433753,31.5014321 12.5434107,31.5017307 12.5461411,31.3543729 C12.5629082,30.8119997 12.609222,30.2721075 12.6964873,29.7363194 C12.8718899,28.6593996 13.1996345,27.6078874 13.6719856,26.6241391 C14.1501354,25.6283143 14.7752685,24.7040759 15.5216371,23.8896881 C16.3250289,23.0130796 17.2673034,22.2654813 18.3028892,21.6812485 C18.7876546,21.4077692 19.2924086,21.1703385 19.8117061,20.970673 C19.5305425,20.7328847 19.27,20.4708612 19.0321607,20.189784 C18.8217899,19.9411726 18.629133,19.6776561 18.4549915,19.4024758 C16.8563557,16.8762506 16.8563557,13.4352272 18.4549915,10.909002 C18.629133,10.6338217 18.8217899,10.3703052 19.0321607,10.1216938 C19.3259782,9.77446351 19.6544652,9.45630072 20.0135755,9.17696788 C20.454612,8.83390583 20.9418917,8.54992156 21.4609182,8.34236362 C22.0908363,8.09046788 22.7649861,7.95362806 23.4434692,7.94348058 C24.1777221,7.93250023 24.9108161,8.06976041 25.5925088,8.34236362 C26.1115392,8.54992156 26.5988268,8.83390976 27.0398594,9.1769718 C27.3989657,9.45630465 27.7274528,9.77446351 28.0212702,10.1216938 C28.231641,10.3703052 28.4243019,10.6338217 28.5984395,10.909002 C30.1824138,13.4120566 30.1970634,16.8129614 28.6419562,19.332842 C28.4707139,19.6103166 28.2808542,19.8763591 28.0731548,20.1277323 C27.8967701,20.3412067 27.7074878,20.5441132 27.5061645,20.7342283 L27.5061645,20.7342283 Z M14.7705031,30.5714312 L33.2257837,30.5714312 C33.2127252,30.4480118 33.1954159,30.3251581 33.1777649,30.2023342 C33.117261,29.8156918 33.0379983,29.4330483 32.9321745,29.0561337 C32.6972109,28.2192313 32.3437185,27.4161931 31.8829801,26.6789858 C31.2754824,25.7069446 30.4833341,24.8531611 29.5604786,24.1733777 C28.7178168,23.5526682 27.7691545,23.0789341 26.7676962,22.7752992 C24.7577946,22.1659157 22.5454421,22.2413403 20.5849226,22.9964893 C19.716898,23.3308338 18.9002748,23.7967736 18.1718283,24.3753296 C17.4195196,24.972837 16.7628441,25.6893446 16.2338155,26.4913261 C15.7565929,27.2147755 15.3842787,28.0062912 15.1293109,28.834543 C15.0030978,29.2445399 14.9084665,29.6621528 14.836892,30.084953 C14.8115841,30.2466728 14.7877259,30.4086134 14.7705031,30.5714312 L14.7705031,30.5714312 Z M23.5267155,20.1999865 C23.793198,20.1979908 24.057728,20.1685423 24.3169505,20.1058581 C24.4770789,20.0671381 24.6343315,20.0166875 24.7872902,19.9555197 C25.7997957,19.550622 26.5795375,18.6996199 27.0503487,17.7319669 C27.4391982,16.9327787 27.6281229,16.0429859 27.6281229,15.1557389 C27.6281229,14.2290962 27.421885,13.2992989 26.9973445,12.4735457 C26.5081044,11.5219526 25.7126837,10.6945927 24.6946939,10.3204282 C24.5402266,10.2636525 24.3817365,10.217814 24.2207085,10.183824 C24.009273,10.1391916 23.7935869,10.1150977 23.5775158,10.1118684 C23.3440293,10.1083799 23.1102717,10.1291109 22.8810988,10.173983 C22.7034373,10.2087665 22.5286514,10.2579718 22.3587409,10.3204242 C21.3217487,10.7015776 20.5166794,11.5520887 20.0293329,12.5262984 C19.6228049,13.3389459 19.425308,14.2487587 19.425308,15.1557389 C19.425308,16.0627191 19.6228088,16.9725279 20.0293329,17.7851794 C20.4947973,18.7156485 21.2480292,19.5321303 22.2201215,19.9367412 C22.3723259,20.0000932 22.5289579,20.0528421 22.6886305,20.0939192 C22.9299898,20.1560141 23.1764484,20.1891555 23.4253192,20.1984701 C23.476363,20.1996172 23.4759663,20.1996055 23.5267155,20.1999865 L23.5267155,20.1999865 Z M13.1543852,18.3925396 C13.2379144,18.3730461 13.3217068,18.3545582 13.4057506,18.3370604 L13.4678455,18.3260094 C13.5309148,18.3185333 13.592884,18.3129665 13.656511,18.3147147 C13.8037458,18.3187612 13.9497903,18.3531243 14.0833772,18.4151525 C14.4114007,18.5674669 14.6463133,18.8819526 14.6993096,19.2397074 C14.7147175,19.343728 14.7148903,19.4499329 14.6998164,19.5540006 C14.6847464,19.6580722 14.6544493,19.7598614 14.6101626,19.8552391 C14.5481305,19.9888261 14.4587321,20.1093152 14.3488658,20.2074115 C14.2210931,20.3214892 14.0721101,20.3963677 13.909055,20.4454708 C13.7685694,20.4790051 13.6269957,20.5073929 13.4866595,20.5417561 C12.8484639,20.7059034 12.2326768,20.9424698 11.6524865,21.255608 C9.96501803,22.1663557 8.62736873,23.6696687 7.87156562,25.42771 C7.55785743,26.1574137 7.34952753,26.9256998 7.24145581,27.7121595 L7.23757439,27.7428651 L8.62477981,27.7428651 L8.68782544,27.7446958 C8.85746486,27.759538 9.01858321,27.802485 9.16692195,27.8881317 C9.29447856,27.9617727 9.40655663,28.0615151 9.49450937,28.1796588 C9.71047837,28.469752 9.76736794,28.8581458 9.6436731,29.1979943 C9.60771101,29.2968095 9.55730357,29.3902897 9.49450937,29.4746361 C9.43171517,29.5589863 9.3566167,29.634082 9.27227038,29.696877 C9.15412661,29.7848317 9.01815107,29.8482376 8.87483305,29.8822048 C8.81289527,29.8968842 8.75109107,29.9040621 8.68782544,29.9095975 C7.8202118,29.9348424 6.95186312,29.9114317 6.08388138,29.9114317 C5.97749895,29.9083254 5.87414819,29.896304 5.7718444,29.8655622 C5.46621334,29.7737221 5.21173064,29.5460849 5.08652762,29.2525385 C5.03613394,29.1343869 5.01159376,29.0118942 5.00111195,28.8844436 C4.9987992,28.7867795 5.00056156,28.6892803 5.00217699,28.5916122 C5.01183301,28.2411605 5.03484262,27.891746 5.07693485,27.5436122 C5.16878394,26.783965 5.34232796,26.0344417 5.5925356,25.3113537 C5.98571633,24.1750788 6.56804849,23.1052163 7.30834476,22.1577914 C8.24385424,20.9605334 9.43166017,19.9613615 10.7820616,19.2629174 C10.5189459,18.9903692 10.2804426,18.6937585 10.0683708,18.3800664 C9.53082897,17.5849403 9.16128053,16.680934 8.95859008,15.744081 C8.52244851,13.7281844 8.8376531,11.5170144 9.94137199,9.76044639 C10.6124772,8.69237923 11.5860545,7.79916077 12.7703561,7.33850102 C13.0055044,7.24703221 13.2474648,7.17306124 13.4937191,7.11805738 C13.7938969,7.05100461 14.1003094,7.01220216 14.4077314,7.00246718 C14.7937288,6.99024148 15.1810815,7.02346144 15.5592335,7.10193062 C15.6758569,7.12613059 15.7952107,7.1503502 15.9064913,7.19376085 C16.0360947,7.24431757 16.1556095,7.31996604 16.2567701,7.41546163 C16.3579267,7.51095722 16.4403205,7.62592671 16.4982473,7.7524069 C16.6445589,8.07185434 16.6250457,8.45136562 16.4467477,8.75412843 C16.387937,8.85399259 16.3130546,8.94425925 16.2257698,9.02050487 C16.1384849,9.09675048 16.0389782,9.15882183 15.9321134,9.20368213 C15.8038457,9.25752313 15.6653637,9.2863313 15.526261,9.28810309 C15.4559908,9.2889988 15.3880737,9.28105524 15.3187542,9.27075454 C15.2240757,9.25040849 15.1304266,9.22681745 15.0351235,9.20937069 C14.8075141,9.17138538 14.5770998,9.15894754 14.346878,9.17719573 C14.1763625,9.19070607 14.0072063,9.22039425 13.8421711,9.26532919 C12.927703,9.514306 12.1983529,10.2081929 11.7212521,11.0061005 C11.6459651,11.132011 11.5763038,11.2612765 11.5122013,11.3932292 C11.4376372,11.5467144 11.3705765,11.7038335 11.3108977,11.8636947 C11.0483752,12.5669316 10.9290293,13.3206663 10.9403592,14.0703664 C10.9496857,14.6873045 11.0484302,15.3038851 11.2431653,15.8897561 C11.48071,16.6044134 11.8632973,17.2814704 12.3993502,17.8148636 C12.5674339,17.9821105 12.7505365,18.1345625 12.9476287,18.2665269 C13.0149329,18.3115915 13.0843939,18.3524565 13.1543852,18.3925396 L13.1543852,18.3925396 Z" id="Page-1"></path>
        </g>
    </g>
</svg>