<?xml version="1.0" encoding="iso-8859-1"?>
<!-- Generator: Adobe Illustrator 18.0.0, SVG Export Plug-In . SVG Version: 6.00 Build 0)  -->
<!DOCTYPE svg PUBLIC "-//W3C//DTD SVG 1.1//EN" "http://www.w3.org/Graphics/SVG/1.1/DTD/svg11.dtd">
<svg version="1.1" id="&#x56FE;&#x5C42;_1" xmlns="http://www.w3.org/2000/svg" xmlns:xlink="http://www.w3.org/1999/xlink" x="0px"
	 y="0px" viewBox="0 0 56 56" style="enable-background:new 0 0 56 56;" xml:space="preserve">
<path style="fill:none;stroke:#FFFFFF;stroke-width:2;stroke-linecap:round;stroke-miterlimit:10;" d="M50.796,50.718"/>
<path style="fill:none;stroke:#FFFFFF;stroke-width:2;stroke-linecap:round;stroke-miterlimit:10;" d="M5.296,5.218"/>
<path style="fill:#FFFFFF;" d="M31.926,24.065c0.505,0.214,0.96,0.521,1.351,0.911c0.392,0.392,0.698,0.847,0.912,1.352
	c0.221,0.523,0.333,1.08,0.333,1.654s-0.112,1.131-0.333,1.654c-0.044,0.103-0.108,0.195-0.159,0.294l1.469,1.469
	c0.204-0.312,0.386-0.637,0.533-0.984c0.326-0.771,0.491-1.589,0.491-2.433c0-0.843-0.165-1.662-0.491-2.433
	c-0.314-0.743-0.765-1.411-1.34-1.987c-0.574-0.574-1.243-1.024-1.985-1.338c-0.507-0.214-1.096,0.021-1.311,0.531
	C31.18,23.263,31.417,23.85,31.926,24.065z"/>
<g>
	<path style="fill:#FFFFFF;" d="M28,23.9V8.731c0-0.405-0.244-0.77-0.618-0.924c-0.372-0.154-0.804-0.068-1.09,0.218L19.22,15.12
		L28,23.9z"/>
	<path style="fill:#FFFFFF;" d="M13.969,18H6c-0.553,0-1,0.448-1,1v18c0,0.552,0.447,1,1,1h10.351l9.942,9.938
		c0.191,0.191,0.447,0.293,0.707,0.293c0.129,0,0.259-0.025,0.383-0.076C27.757,48,28,47.636,28,47.231v-15.2L13.969,18z"/>
</g>
<path style="fill:#FFFFFF;" d="M49.918,50.759c-0.224,0-0.448-0.085-0.619-0.256L5.549,6.752c-0.342-0.342-0.342-0.896,0-1.237
	s0.896-0.342,1.237,0l43.75,43.75c0.342,0.342,0.342,0.896,0,1.237C50.365,50.673,50.142,50.759,49.918,50.759z"/>
<g>
	<path style="fill:#FFFFFF;" d="M34.905,17.692c1.34,0.568,2.544,1.38,3.578,2.415c1.035,1.035,1.848,2.238,2.414,3.578
		c0.587,1.384,0.885,2.854,0.885,4.372s-0.298,2.989-0.885,4.374c-0.417,0.985-0.97,1.896-1.645,2.722l1.418,1.418
		c0.854-1.013,1.551-2.138,2.068-3.361c0.692-1.632,1.043-3.366,1.043-5.154c0-1.787-0.351-3.521-1.043-5.152
		c-0.667-1.577-1.624-2.994-2.842-4.212c-1.217-1.217-2.634-2.173-4.211-2.842c-0.507-0.213-1.095,0.021-1.312,0.531
		C34.159,16.889,34.397,17.476,34.905,17.692z"/>
	<path style="fill:#FFFFFF;" d="M34.6,38.631c-0.285,0.279-0.39,0.712-0.225,1.102c0.162,0.381,0.532,0.61,0.921,0.61
		c0.131,0,0.263-0.026,0.391-0.08c0.126-0.053,0.244-0.12,0.368-0.177L34.6,38.631z"/>
</g>
<g>
	<path style="fill:#FFFFFF;" d="M37.628,11.243c2.174,0.921,4.126,2.239,5.803,3.916c1.678,1.678,2.996,3.63,3.916,5.803
		c0.952,2.248,1.436,4.635,1.436,7.095s-0.483,4.848-1.436,7.096c-0.771,1.82-1.836,3.474-3.142,4.952l1.414,1.414
		c1.487-1.663,2.698-3.529,3.57-5.586c1.058-2.496,1.594-5.146,1.594-7.876c0-2.73-0.536-5.38-1.594-7.875
		c-1.021-2.411-2.482-4.576-4.344-6.437c-1.858-1.86-4.024-3.321-6.436-4.344c-0.508-0.213-1.095,0.021-1.312,0.531
		C36.882,10.44,37.12,11.027,37.628,11.243z"/>
	<path style="fill:#FFFFFF;" d="M39.751,43.782c-0.684,0.402-1.385,0.776-2.122,1.088c-0.509,0.215-0.746,0.802-0.531,1.311
		c0.162,0.381,0.532,0.61,0.921,0.61c0.131,0,0.263-0.026,0.39-0.08c0.978-0.414,1.904-0.92,2.797-1.476L39.751,43.782z"/>
</g>
</svg>
