<?xml version="1.0" encoding="iso-8859-1"?>
<!-- Generator: Adobe Illustrator 18.0.0, SVG Export Plug-In . SVG Version: 6.00 Build 0)  -->
<!DOCTYPE svg PUBLIC "-//W3C//DTD SVG 1.1//EN" "http://www.w3.org/Graphics/SVG/1.1/DTD/svg11.dtd">
<svg version="1.1" id="&#x56FE;&#x5C42;_1" xmlns="http://www.w3.org/2000/svg" xmlns:xlink="http://www.w3.org/1999/xlink" x="0px"
	 y="0px" viewBox="0 0 56 56" style="enable-background:new 0 0 56 56;" xml:space="preserve">
<g>
	<path style="fill:#FFFFFF;" d="M28,14c-7.732,0-14,6.269-14,14s6.268,14,14,14s14-6.269,14-14S35.732,14,28,14z M28,40
		c-7,0-12-5.383-12-12s5-12,12-12V40z"/>
	<g>
		<path style="fill:#FFFFFF;" d="M28,11.111c-0.553,0-1-0.448-1-1V5c0-0.552,0.447-1,1-1s1,0.448,1,1v5.111
			C29,10.664,28.553,11.111,28,11.111z"/>
	</g>
	<g>
		<path style="fill:#FFFFFF;" d="M28,52c-0.553,0-1-0.448-1-1v-5.111c0-0.552,0.447-1,1-1s1,0.448,1,1V51C29,51.552,28.553,52,28,52
			z"/>
	</g>
	<g>
		<path style="fill:#FFFFFF;" d="M10.111,29H5c-0.553,0-1-0.448-1-1s0.447-1,1-1h5.111c0.553,0,1,0.448,1,1S10.664,29,10.111,29z"/>
	</g>
	<g>
		<path style="fill:#FFFFFF;" d="M51,29h-5.111c-0.553,0-1-0.448-1-1s0.447-1,1-1H51c0.553,0,1,0.448,1,1S51.553,29,51,29z"/>
	</g>
	<g>
		<path style="fill:#FFFFFF;" d="M11.736,45.264c-0.256,0-0.512-0.098-0.707-0.293c-0.391-0.391-0.391-1.023,0-1.414l3.614-3.614
			c0.391-0.391,1.023-0.391,1.414,0s0.391,1.023,0,1.414l-3.614,3.614C12.248,45.166,11.992,45.264,11.736,45.264z"/>
	</g>
	<g>
		<path style="fill:#FFFFFF;" d="M40.649,16.351c-0.256,0-0.512-0.098-0.707-0.293c-0.391-0.391-0.391-1.023,0-1.414l3.614-3.614
			c0.391-0.391,1.023-0.391,1.414,0s0.391,1.023,0,1.414l-3.614,3.614C41.161,16.253,40.905,16.351,40.649,16.351z"/>
	</g>
	<g>
		<path style="fill:#FFFFFF;" d="M44.264,45.264c-0.256,0-0.512-0.098-0.707-0.293l-3.614-3.614c-0.391-0.391-0.391-1.023,0-1.414
			s1.023-0.391,1.414,0l3.614,3.614c0.391,0.391,0.391,1.023,0,1.414C44.775,45.166,44.52,45.264,44.264,45.264z"/>
	</g>
	<g>
		<path style="fill:#FFFFFF;" d="M15.351,16.351c-0.256,0-0.512-0.098-0.707-0.293l-3.614-3.614c-0.391-0.391-0.391-1.023,0-1.414
			s1.023-0.391,1.414,0l3.614,3.614c0.391,0.391,0.391,1.023,0,1.414C15.862,16.253,15.606,16.351,15.351,16.351z"/>
	</g>
</g>
</svg>
