<?xml version="1.0" encoding="iso-8859-1"?>
<!-- Generator: Adobe Illustrator 18.0.0, SVG Export Plug-In . SVG Version: 6.00 Build 0)  -->
<!DOCTYPE svg PUBLIC "-//W3C//DTD SVG 1.1//EN" "http://www.w3.org/Graphics/SVG/1.1/DTD/svg11.dtd">
<svg version="1.1" id="&#x56FE;&#x5C42;_1" xmlns="http://www.w3.org/2000/svg" xmlns:xlink="http://www.w3.org/1999/xlink" x="0px"
	 y="0px" viewBox="0 0 56 56" style="enable-background:new 0 0 56 56;" xml:space="preserve">
<g>
	<path style="opacity:0.2;fill:#01BDFF;" d="M50,12H21.188C20.083,12,19,12.958,19,14.063V21h7.25c1.657,0,2.75,1.281,2.75,2.938V39
		h21c1.105,0,2-0.895,2-2V14.063C52,12.958,51.105,12,50,12z"/>
	<path style="opacity:0.2;fill:#01BDFF;" d="M25,39H6c-0.552,0-1-0.448-1-1V25c0-0.552,0.448-1,1-1h19c0.552,0,1,0.448,1,1v13
		C26,38.552,25.552,39,25,39z"/>
	<g>
		<path style="fill:#01BDFF;" d="M25,40H6c-1.103,0-2-0.897-2-2V25c0-1.103,0.897-2,2-2h19c1.103,0,2,0.897,2,2v13
			C27,39.103,26.103,40,25,40z M6,25v13h19.001L25,25H6z"/>
	</g>
	<g>
		<path style="fill:#01BDFF;" d="M28,44H3c-0.552,0-1-0.447-1-1s0.448-1,1-1h25c0.552,0,1,0.447,1,1S28.552,44,28,44z"/>
	</g>
	<g>
		<path style="fill:#01BDFF;" d="M50,40H30c-0.552,0-1-0.447-1-1s0.448-1,1-1h20c0.551,0,1-0.448,1-1V14c0-0.552-0.449-1-1-1H21
			c-0.551,0-1,0.448-1,1v6c0,0.553-0.448,1-1,1s-1-0.447-1-1v-6c0-1.654,1.346-3,3-3h29c1.654,0,3,1.346,3,3v23
			C53,38.654,51.654,40,50,40z"/>
	</g>
	<path style="fill:#01BDFF;" d="M23,36v-7.272c0,0-0.14-0.002-0.148-0.002c-3.853,0-7.04,3.249-7.04,7.102
		c0,0.016-0.058,0.173-0.058,0.173H23z"/>
	<path style="fill:#01BDFF;" d="M29,36v-7.272c0,0,0.017-0.002,0.025-0.002c3.853,0,6.978,3.249,6.978,7.102
		C36.004,35.844,36,36,36,36H29z"/>
</g>
</svg>
