<?xml version="1.0" encoding="iso-8859-1"?>
<!-- Generator: Adobe Illustrator 18.0.0, SVG Export Plug-In . SVG Version: 6.00 Build 0)  -->
<!DOCTYPE svg PUBLIC "-//W3C//DTD SVG 1.1//EN" "http://www.w3.org/Graphics/SVG/1.1/DTD/svg11.dtd">
<svg version="1.1" id="&#x56FE;&#x5C42;_1" xmlns="http://www.w3.org/2000/svg" xmlns:xlink="http://www.w3.org/1999/xlink" x="0px"
	 y="0px" viewBox="0 0 56 56" style="enable-background:new 0 0 56 56;" xml:space="preserve">
<g>
	<rect x="6" y="11" style="opacity:0.2;fill:#01BDFF;" width="44" height="34"/>
	<g>
		<path style="fill:#01BDFF;" d="M48,46H8c-1.654,0-3-1.346-3-3V13c0-1.654,1.346-3,3-3h40c1.654,0,3,1.346,3,3v30
			C51,44.654,49.654,46,48,46z M8,12c-0.551,0-1,0.448-1,1v30c0,0.552,0.449,1,1,1h40c0.551,0,1-0.448,1-1V13c0-0.552-0.449-1-1-1H8
			z"/>
	</g>
</g>
</svg>
