<?xml version="1.0" encoding="UTF-8"?>
<svg width="36px" height="36px" viewBox="0 0 36 36" version="1.1" xmlns="http://www.w3.org/2000/svg" xmlns:xlink="http://www.w3.org/1999/xlink">
    <!-- Generator: Sketch 62 (91390) - https://sketch.com -->
    <title>list_icon_clear3备份 2</title>
    <desc>Created with Sketch.</desc>
    <g id="list_icon_clear3备份-2" stroke="none" stroke-width="1" fill="none" fill-rule="evenodd">
        <path d="M17,14 L17,12 C17,11.4477153 17.4477153,11 18,11 L19,11 C19.5522847,11 20,11.4477153 20,12 L20,14 L20,14 L24,14 C24.5522847,14 25,14.4477153 25,15 C25,15.5522847 24.5522847,16 24,16 L13,16 C12.4477153,16 12,15.5522847 12,15 C12,14.4477153 12.4477153,14 13,14 L17,14 L17,14 Z" id="路径-2" fill="#536076"></path>
        <path d="M23.6892175,17 L24.9752821,22.7829131 C24.9911329,22.8541877 24.9991298,22.9269841 24.9991298,23 C24.9991298,23.5522847 24.5514145,24 23.9991298,24 L23.9991298,24 L22.567,24 L21.5747774,20.428636 C21.509876,20.1952481 21.2894668,20.0462686 21.0559628,20.0638915 L20.9680631,20.0784701 L20.9340202,20.0872594 C20.9310243,20.0880329 20.9280358,20.0888342 20.9250548,20.0896631 C20.6590077,20.1636465 20.5033092,20.4392956 20.5772925,20.7053428 L20.5772925,20.7053428 L21.493,24 L13.0010849,24 C12.964577,24 12.9281239,23.9980008 12.8918885,23.9940202 L12.783998,23.9761523 C12.244884,23.8562585 11.9050389,23.3220271 12.0249327,22.7829131 L12.0249327,22.7829131 L13.3109972,17 L23.6892175,17 Z" id="形状结合" fill="#536076"></path>
    </g>
</svg>