<svg xmlns="http://www.w3.org/2000/svg" width="64" height="64" viewBox="0 0 64 64">
  <path d="M53,11 C56.2383969,11 58.8775718,13.5655749 58.9958615,16.7750617 L59,17 L59,22.999 L61,23 C62.6568542,23 64,24.3431458 64,26 L64,38 C64,39.6568542 62.6568542,41 61,41 L58.999,41 L59,47 C59,50.2383969 56.4344251,52.8775718 53.2249383,52.9958615 L53,53 L6,53 C2.76160306,53 0.122428238,50.4344251 0.00413847206,47.2249383 L-7.10542736e-15,47 L0,17 C0,13.7616031 2.56557489,11.1224282 5.77506174,11.0041385 L6,11 L53,11 Z M53,13 L6,13 C3.85780461,13 2.10892112,14.6839685 2.00489531,16.8003597 L2,17 L2,47 C2,49.1421954 3.68396847,50.8910789 5.80035966,50.9951047 L6,51 L53,51 C55.1421954,51 56.8910789,49.3160315 56.9951047,47.1996403 L57,47 L57,17 C57,14.8578046 55.3160315,13.1089211 53.1996403,13.0048953 L53,13 Z M44.4873548,19.75 C44.4873548,19.75 44.4695632,19.8902313 44.4277175,20.1490705 L44.3917252,20.365101 C43.7812526,23.9290064 39.9282702,41.820032 23.9158757,43.25 C21.8576586,43.1265418 20.7831089,42.5038831 20.227123,41.8114436 C20.3340434,40.1259708 20.6387664,38.0218136 21.5048214,36.1162631 C22.0020011,35.0266103 22.7023296,34.033577 23.5630385,33.308931 C24.5039378,32.4447236 25.3753388,31.7737551 26.2520858,31.2262449 C27.9841958,30.1473275 29.502465,29.6803335 29.9782607,29.5139333 C30.4647484,29.3582686 31.3361494,29.0576747 32.389315,28.7302421 C33.4424806,28.4296482 34.714833,27.9894929 35.8000748,27.4527181 C38.0293645,26.4274783 39.8737408,25.2734125 39.8683948,25.2734125 C39.8737408,25.2734125 37.895714,26.1966651 35.6022721,26.9588853 C34.4475321,27.3722019 33.260716,27.6459571 32.1594362,27.860667 C31.0741945,28.0968479 30.1546793,28.3330288 29.6521535,28.499429 C28.7059083,28.8322293 23.0498208,30.3566697 20.1576248,35.4613979 C19.5054105,36.7657606 19.0937671,38.1130653 18.8264662,39.3798538 C18.1742519,39.0685244 17.3616571,38.4673367 17.1371243,37.3562129 C16.752211,35.4184559 16.9660518,29.6105528 23.2262394,26.3791686 C29.486427,23.1531521 36.4736731,23.7972819 39.8149346,22.8471905 C43.1561962,21.9024669 44.4873548,19.75 44.4873548,19.75 Z M61,25 L59,25 L59,39 L61,39 C61.5128358,39 61.9355072,38.6139598 61.9932723,38.1166211 L62,38 L62,26 C62,25.4871642 61.6139598,25.0644928 61.1166211,25.0067277 L61,25 Z"/>
</svg>
