<svg xmlns="http://www.w3.org/2000/svg" width="64" height="64" viewBox="0 0 64 64">
  <path d="M56.5739183,40.7194204 C57.0887152,40.919427 57.3439031,41.4988897 57.1438965,42.0136866 C55.8212683,45.4179981 53.8352999,48.5828427 51.3196318,51.2887718 C48.9290197,53.7704518 46.0803574,55.8193658 42.9758663,57.2628499 L42.4254004,57.5112625 L42.1987034,57.6242864 C38.866532,59.1046114 35.3246948,59.8942014 31.7329496,59.991111 C28.0351305,60.0846338 24.3879477,59.4391002 20.9410082,58.0982394 C20.4262956,57.898016 20.1713518,57.3184459 20.3715752,56.8037333 C20.5717986,56.2890207 21.1513687,56.0340769 21.6660813,56.2343003 C24.8674607,57.4796381 28.2511312,58.0785313 31.6806946,57.9917945 C34.815483,57.9072129 37.909049,57.2536902 40.8021767,56.0497901 L41.3422504,55.8176136 L41.5736045,55.7025351 C44.69842,54.3333309 47.5273348,52.3427288 49.8670193,49.9141442 C52.1985126,47.406104 54.0488069,44.4574702 55.2796521,41.2893986 C55.4796588,40.7746017 56.0591215,40.5194138 56.5739183,40.7194204 Z M21.0017772,3 C23.2102353,3 25,4.79136501 25,6.99960511 C25,9.20863499 23.2102353,11 21.0017772,11 C19.7482873,11 18.6294642,10.4238537 17.8957284,9.52210067 C15.7887297,10.7621251 13.868091,12.2864099 12.1725708,14.0475016 C9.81638157,16.5352905 7.95998353,19.4759135 6.72065374,22.6659139 C5.49838132,25.8080101 4.92044958,29.1875196 5.00877106,32.6353558 C5.0993356,36.0802422 5.83841977,39.4020844 7.24700179,42.5168482 C7.26651967,42.5600077 7.2828967,42.6043885 7.29605812,42.649644 L7.321,42.767 L7.50767912,43.1687613 C8.65316269,45.5599527 10.0990472,47.7001967 11.8115901,49.5475559 C12.404501,49.1994989 13.095443,49 13.8329973,49 C16.0414373,49 17.8312531,50.7914161 17.8312531,52.999638 C17.8312531,55.2086497 16.0415031,57 13.8329973,57 C11.6227802,57 9.83125305,55.2086497 9.83125305,52.999638 C9.83125305,52.2530427 10.0360505,51.5540925 10.3925801,50.9559136 C8.3775593,48.7963594 6.70649431,46.2675005 5.42467213,43.4328755 C5.39865084,43.375332 5.37821277,43.3156174 5.36353507,43.2545534 L5.345,43.16 L5.17798806,42.7786118 C3.89794542,39.7686581 3.1880157,36.5872572 3.03217517,33.3040265 L3.00944439,32.6872445 C2.91436919,28.9757702 3.53744158,25.3322965 4.85655812,21.9412434 C6.18930745,18.5107834 8.18539693,15.3488825 10.7261237,12.6662978 C12.599011,10.7209412 14.7249051,9.04567164 17.0608043,7.69190367 C17.0205748,7.46828422 17,7.23634374 17,6.99960511 C17,4.79136501 18.7916077,3 21.0017772,3 Z M32.4953652,17.7623417 C32.7972805,17.9428922 32.9821213,18.2688014 32.9821213,18.6205845 L32.9821213,29.0672366 L40.227315,29.0672366 C40.7795997,29.0672366 41.227315,29.5149518 41.227315,30.0672366 C41.227315,30.2495482 41.1774755,30.428391 41.0831859,30.5844261 L31.8108108,45.9288127 C31.5251749,46.4014971 30.9104348,46.55313 30.4377504,46.2674941 C30.1380739,46.0864042 29.9549399,45.7617654 29.9549399,45.4116232 L29.9549399,35.0364194 L22.7631885,35.0364194 C22.2109038,35.0364194 21.7631885,34.5887042 21.7631885,34.0364194 C21.7631885,33.8556709 21.8121776,33.6783017 21.9049457,33.5231756 L31.1238785,18.1073406 C31.4073353,17.6333462 32.0213708,17.4788849 32.4953652,17.7623417 Z M41.0611425,5.8567401 C44.5104707,7.19917073 47.6218037,9.1541835 50.2834961,11.6750597 C52.8862003,14.1358974 55.0156973,17.1631954 56.5758811,20.6141271 C57.9196357,23.5863977 58.6985867,26.7311602 58.9287332,29.9809856 C60.685379,30.4024861 61.9914009,31.9836963 61.9914009,33.8700328 C61.9914009,36.079299 60.1998296,37.8699341 57.9912693,37.8699341 C55.7828406,37.8699341 53.9914009,36.0793648 53.9914009,33.8700328 C53.9914009,32.0303783 55.2334902,30.4809346 56.9241537,30.0139183 C56.7028483,27.035799 55.9834462,24.1586336 54.7534737,21.4380394 C53.2987903,18.2204611 51.3201681,15.4076472 48.9088301,13.1277443 C46.4363238,10.7860458 43.5461462,8.96999654 40.3361497,7.72071041 C37.201141,6.50208374 33.7769776,5.92022175 30.3183284,6.00877838 C29.7662246,6.02291467 29.3071963,5.58680583 29.29306,5.03470202 C29.2789237,4.48259822 29.7150326,4.02356993 30.2671364,4.00943364 C33.9879669,3.91416401 37.6759198,4.5408513 41.0611425,5.8567401 Z"/>
</svg>
