<svg xmlns="http://www.w3.org/2000/svg" width="64" height="64" viewBox="0 0 64 64">
  <g fill="none" fill-rule="evenodd" transform="translate(6 14)">
    <path fill="#191919" fill-rule="nonzero" d="M28.0724498,32.045722 C26.6701766,30.6434487 24.3599727,30.6801188 22.912465,32.1276265 C21.4649572,33.5751343 21.4282872,35.8853381 22.8305604,37.2876114 C24.2328337,38.6898846 26.5430375,38.6532146 27.9905452,37.2057068 C29.438053,35.758199 29.474723,33.4479952 28.0724498,32.045722 Z"/>
    <path stroke="#191919" stroke-width="3" d="M51.0961891 9.25862031C44.1414606 3.47691771 35.2025218 0 25.4515051 0 15.7905352 0 6.9267137 3.41299838 0 9.09903588M43.8158224 17.4458891C38.7999195 13.3819917 32.4100307 10.9473684 25.4515051 10.9473684 18.6067759 10.9473684 12.3122372 13.3030135 7.3343697 17.2478227M36.4820692 25.6053851C33.4185145 23.2768633 29.5964162 21.8947368 25.4515051 21.8947368 21.3459705 21.8947368 17.5571443 23.2507277 14.5084569 25.5392793"/>
  </g>
</svg>
