<?xml version="1.0" encoding="UTF-8"?>
<svg width="72px" height="72px" viewBox="0 0 72 72" version="1.1" xmlns="http://www.w3.org/2000/svg" xmlns:xlink="http://www.w3.org/1999/xlink">
    <title>编组 5</title>
    <g id="OSD" stroke="none" stroke-width="1" fill="none" fill-rule="evenodd">
        <g id="osd-显示2" transform="translate(-351.000000, -625.000000)">
            <g id="OSD-键盘灯自动" transform="translate(317.000000, 591.000000)">
                <g id="编组-5" transform="translate(34.000000, 34.000000)">
                    <rect id="矩形" x="0" y="0" width="72" height="72"></rect>
                    <path d="M19.5424805,68 L20.9399414,64.1328125 L26.0463867,64.1328125 L27.355957,68 L29.2719727,68 L24.5874023,55.0888672 L22.6098633,55.0888672 L17.7495117,68 L19.5424805,68 Z M25.4838867,62.7089844 L21.440918,62.7089844 L23.5239258,57.0048828 L25.4838867,62.7089844 Z M34.2543945,68.2548828 C35.1157227,68.2548828 35.8481445,68.0087891 36.4516602,67.5166016 C36.7563477,67.2705078 37.0112305,66.96875 37.2163086,66.6113281 L37.2163086,66.6113281 L37.1987305,68 L38.6928711,68 L38.6928711,58.5869141 L37.1108398,58.5869141 L37.1108398,63.2099609 C37.1108398,64.1298828 37.0024414,64.8535156 36.7856445,65.3808594 C36.387207,66.3652344 35.637207,66.8574219 34.5356445,66.8574219 C33.7680664,66.8574219 33.2436523,66.5761719 32.9624023,66.0136719 C32.8100586,65.7089844 32.7338867,65.3164062 32.7338867,64.8359375 L32.7338867,64.8359375 L32.7338867,58.5869141 L31.1166992,58.5869141 L31.1166992,64.9853516 C31.1166992,65.7880859 31.2485352,66.4296875 31.512207,66.9101562 C31.9985352,67.8066406 32.9125977,68.2548828 34.2543945,68.2548828 Z M43.8774414,68.1494141 C44.105957,68.1494141 44.3183594,68.1376953 44.5146484,68.1142578 C44.7109375,68.0908203 44.8999023,68.0527344 45.081543,68 L45.081543,68 L45.081543,66.7519531 C44.9643555,66.7636719 44.8618164,66.7709961 44.7739258,66.7739258 C44.6860352,66.7768555 44.6040039,66.7783203 44.527832,66.7783203 C44.2407227,66.7783203 44.0356445,66.7460938 43.9125977,66.6816406 C43.6899414,66.5703125 43.5786133,66.3505859 43.5786133,66.0224609 L43.5786133,66.0224609 L43.5786133,59.8789062 L45.081543,59.8789062 L45.081543,58.5869141 L43.5786133,58.5869141 L43.5786133,55.9589844 L41.9790039,55.9589844 L41.9790039,58.5869141 L40.7045898,58.5869141 L40.7045898,59.8789062 L41.9790039,59.8789062 L41.9790039,66.1103516 C41.9790039,66.7138672 42.1108398,67.2045898 42.3745117,67.5825195 C42.6381836,67.9604492 43.1391602,68.1494141 43.8774414,68.1494141 Z M50.7495117,68.3427734 C52.3022461,68.3427734 53.4477539,67.8476562 54.1860352,66.8574219 C54.9243164,65.8671875 55.293457,64.6132812 55.293457,63.0957031 C55.293457,61.5253906 54.8745117,60.3359375 54.0366211,59.5273438 C53.1987305,58.71875 52.1733398,58.3144531 50.9604492,58.3144531 C49.6069336,58.3144531 48.5288086,58.7832031 47.7260742,59.7207031 C46.9233398,60.6582031 46.5219727,61.9179688 46.5219727,63.5 C46.5219727,64.9765625 46.902832,66.152832 47.6645508,67.0288086 C48.4262695,67.9047852 49.4545898,68.3427734 50.7495117,68.3427734 Z M50.8989258,66.9804688 C49.9438477,66.9804688 49.246582,66.6464844 48.8071289,65.9785156 C48.3676758,65.3105469 48.1479492,64.4755859 48.1479492,63.4736328 C48.1479492,62.4306641 48.3676758,61.5400391 48.8071289,60.8017578 C49.246582,60.0634766 49.949707,59.6943359 50.9165039,59.6943359 C52.0063477,59.6943359 52.7739258,60.1279297 53.2192383,60.9951172 C53.5004883,61.5458984 53.6411133,62.2607422 53.6411133,63.1396484 C53.6411133,64.1123047 53.4462891,64.9956055 53.0566406,65.7895508 C52.6669922,66.5834961 51.9477539,66.9804688 50.8989258,66.9804688 Z" id="Auto" fill="#000000" fill-rule="nonzero"></path>
                    <g id="编组-4" transform="translate(0.154120, 11.000000)" fill="#000000">
                        <path d="M71.0240834,15 C71.3692614,15.5978658 71.1644174,16.3623538 70.5665517,16.7075318 L58.8752087,23.4575318 C58.2773429,23.8027097 57.5128549,23.5978658 57.167677,23 C56.822499,22.4021342 57.0273429,21.6376462 57.6252087,21.2924682 L69.3165517,14.5424682 C69.9144174,14.1972903 70.6789055,14.4021342 71.0240834,15 Z M1.87520872,14.5424682 L13.5665517,21.2924682 C14.1644174,21.6376462 14.3692614,22.4021342 14.0240834,23 C13.6789055,23.5978658 12.9144174,23.8027097 12.3165517,23.4575318 L0.625208719,16.7075318 C0.0273429397,16.3623538 -0.177501004,15.5978658 0.167676964,15 C0.512854933,14.4021342 1.27734294,14.1972903 1.87520872,14.5424682 Z M56.0958802,4.07179677 C56.693746,4.41697474 56.8985899,5.18146275 56.5534119,5.77932852 L49.8034119,17.4706715 C49.458234,18.0685373 48.693746,18.2733812 48.0958802,17.9282032 C47.4980144,17.5830253 47.2931705,16.8185373 47.6383484,16.2206715 L54.3883484,4.52932852 C54.7335264,3.93146275 55.4980144,3.7266188 56.0958802,4.07179677 Z M17.8034119,4.52932852 L24.5534119,16.2206715 C24.8985899,16.8185373 24.693746,17.5830253 24.0958802,17.9282032 C23.4980144,18.2733812 22.7335264,18.0685373 22.3883484,17.4706715 L15.6383484,5.77932852 C15.2931705,5.18146275 15.4980144,4.41697474 16.0958802,4.07179677 C16.693746,3.7266188 17.458234,3.93146275 17.8034119,4.52932852 Z M36.0958802,0 C36.7862361,-1.26816328e-16 37.3458802,0.559644063 37.3458802,1.25 L37.3458802,15.75 C37.3458802,16.4403559 36.7862361,17 36.0958802,17 C35.4055243,17 34.8458802,16.4403559 34.8458802,15.75 L34.8458802,1.25 C34.8458802,0.559644063 35.4055243,1.26816328e-16 36.0958802,0 Z" id="形状结合"></path>
                        <path d="M59.8458802,36.5 C59.8458802,37.3284271 59.1743073,38 58.3458802,38 C57.5174531,38 56.8458802,37.3284271 56.8458802,36.5 L56.8458802,36 L14.8458802,36 L14.8458802,36.5 C14.8458802,37.3284271 14.1743073,38 13.3458802,38 C12.5174531,38 11.8458802,37.3284271 11.8458802,36.5 L11.8458802,33 C11.8458802,32.4477153 12.2935954,32 12.8458802,32 L58.8458802,32 C59.3981649,32 59.8458802,32.4477153 59.8458802,33 L59.8458802,36.5 Z" id="形状结合"></path>
                    </g>
                </g>
            </g>
        </g>
    </g>
</svg>