<?xml version="1.0" encoding="UTF-8"?>
<svg width="64px" height="64px" viewBox="0 0 64 64" version="1.1" xmlns="http://www.w3.org/2000/svg" xmlns:xlink="http://www.w3.org/1999/xlink">
    <!-- Generator: Sketch 50.2 (55047) - http://www.bohemiancoding.com/sketch -->
    <title>OSD_mic_off</title>
    <desc>Created with Sketch.</desc>
    <defs></defs>
    <g id="OSD_mic_off" stroke="none" stroke-width="1" fill="none" fill-rule="evenodd">
        <path d="M28.7695526,32 L24.0666667,32 L24.0666667,30 L29,30 L30.7695526,30 L28.7695526,32 Z M41.4974747,32 L41.9333333,31.5641413 L41.9333333,32 L41.4974747,32 Z M41.921672,18.8478806 L38.7695526,22 L38,22 L38,22.7695526 L31,29.7695526 L31,29 L29,29 L24.0666667,29 L24.0666667,27 L31,27 L31,26 L24.0666667,26 L24.0666667,19.2974168 C24.0666667,17.0215426 24.929537,15.0696905 26.655303,13.4418119 C28.3810704,11.8139272 30.4790263,11 32.9492457,11 C35.4194585,11 37.5343326,11.8139272 39.2939394,13.4418119 C40.9365854,14.9614856 41.8124875,16.7634954 41.921672,18.8478806 Z M27.3186371,46.1788376 L28.4305294,45.0669453 C28.4849794,45.0910244 28.5397329,45.1146864 28.5947901,45.137931 C29.792716,45.6436822 31.0784651,45.8965517 32.4520864,45.8965517 C33.8257016,45.8965517 36.1194363,45.6436822 37.3333333,45.137931 C38.5472304,44.6321799 39.6093704,43.9288839 40.5197901,43.0280188 C41.4302099,42.1271537 42.1489568,41.0840563 42.6760432,39.8987084 C43.2031296,38.7133545 43.4666667,37.441099 43.4666667,36.0818935 L43.4666667,33 L45,33 L45,36.0818935 C45,37.5359266 44.7364629,38.9030097 44.2093765,40.1831912 C43.6822901,41.4633666 42.9635432,42.6012855 42.0531235,43.5969843 C41.1427037,44.592677 40.0725781,45.4145059 38.8427099,46.0625015 C37.6128416,46.710491 36.295144,47.1135068 34.8895803,47.2715487 L34.8895803,51.8232759 C37.1895925,51.949713 39.122212,52.3290198 40.6875,52.9612069 C42.252788,53.593394 43.0354197,54.2571805 43.0354197,54.9525862 C43.0354197,54.9841956 42.0531357,55 40.0885432,55 L32.6197901,55 L26.151042,55 C24.1864482,55 23.2041667,54.9841956 23.2041667,54.9525862 C23.2041667,54.2887901 23.9308955,53.6487102 25.3843753,53.0323273 C26.8378545,52.4159449 28.6506832,52.0129322 30.8229136,51.8232759 L30.8229136,47.2715487 C29.5832691,47.1003909 28.4151872,46.7361598 27.3186371,46.1788376 Z M21.4717152,39.2978375 C21.1572372,38.2696176 21,37.1976431 21,36.0818935 L21,33 L22.5333333,33 L22.5333333,36.0818935 C22.5333333,36.7582507 22.5966129,37.4130774 22.7231728,38.0463798 L21.4717152,39.2978375 Z M29.7381712,43.7593035 L40.4974747,33 L41.9333333,33 L41.9333333,35.987072 C41.9333333,38.2945534 41.0535462,40.2543012 39.2939394,41.8663823 C37.5343326,43.4784574 35.4194585,44.2844828 32.9492457,44.2844828 C31.798039,44.2844828 30.7276833,44.1094238 29.7381712,43.7593035 Z M24.0931369,36.6764157 C24.0754901,36.4501902 24.0666667,36.220409 24.0666667,35.987072 L24.0666667,33 L27.7695526,33 L24.0931369,36.6764157 Z M26,18 L26,20 L28,20 L28,18 L26,18 Z M30,18 L30,20 L32,20 L32,18 L30,18 Z M34,18 L34,20 L36,20 L36,18 L34,18 Z M38,18 L38,20 L40,20 L40,18 L38,18 Z M26,22 L26,24 L28,24 L28,22 L26,22 Z M30,22 L30,24 L32,24 L32,22 L30,22 Z M34,22 L34,24 L36,24 L36,22 L34,22 Z M28,14 L26.5,16 L28,16 L28,14 Z M30,14 L30,16 L32,16 L32,14 L30,14 Z M34,14 L34,16 L36,16 L36,14 L34,14 Z M38,14 L38,16 L39.5,16 L38,14 Z" id="Combined-Shape" fill="#191919"></path>
        <polygon id="Rectangle-2" fill="#191919" transform="translate(33.500000, 33.500000) rotate(-45.000000) translate(-33.500000, -33.500000) " points="56 32 56 35 11 35 11 32"></polygon>
    </g>
</svg>