<svg xmlns="http://www.w3.org/2000/svg" width="64" height="64" viewBox="0 0 64 64">
  <path fill="#FFF" fill-rule="evenodd" d="M45,36.0818935 L45,33 L43.4666667,33 L43.4666667,36.0818935 C43.4666667,37.441099 43.2031296,38.7133545 42.6760432,39.8987084 C42.1489568,41.0840563 41.4302099,42.1271537 40.5197901,43.0280188 C39.6093704,43.9288839 38.5472304,44.6321799 37.3333333,45.137931 C36.1194363,45.6436822 33.8257016,45.8965517 32.4520864,45.8965517 C31.0784651,45.8965517 29.792716,45.6436822 28.5947901,45.137931 C27.3968704,44.6321799 26.3427129,43.9288839 25.4322914,43.0280188 C24.5218704,42.1271537 23.8111134,41.0840563 23.3,39.8987084 C22.7888866,38.7133545 22.5333333,37.441099 22.5333333,36.0818935 L22.5333333,33 L21,33 L21,36.0818935 C21,37.5043194 21.255553,38.8555989 21.7666667,40.1357743 C22.27778,41.4159559 22.9725653,42.545973 23.851042,43.5258621 C24.7295181,44.5057512 25.7677025,45.3275801 26.9656247,45.9913793 C28.1635493,46.6551785 29.4492984,47.0818935 30.8229136,47.2715487 L30.8229136,51.8232759 C28.6506832,52.0129322 26.8378545,52.4159449 25.3843753,53.0323273 C23.9308955,53.6487102 23.2041667,54.2887901 23.2041667,54.9525862 C23.2041667,54.9841956 24.1864482,55 26.151042,55 L32.6197901,55 C34.9677221,55 38.1239507,55 40.0885432,55 C42.0531357,55 43.0354197,54.9841956 43.0354197,54.9525862 C43.0354197,54.2571805 42.252788,53.593394 40.6875,52.9612069 C39.122212,52.3290198 37.1895925,51.949713 34.8895803,51.8232759 L34.8895803,47.2715487 C36.295144,47.1135068 37.6128416,46.710491 38.8427099,46.0625015 C40.0725781,45.4145059 41.1427037,44.592677 42.0531235,43.5969843 C42.9635432,42.6012855 43.6822901,41.4633666 44.2093765,40.1831912 C44.7364629,38.9030097 45,37.5359266 45,36.0818935 Z M32.9492457,44.2844828 C35.4194585,44.2844828 37.5343326,43.4784574 39.2939394,41.8663823 C41.0535462,40.2543012 41.9333333,38.2945534 41.9333333,35.987072 L41.9333333,33 L24.0666667,33 L24.0666667,35.987072 C24.0666667,38.2945534 24.929537,40.2543012 26.655303,41.8663823 C28.3810704,43.4784574 30.4790263,44.2844828 32.9492457,44.2844828 Z M32.9492457,11 C35.4194585,11 37.5343326,11.8139272 39.2939394,13.4418119 C41.0535462,15.0696905 41.9333333,17.0215426 41.9333333,19.2974168 L41.9333333,19.2974168 L41.933,26 L35,26 L35,27 L41.933,27 L41.933,29 L35,29 L35,30 L41.933,30 L41.9333333,32 L24.0666667,32 L24.066,29.999 L31,30 L31,29 L24.066,28.999 L24.066,27 L31,27 L31,26 L24.066,26 L24.0666667,19.2974168 C24.0666667,17.1249914 24.852877,15.2478011 26.4253198,13.6658034 L26.655303,13.4418119 C28.3810704,11.8139272 30.4790263,11 32.9492457,11 Z M28,22 L26,22 L26,24 L28,24 L28,22 Z M32,22 L30,22 L30,24 L32,24 L32,22 Z M36,22 L34,22 L34,24 L36,24 L36,22 Z M40,22 L38,22 L38,24 L40,24 L40,22 Z M28,18 L26,18 L26,20 L28,20 L28,18 Z M32,18 L30,18 L30,20 L32,20 L32,18 Z M36,18 L34,18 L34,20 L36,20 L36,18 Z M40,18 L38,18 L38,20 L40,20 L40,18 Z M28,14 L26.5,16 L28,16 L28,14 Z M32,14 L30,14 L30,16 L32,16 L32,14 Z M36,14 L34,14 L34,16 L36,16 L36,14 Z M38,14 L38,16 L39.5,16 L38,14 Z"/>
</svg>
