<?xml version="1.0" encoding="UTF-8"?>
<svg width="64px" height="64px" viewBox="0 0 64 64" version="1.1" xmlns="http://www.w3.org/2000/svg" xmlns:xlink="http://www.w3.org/1999/xlink">
    <!-- Generator: Sketch 45.2 (43514) - http://www.bohemiancoding.com/sketch -->
    <title>OSD_caps_lock_off</title>
    <desc>Created with Sketch.</desc>
    <defs></defs>
    <g id="Page-1" stroke="none" stroke-width="1" fill="none" fill-rule="evenodd" fill-opacity="0.9" opacity="0.900000036">
        <g id="OSD_caps_lock_off" fill="#000000">
            <path d="M30.6773547,10 C26.1883768,10 22.4208417,10.9688073 19.4549098,13.0678899 C16.248497,15.1669725 14.3246493,18.2348624 13.5230461,22.2715596 L16.488978,22.5944954 C17.1302605,19.3651376 18.8136273,16.8623853 21.4589178,15.1669725 C23.8637275,13.5522936 26.9098196,12.8256881 30.5971944,12.8256881 C39.4148297,12.8256881 43.8236473,17.266055 43.8236473,26.2275229 L43.8236473,29.053211 L32.6813627,29.133945 C26.2685371,29.133945 21.3787575,30.1027523 18.012024,32.2018349 C14.004008,34.4623853 12,37.933945 12,42.7779817 C12,46.2495413 13.2825651,48.9944954 15.9278557,51.012844 C18.3326653,52.9504587 21.5390782,54 25.4669339,54 C29.5551102,54 33.4028056,52.8697248 37.01002,50.6091743 C39.8957916,48.6715596 42.1402806,46.4917431 43.9038076,43.9082569 L43.9038076,52.8697248 L46.8697395,52.8697248 L46.8697395,25.9045872 C46.8697395,21.2220183 45.6673347,17.5082569 43.3426854,14.8440367 C40.5370741,11.6146789 36.2885772,10 30.6773547,10 L30.6773547,10 Z M43.8236473,31.7174312 L43.8236473,36.9651376 C43.8236473,40.1944954 41.9799599,43.3431193 38.3727455,46.4110092 C34.6052104,49.640367 30.5170341,51.2550459 26.0280561,51.2550459 C22.741483,51.2550459 20.0961924,50.4477064 18.0921844,48.9944954 C16.0881764,47.4605505 15.1262525,45.4422018 15.1262525,42.8587156 C15.1262525,35.5926606 20.9779559,31.8788991 32.761523,31.7981651 L43.8236473,31.7174312 Z" id="a"></path>
        </g>
    </g>
</svg>