<?xml version="1.0" encoding="UTF-8"?>
<svg width="72px" height="72px" viewBox="0 0 72 72" version="1.1" xmlns="http://www.w3.org/2000/svg" xmlns:xlink="http://www.w3.org/1999/xlink">
    <title>Group</title>
    <g id="OSD" stroke="none" stroke-width="1" fill="none" fill-rule="evenodd">
        <g id="osd-显示2" transform="translate(-1303.000000, -599.000000)">
            <g id="OSD-键盘灯强" transform="translate(1269.000000, 565.000000)">
                <g id="Group" transform="translate(34.000000, 34.000000)">
                    <rect id="矩形" x="0" y="0" width="72" height="72"></rect>
                    <g id="编组-4" transform="translate(0.154120, 11.000000)" fill="#000000">
                        <path d="M71.0240834,15 C71.3692614,15.5978658 71.1644174,16.3623538 70.5665517,16.7075318 L58.8752087,23.4575318 C58.2773429,23.8027097 57.5128549,23.5978658 57.167677,23 C56.822499,22.4021342 57.0273429,21.6376462 57.6252087,21.2924682 L69.3165517,14.5424682 C69.9144174,14.1972903 70.6789055,14.4021342 71.0240834,15 Z M1.87520872,14.5424682 L13.5665517,21.2924682 C14.1644174,21.6376462 14.3692614,22.4021342 14.0240834,23 C13.6789055,23.5978658 12.9144174,23.8027097 12.3165517,23.4575318 L0.625208719,16.7075318 C0.0273429397,16.3623538 -0.177501004,15.5978658 0.167676964,15 C0.512854933,14.4021342 1.27734294,14.1972903 1.87520872,14.5424682 Z M56.0958802,4.07179677 C56.693746,4.41697474 56.8985899,5.18146275 56.5534119,5.77932852 L49.8034119,17.4706715 C49.458234,18.0685373 48.693746,18.2733812 48.0958802,17.9282032 C47.4980144,17.5830253 47.2931705,16.8185373 47.6383484,16.2206715 L54.3883484,4.52932852 C54.7335264,3.93146275 55.4980144,3.7266188 56.0958802,4.07179677 Z M17.8034119,4.52932852 L24.5534119,16.2206715 C24.8985899,16.8185373 24.693746,17.5830253 24.0958802,17.9282032 C23.4980144,18.2733812 22.7335264,18.0685373 22.3883484,17.4706715 L15.6383484,5.77932852 C15.2931705,5.18146275 15.4980144,4.41697474 16.0958802,4.07179677 C16.693746,3.7266188 17.458234,3.93146275 17.8034119,4.52932852 Z M36.0958802,0 C36.7862361,-1.26816328e-16 37.3458802,0.559644063 37.3458802,1.25 L37.3458802,15.75 C37.3458802,16.4403559 36.7862361,17 36.0958802,17 C35.4055243,17 34.8458802,16.4403559 34.8458802,15.75 L34.8458802,1.25 C34.8458802,0.559644063 35.4055243,1.26816328e-16 36.0958802,0 Z" id="形状结合"></path>
                        <path d="M59.8458802,36.5 C59.8458802,37.3284271 59.1743073,38 58.3458802,38 C57.5174531,38 56.8458802,37.3284271 56.8458802,36.5 L56.8458802,36 L14.8458802,36 L14.8458802,36.5 C14.8458802,37.3284271 14.1743073,38 13.3458802,38 C12.5174531,38 11.8458802,37.3284271 11.8458802,36.5 L11.8458802,33 C11.8458802,32.4477153 12.2935954,32 12.8458802,32 L58.8458802,32 C59.3981649,32 59.8458802,32.4477153 59.8458802,33 L59.8458802,36.5 Z" id="形状结合"></path>
                    </g>
                </g>
            </g>
        </g>
    </g>
</svg>