<?xml version="1.0" encoding="UTF-8"?>
<svg width="64px" height="64px" viewBox="0 0 64 64" version="1.1" xmlns="http://www.w3.org/2000/svg" xmlns:xlink="http://www.w3.org/1999/xlink">
    <!-- Generator: Sketch 45.2 (43514) - http://www.bohemiancoding.com/sketch -->
    <title>OSD_trackpad_off</title>
    <desc>Created with Sketch.</desc>
    <defs></defs>
    <g id="Page-1" stroke="none" stroke-width="1" fill="none" fill-rule="evenodd" opacity="0.900000036">
        <g id="OSD_trackpad_off" fill-rule="nonzero" fill="#000000">
            <path d="M31.3129638,27 L9,27 L9,24 L31,24 L31,14 L34,14 L34,24 L34.3129638,24 L31.3129638,27 Z M44.0408859,27 L47.0408859,24 L55,24 L55,16.996524 C55,16.7057938 54.9586862,16.4248775 54.8816115,16.1592744 L57.1392784,13.9016075 C57.6855905,14.8066943 58,15.8676885 58,17.0015877 L58,47.9984123 C58,51.3129976 55.3137533,54 52.0095608,54 L17.0408859,54 L20.0408859,51 L51.9995558,51 C53.6482195,51 55,49.6584105 55,48.003476 L55,27 L44.0408859,27 Z M9.20852552,49.1044383 L6.99789725,51.3150666 C6.36736824,50.3645891 6,49.2240932 6,47.9984123 L6,17.0015877 C6,13.6870024 8.68624675,11 11.9904392,11 L47.3129638,11 L44.3129638,14 L12.0004442,14 C10.3517805,14 9,15.3415895 9,16.996524 L9,48.003476 C9,48.3924166 9.07394035,48.7637929 9.20852552,49.1044383 Z M54.6690476,8 L56.7903679,10.1213203 L10.1213203,56.7903679 L8,54.6690476 L54.6690476,8 Z" id="Combined-Shape"></path>
        </g>
    </g>
</svg>