<?xml version="1.0" encoding="UTF-8"?>
<svg width="72px" height="72px" viewBox="0 0 72 72" version="1.1" xmlns="http://www.w3.org/2000/svg" xmlns:xlink="http://www.w3.org/1999/xlink">
    <title>编组 4</title>
    <g id="OSD" stroke="none" stroke-width="1" fill="none" fill-rule="evenodd">
        <g id="osd-显示2" transform="translate(-1497.000000, -599.000000)">
            <g id="OSD-键盘灯弱" transform="translate(1463.000000, 565.000000)">
                <g id="编组-4" transform="translate(34.000000, 34.000000)">
                    <rect id="矩形" x="0" y="0" width="72" height="72"></rect>
                    <path d="M62.5179492,31 C62.8631272,31.5978658 62.6582832,32.3623538 62.0604174,32.7075318 L58.1633031,34.9575318 C57.5654373,35.3027097 56.8009493,35.0978658 56.4557714,34.5 C56.1105934,33.9021342 56.3154373,33.1376462 56.9133031,32.7924682 L60.8104174,30.5424682 C61.4082832,30.1972903 62.1727712,30.4021342 62.5179492,31 Z M10.6895826,30.5424682 L14.5866969,32.7924682 C15.1845627,33.1376462 15.3894066,33.9021342 15.0442286,34.5 C14.6990507,35.0978658 13.9345627,35.3027097 13.3366969,34.9575318 L9.43958256,32.7075318 C8.84171678,32.3623538 8.63687284,31.5978658 8.98205081,31 C9.32722878,30.4021342 10.0917168,30.1972903 10.6895826,30.5424682 Z M51.25,23.7320508 C51.8478658,24.0772288 52.0527097,24.8417168 51.7075318,25.4395826 L49.4575318,29.3366969 C49.1123538,29.9345627 48.3478658,30.1394066 47.75,29.7942286 C47.1521342,29.4490507 46.9472903,28.6845627 47.2924682,28.0866969 L49.5424682,24.1895826 C49.8876462,23.5917168 50.6521342,23.3868728 51.25,23.7320508 Z M22.9575318,24.1895826 L25.2075318,28.0866969 C25.5527097,28.6845627 25.3478658,29.4490507 24.75,29.7942286 C24.1521342,30.1394066 23.3876462,29.9345627 23.0424682,29.3366969 L20.7924682,25.4395826 C20.4472903,24.8417168 20.6521342,24.0772288 21.25,23.7320508 C21.8478658,23.3868728 22.6123538,23.5917168 22.9575318,24.1895826 Z M36.25,21 C36.9403559,21 37.5,21.5596441 37.5,22.25 L37.5,27.75 C37.5,28.4403559 36.9403559,29 36.25,29 C35.5596441,29 35,28.4403559 35,27.75 L35,22.25 C35,21.5596441 35.5596441,21 36.25,21 Z" id="形状结合" fill="#000000"></path>
                    <path d="M60,47.5 C60,48.3284271 59.3284271,49 58.5,49 C57.6715729,49 57,48.3284271 57,47.5 L57,47 L15,47 L15,47.5 C15,48.3284271 14.3284271,49 13.5,49 C12.6715729,49 12,48.3284271 12,47.5 L12,44 C12,43.4477153 12.4477153,43 13,43 L59,43 C59.5522847,43 60,43.4477153 60,44 L60,47.5 Z" id="形状结合" fill="#000000"></path>
                </g>
            </g>
        </g>
    </g>
</svg>