<?xml version="1.0" encoding="UTF-8"?>
<svg width="72px" height="72px" viewBox="0 0 72 72" version="1.1" xmlns="http://www.w3.org/2000/svg" xmlns:xlink="http://www.w3.org/1999/xlink">
    <title>Group</title>
    <g id="OSD" stroke="none" stroke-width="1" fill="none" fill-rule="evenodd">
        <g id="osd-显示2" transform="translate(-1675.000000, -599.000000)">
            <g id="OSD-键盘灯关闭" transform="translate(1641.000000, 565.000000)">
                <g id="Group" transform="translate(34.000000, 34.000000)">
                    <rect id="矩形" x="0" y="0" width="72" height="72"></rect>
                    <path d="M59,43 C59.5522847,43 60,43.4477153 60,44 L60,47.5 C60,48.3284271 59.3284271,49 58.5,49 C57.6715729,49 57,48.3284271 57,47.5 L57,47 L53.9491198,47 L49.9491198,43 L59,43 Z M40.0501198,43 L44.0501198,47 L15,47 L15,47.5 C15,48.3284271 14.3284271,49 13.5,49 C12.6715729,49 12,48.3284271 12,47.5 L12,44 C12,43.4477153 12.4477153,43 13,43 L40.0501198,43 Z M71.1782032,26 C71.5233812,26.5978658 71.3185373,27.3623538 70.7206715,27.7075318 L59.0293285,34.4575318 C58.4314627,34.8027097 57.6669747,34.5978658 57.3217968,34 C56.9766188,33.4021342 57.1814627,32.6376462 57.7793285,32.2924682 L69.4706715,25.5424682 C70.0685373,25.1972903 70.8330253,25.4021342 71.1782032,26 Z M2.02932852,25.5424682 L13.7206715,32.2924682 C14.3185373,32.6376462 14.5233812,33.4021342 14.1782032,34 C13.8330253,34.5978658 13.0685373,34.8027097 12.4706715,34.4575318 L0.779328524,27.7075318 C0.181462745,27.3623538 -0.0233811989,26.5978658 0.32179677,26 C0.666974738,25.4021342 1.43146275,25.1972903 2.02932852,25.5424682 Z M56.25,15.0717968 C56.8478658,15.4169747 57.0527097,16.1814627 56.7075318,16.7793285 L49.9575318,28.4706715 C49.6123538,29.0685373 48.8478658,29.2733812 48.25,28.9282032 C47.6521342,28.5830253 47.4472903,27.8185373 47.7924682,27.2206715 L54.5424682,15.5293285 C54.8876462,14.9314627 55.6521342,14.7266188 56.25,15.0717968 Z M18.4751198,21.425 L24.875047,27.8244108 C24.8821154,28.2634384 24.6572285,28.6930898 24.25,28.9282032 C23.6521342,29.2733812 22.8876462,29.0685373 22.5424682,28.4706715 L18.4751198,21.425 Z M36.25,11 C36.9403559,11 37.5,11.5596441 37.5,12.25 L37.5,26.75 C37.5,27.4403559 36.9403559,28 36.25,28 C35.5596441,28 35,27.4403559 35,26.75 L35,12.25 C35,11.5596441 35.5596441,11 36.25,11 Z" id="形状结合" fill="#000000"></path>
                    <path d="M59.0014808,58 C58.7454759,58 58.489471,57.9019972 58.2934672,57.7079916 L8.29250563,7.70654923 C7.90249812,7.31653798 7.90249812,6.68251969 8.29250563,6.29250844 C8.68251313,5.90249719 9.31652532,5.90249719 9.70653282,6.29250844 L59.7074944,56.2939508 C60.0975019,56.683962 60.0975019,57.3179803 59.7074944,57.7079916 C59.5134906,57.9019972 59.2574857,58 59.0014808,58 Z" id="路径" fill="#000000" fill-rule="nonzero"></path>
                </g>
            </g>
        </g>
    </g>
</svg>