<?xml version="1.0" encoding="UTF-8"?>
<svg width="64px" height="64px" viewBox="0 0 64 64" version="1.1" xmlns="http://www.w3.org/2000/svg" xmlns:xlink="http://www.w3.org/1999/xlink">
    <!-- Generator: Sketch 45.2 (43514) - http://www.bohemiancoding.com/sketch -->
    <title>OSD_only2_active</title>
    <desc>Created with Sketch.</desc>
    <defs></defs>
    <g id="Page-1" stroke="none" stroke-width="1" fill="none" fill-rule="evenodd">
        <g id="OSD_only2_active" fill-rule="nonzero" fill="#2CA7F8">
            <path d="M10.7692308,16 L53.2307692,16 C54.4513528,16 55,16.5704721 55,17.7777778 L55,46.2222222 C55,47.4172635 54.4384551,48 53.2307692,48 L10.7692308,48 C9.5486472,48 9,47.4295279 9,46.2222222 L9,17.7777778 C9,16.5827365 9.56154491,16 10.7692308,16 Z M38.254786,38.1575 L29.483202,38.1575 C29.7271972,37.7491646 30.0362531,37.3429187 30.4103791,36.93875 C30.7845051,36.5345813 31.6303425,35.765839 32.9479167,34.6325 C34.5257524,33.2658265 35.6542133,32.1908373 36.3333333,31.4075 C37.0124533,30.6241628 37.4984032,29.8783369 37.7911974,29.17 C38.0839917,28.4616631 38.2303866,27.740837 38.2303866,27.0075 C38.2303866,25.5658261 37.730204,24.3575049 36.7298236,23.3825 C35.7294432,22.4074951 34.3712235,21.92 32.6551239,21.92 C30.9552905,21.92 29.6011374,22.3720788 28.5926239,23.27625 C27.5841103,24.1804212 27.0025971,25.4949914 26.8480668,27.22 L29.1050113,27.4575 C29.1131444,26.3074943 29.4344,25.4075033 30.0687875,24.7575 C30.7031751,24.1074968 31.5490125,23.7825 32.6063251,23.7825 C33.6067055,23.7825 34.4179774,24.0887469 35.0401652,24.70125 C35.662353,25.3137531 35.9734422,26.0658289 35.9734422,26.9575 C35.9734422,27.8075043 35.631854,28.7095786 34.9486674,29.66375 C34.2654808,30.6179214 32.951993,31.9116585 31.0081644,33.545 C29.7556556,34.5950053 28.7979888,35.519996 28.1351351,36.32 C27.4722815,37.120004 26.9903982,37.9324959 26.6894707,38.7575 C26.5024077,39.2575025 26.4170107,39.7783306 26.433277,40.32 L38.254786,40.32 L38.254786,38.1575 Z" id="Combined-Shape"></path>
        </g>
    </g>
</svg>