<?xml version="1.0" encoding="UTF-8"?>
<svg width="64px" height="64px" viewBox="0 0 64 64" version="1.1" xmlns="http://www.w3.org/2000/svg" xmlns:xlink="http://www.w3.org/1999/xlink">
    <!-- Generator: Sketch 47.1 (45422) - http://www.bohemiancoding.com/sketch -->
    <title>OSD_copy_mode</title>
    <desc>Created with Sketch.</desc>
    <defs></defs>
    <g id="Page-1" stroke="none" stroke-width="1" fill="none" fill-rule="evenodd" opacity="0.900000036">
        <g id="OSD_copy_mode" fill="#000000">
            <path d="M30,25 L9,25 C7.52897727,25 7,25.5405806 7,27 L7,41 C7,42.4594194 7.52897727,43 9,43 L30,43 C31.4710227,43 32,42.4594194 32,41 L32,27 C32,25.5405806 31.5164773,25.0017419 30,25 Z M30,27 L30,41 L9,41 L9,27 L30,27 Z M19,37 L26,37 L26,30 C21.570913,30.0188694 19.0295631,33.1414818 19,37 Z M21,46 L17,46 L5,46 L5,48 L33,48 L33,46 L21,46 Z M21,16 L21,25 L23,25 L23,16 L56,16 L56,41 L34,41 C34,41 34,43 33,43 L56,43 C57.5300448,42.9921923 58,42.4138654 58,41 L58,16 C58,14.4528462 57.5300448,14 56,14 L23,14 C21.4705075,14 21,14.4528462 21,16 Z M42,38 L53,38 L53,27 C46.0400061,27.0296519 42.0464563,31.9366143 42,38 Z" id="copy"></path>
        </g>
    </g>
</svg>