<svg xmlns="http://www.w3.org/2000/svg" width="64" height="64" viewBox="0 0 64 64">
  <path fill="#FFF" d="M53.2307692,16 C54.4513528,16 55,16.5704721 55,17.7777778 L55,46.2222222 C55,47.4172635 54.4384551,48 53.2307692,48 L10.7692308,48 C9.5486472,48 9,47.4295279 9,46.2222222 L9,17.7777778 C9,16.6424886 9.50679428,16.0598044 10.5929134,16.0043742 L10.7692308,16 L53.2307692,16 Z M32.0277765,21.3333333 C31.3962937,21.3333333 30.803862,21.4402761 30.2504633,21.654167 C29.6970645,21.8680578 29.2030886,22.1820966 28.7685172,22.5962963 C28.3339484,23.010496 27.9910509,23.5621869 27.7398142,24.2513899 C27.48858,24.9405902 27.362963,25.7265384 27.362963,26.6092606 C27.362963,27.7839576 27.5038568,28.8211373 27.7856472,29.7208337 C28.0674401,30.62053 28.435799,31.3317864 28.890742,31.854629 C29.3388902,32.3638921 29.562963,32.8052454 29.562963,33.1787044 C29.562963,33.7287057 29.4186743,34.2583301 29.1300916,34.7675932 C28.8415116,35.2768538 28.4358042,35.6638869 27.9129643,35.9287031 C27.4987646,36.1391991 26.8469179,36.4023125 25.9574087,36.7180565 C25.0678969,37.0337979 24.2700641,37.3342573 23.563889,37.6194451 C22.8577126,37.9046303 22.3858037,38.1660489 22.1481481,38.4037037 C21.9037024,38.6481495 21.7135809,38.9927447 21.5777778,39.4375001 C21.4419746,39.8822552 21.367284,40.2047829 21.3537037,40.4050925 C21.3401234,40.6054022 21.3333333,40.7666661 21.3333333,40.8888889 L21.3333333,40.8888889 L42.7120377,40.8888889 L42.6814815,40.4509258 C42.6679021,40.1589491 42.5932103,39.8058662 42.4574061,39.3916665 C42.3216045,38.9774671 42.1314828,38.6481495 41.8870357,38.4037037 C41.649381,38.1660489 41.180869,37.9046303 40.4814815,37.6194451 C39.782094,37.3342573 38.9876587,37.0337979 38.0981495,36.7180565 C37.2086376,36.4023125 36.556791,36.1391991 36.1425939,35.9287031 C35.6197513,35.6638869 35.2123465,35.2751564 34.9203717,34.762501 C34.6283942,34.249843 34.4824081,33.721916 34.4824081,33.1787044 C34.4824081,32.8120351 34.7098731,32.3706818 35.1648161,31.854629 C35.6197566,31.3317864 35.986418,30.62053 36.2648135,29.7208337 C36.5432116,28.8211373 36.6824081,27.7839576 36.6824081,26.6092606 C36.6824081,25.7265384 36.556791,24.9405902 36.3055569,24.2513899 C36.0543201,23.5621869 35.7097252,23.010496 35.2717589,22.5962963 C34.8337953,22.1820966 34.3415142,21.8680578 33.7949077,21.654167 C33.2482987,21.4402761 32.6592619,21.3333333 32.0277765,21.3333333 Z"/>
</svg>
