<svg xmlns="http://www.w3.org/2000/svg" width="64" height="64" viewBox="0 0 64 64">
  <g fill="none" fill-rule="evenodd">
    <path fill="#191919" d="M30,12 L30,8 L33,8 L33,12 L42,12 L42,8 L21,8 L21,12 L30,12 Z M42,15 L21,15 L21,22 L42,22 L42,15 Z M20.3478261,5 L42.6521739,5 C43.9488425,5 45,5.8954305 45,7 L45,23 C45,24.1045695 43.9488425,25 42.6521739,25 L20.3478261,25 C19.0511575,25 18,24.1045695 18,23 L18,7 C18,5.8954305 19.0511575,5 20.3478261,5 Z"/>
    <path fill="#000" d="M10.5719349,39.58541 L14.6735875,39.6653928 L14.6963995,51.322321 L13.6152237,50.3847763 C8.80872161,45.5782742 6.26694551,39.7808934 5.9898246,32.9924648 C5.71269814,26.2040297 7.7517695,20.2477181 12.1070975,15.1233499 L14.4142067,17.4304591 C11.8299616,20.5914842 10.2059162,24.1381019 9.54201567,28.070423 C8.87811793,32.0027378 9.2214212,35.841033 10.5719349,39.58541 Z M53.4280651,24.41459 L49.3264125,24.3346072 L49.3036005,12.677679 L50.3847763,13.6152237 C55.1912784,18.4217258 57.7330549,24.2191061 58.0101754,31.0075352 C58.2873005,37.7959689 56.2482293,43.7522807 51.8929025,48.8766501 L49.5857933,46.5695409 C52.1700397,43.4085172 53.794082,39.8618963 54.4579843,35.929577 C55.1218821,31.9972622 54.7785788,28.158967 53.4280651,24.41459 Z" opacity=".9"/>
    <path fill="#191919" d="M29.898278,46 L26.3646241,49 L21,49 L21,53.5544564 L18,56.1013952 L18,41 C18,39.8954305 19.0511575,39 20.3478261,39 L38.1434703,39 L34.6098164,42 L21,42 L21,46 L29.898278,46 Z M42,43.596564 L45,41.0496252 L45,57 C45,58.1045695 43.9488425,59 42.6521739,59 L23.8565297,59 L27.3901836,56 L42,56 L42,49 L35.6353759,49 L39.1690297,46 L42,46 L42,43.596564 Z M33,43.3667013 L30,45.9136401 L30,42 L33,42 L33,43.3667013 Z M19.365772,60.5428511 L17.4241819,58.2558819 L42.8226131,36.6931322 L44.7642032,38.9801013 L19.365772,60.5428511 Z"/>
  </g>
</svg>
