<?xml version="1.0" encoding="UTF-8"?>
<svg width="64px" height="64px" viewBox="0 0 64 64" version="1.1" xmlns="http://www.w3.org/2000/svg" xmlns:xlink="http://www.w3.org/1999/xlink">
    <!-- Generator: Sketch 45.2 (43514) - http://www.bohemiancoding.com/sketch -->
    <title>OSD_trackpad_on</title>
    <desc>Created with Sketch.</desc>
    <defs></defs>
    <g id="Page-1" stroke="none" stroke-width="1" fill="none" fill-rule="evenodd" opacity="0.900000036">
        <g id="OSD_trackpad_on" fill-rule="nonzero" fill="#000000">
            <path d="M31,24 L31,14 L34,14 L34,24 L55,24 L55,16.996524 C55,15.3387083 53.6566554,14 51.9995558,14 L12.0004442,14 C10.3517805,14 9,15.3415895 9,16.996524 L9,48.003476 C9,49.6612917 10.3433446,51 12.0004442,51 L51.9995558,51 C53.6482195,51 55,49.6584105 55,48.003476 L55,27 L9,27 L9,24 L31,24 Z M6,17.0015877 C6,13.6870024 8.68624675,11 11.9904392,11 L52.0095608,11 C55.317989,11 58,13.6898426 58,17.0015877 L58,47.9984123 C58,51.3129976 55.3137533,54 52.0095608,54 L11.9904392,54 C8.68201099,54 6,51.3101574 6,47.9984123 L6,17.0015877 Z" id="Combined-Shape"></path>
        </g>
    </g>
</svg>