<svg xmlns="http://www.w3.org/2000/svg" width="64" height="64" viewBox="0 0 64 64">
  <path fill="#FFF" fill-rule="evenodd" d="M0,3.002615 C0,1.34431651 1.33483887,0 2.99956092,0 L51.0004391,0 C52.6570508,0 54,1.33389258 54,3.002615 L54,44.997385 C54,46.6556835 52.6651611,48 51.0004391,48 L2.99956092,48 C1.34294917,48 0,46.6661074 0,44.997385 L0,3.002615 Z M3,9 L3,45 L51,45 L51,9 L3,9 Z M37,3 L37,6 L40,6 L40,3 L37,3 Z M42,3 L42,6 L45,6 L45,3 L42,3 Z M47,3 L47,6 L50,6 L50,3 L47,3 Z M15.1271115,24.7245283 L23.1306274,33.8387363 L40.9674595,16.9119466 L43.0325405,19.0880534 L22.9338887,38.1612637 L12.8728885,26.7040431 L15.1271115,24.7245283 Z" opacity=".9" transform="translate(5 8)"/>
</svg>
