<svg xmlns="http://www.w3.org/2000/svg" width="64" height="64" viewBox="0 0 64 64">
  <path fill="#FFF" d="M54.6690476,8 L56.7903679,10.1213203 L10.1213203,56.7903679 L8,54.6690476 L54.6690476,8 Z M58,17.0015877 L58,47.9984123 C58,51.3129976 55.3137533,54 52.0095608,54 L17.041,53.999 L20.041,50.999 L51.9995558,51 C53.5893386,51 54.9030656,49.7525271 54.9948754,48.1795446 L55,48.003476 L55,26.999 L44.041,26.999 L47.041,23.999 L55,23.999 L55,16.996524 C55,16.7059008 54.9587166,16.4250844 54.8816967,16.1595677 L57.1390606,13.9012468 C57.685507,14.8064124 58,15.8675379 58,17.0015877 Z M47.314,10.999 L44.314,13.999 L34,14 L34,23.999 L34.314,23.999 L31.314,26.999 L9,27 L9,48.003476 C9,48.392501 9.07397243,48.763954 9.20861313,49.10466 L6.99823439,51.3155748 C6.3674992,50.3649956 6,49.2243117 6,47.9984123 L6,17.0015877 C6,13.6870024 8.68624675,11 11.9904392,11 L47.314,10.999 Z M31,14 L12.0004442,14 C10.3517805,14 9,15.3415895 9,16.996524 L9,16.996524 L9,24 L31,23.999 L31,14 Z" opacity=".9"/>
</svg>
