<?xml version="1.0" encoding="UTF-8"?>
<svg width="64px" height="64px" viewBox="0 0 64 64" version="1.1" xmlns="http://www.w3.org/2000/svg" xmlns:xlink="http://www.w3.org/1999/xlink">
    <!-- Generator: Sketch 45.2 (43514) - http://www.bohemiancoding.com/sketch -->
    <title>OSD_num_lock_on</title>
    <desc>Created with Sketch.</desc>
    <defs></defs>
    <g id="Page-1" stroke="none" stroke-width="1" fill="none" fill-rule="evenodd" opacity="0.900000036">
        <g id="OSD_num_lock_on" fill-rule="nonzero" fill="#000000">
            <path d="M21.4922605,18 L18.4922605,18 L18.4922605,15.1483636 C18.4922605,7.64089351 24.5863709,1.5 32.0480744,1.5 C39.5164124,1.5 45.6119256,7.63948429 45.6119256,15.1483636 L45.6119256,18 L42.6119256,18 L42.6119256,15.1483636 C42.6119256,9.29153069 37.8547119,4.5 32.0480744,4.5 C26.2483826,4.5 21.4922605,9.29263376 21.4922605,15.1483636 L21.4922605,18 Z M8,24.0015877 C8,20.6870024 10.6835413,18 14.0063866,18 L49.9936134,18 C53.3108491,18 56,20.6898426 56,24.0015877 L56,54.9984123 C56,58.3129976 53.3164587,61 49.9936134,61 L14.0063866,61 C10.6891509,61 8,58.3101574 8,54.9984123 L8,24.0015877 Z M11,23.996524 L11,55.003476 C11,56.6612917 12.3447939,58 14.0036812,58 L49.9963188,58 C51.6501537,58 53,56.6584105 53,55.003476 L53,23.996524 C53,22.3387083 51.6552061,21 49.9963188,21 L14.0036812,21 C12.3498463,21 11,22.3415895 11,23.996524 Z M32,29 L35,29 L35,49 L32,49 L32,32.6694678 L28,35.1904762 L28,32.1652661 C28,32.1652661 31.346049,29.7282913 32,29 Z" id="Combined-Shape"></path>
        </g>
    </g>
</svg>