<?xml version="1.0" encoding="UTF-8"?>
<svg width="100px" height="100px" viewBox="0 0 100 100" version="1.1" xmlns="http://www.w3.org/2000/svg" xmlns:xlink="http://www.w3.org/1999/xlink">
    <!-- Generator: Sketch 46.1 (44463) - http://www.bohemiancoding.com/sketch -->
    <title>deepin_press</title>
    <desc>Created with Sketch.</desc>
    <defs>
        <linearGradient x1="50%" y1="0%" x2="50%" y2="98.0707908%" id="linearGradient-1">
            <stop stop-color="#009AFF" offset="0%"></stop>
            <stop stop-color="#2CA7F8" offset="100%"></stop>
        </linearGradient>
    </defs>
    <g id="Page-1" stroke="none" stroke-width="1" fill="none" fill-rule="evenodd">
        <g id="deepin_press" fill="url(#linearGradient-1)">
            <path d="M77.4456476,50.0005052 L78.4843637,50.0005052 L80,50.0005052 C79.9989896,66.5694414 66.5694414,79.9989896 50.0005052,80 C33.431569,79.9989896 20.0010104,66.5694414 20,50.0005052 C20.0010104,33.431569 33.431569,20.0010104 50.0005052,20 C66.5694414,20.0010104 79.9989896,33.431569 80,50.0005052 L76.9687274,50.0005052 C76.9687274,42.8340536 74.1792369,36.332968 69.6229864,31.5002071 C68.4570013,31.5693731 67.153051,31.6046991 65.8025294,31.559253 C65.8025294,31.559253 58.7588623,31.8947138 54.809114,33.9074788 C54.809114,33.9074788 51.862717,35.2493222 48.9183409,37.5237871 C48.9193513,37.5237871 48.2938987,37.8430811 48.3242114,39.0151732 C48.3514929,40.184234 47.7240195,43.3003823 45.6385039,45.1262188 C45.6385039,45.1262188 44.150149,45.9092976 44.8938213,47.0278372 C44.8938213,47.0278372 45.8991933,48.5182129 47.3158081,46.9530658 C47.3158081,46.9530658 50.9684916,43.1134538 51.1917954,36.9276368 C51.1917954,36.9276368 52.3477207,35.9202438 54.1735572,35.6221687 C54.1735572,35.6221687 54.5080076,44.9029151 50.0005052,49.5619811 C50.0005052,49.5619811 45.7122649,54.3321938 44.3340462,47.2511409 C44.3340462,47.2511409 42.6567421,40.5045385 51.3049629,32.4918745 C51.3049629,32.4918745 55.9850755,27.7192437 59.4234752,24.723131 C63.0793867,26.086764 66.3592074,28.2214173 69.0702413,30.9307691 C69.2572492,31.1178931 69.4415191,31.3077269 69.6229864,31.5002071 Z M46.4012664,76.7309765 C53.1195137,74.3691266 60.4710538,69.58838 64.1565484,62.3387952 C64.1565484,62.3387952 72.5481215,48.5919739 58.3496405,36.2193294 C58.3496405,36.2193294 62.0013136,41.9585389 62.1134706,47.7351341 C62.1134706,47.7351341 62.9773833,55.3315033 56.2610936,60.0734242 C47.1631005,66.4973284 33.4030189,64.3630863 26.1312422,62.5653816 C27.4005208,64.9707862 29.0232028,67.1614907 30.9307691,69.0702413 C35.0158851,73.1528226 40.3924829,75.9304987 46.4012664,76.7309765 Z M27.9189414,34.5142201 C29.857565,42.5834764 33.3122014,49.2016708 35.6878463,51.7606642 C39.0798404,55.4133477 44.0743672,59.2903454 50.4844984,57.6878126 C56.89564,56.0842694 58.2000977,49.0769775 58.2000977,49.0769775 C59.6167124,43.1134538 57.6009161,36.0324009 57.4917903,35.8828582 C57.3826645,35.7333154 56.4207406,35.5665954 56.4207406,35.5665954 C57.4261127,44.9584884 54.956636,49.1133528 54.9556255,49.1133528 C51.3605362,56.476314 46.0861218,54.1998282 46.0861218,54.1998282 C40.217578,51.2089726 40.4944342,42.777993 40.4944342,42.777993 C40.3327174,37.4864202 42.2168864,29.0813361 45.870293,23.3456135 C40.0758729,24.2358018 34.8951773,26.9688208 30.9307691,30.9307691 C29.8270245,32.035199 28.8186575,33.2340253 27.9189414,34.5142201 Z" id="Fill-88"></path>
        </g>
    </g>
</svg>