<?xml version="1.0" encoding="UTF-8"?>
<svg width="100px" height="100px" viewBox="0 0 100 100" version="1.1" xmlns="http://www.w3.org/2000/svg" xmlns:xlink="http://www.w3.org/1999/xlink">
    <!-- Generator: Sketch 46.1 (44463) - http://www.bohemiancoding.com/sketch -->
    <title>enlightenment_normal</title>
    <desc>Created with Sketch.</desc>
    <defs></defs>
    <g id="Page-1" stroke="none" stroke-width="1" fill="none" fill-rule="evenodd">
        <g id="enlightenment_normal" fill="#FFFFFF">
            <path d="M78.5245902,50 L77.0491803,50 C77.0481967,57.4744262 74.0236066,64.2268852 69.1262295,69.1262295 C64.2268852,74.0236066 57.4744262,77.0481967 50,77.0491803 C42.5255738,77.0481967 35.7731148,74.0236066 30.8737705,69.1262295 C25.9763934,64.2268852 22.9518033,57.4744262 22.9508197,50 C22.9518033,42.5255738 25.9763934,35.7731148 30.8737705,30.8737705 C35.7731148,25.9763934 42.5255738,22.9518033 50,22.9508197 C57.4744262,22.9518033 64.2268852,25.9763934 69.1262295,30.8737705 C74.0236066,35.7731148 77.0481967,42.5255738 77.0491803,50 L80,50 C79.9990164,33.4311475 66.5688525,20.0009836 50,20 C33.4311475,20.0009836 20.0009836,33.4311475 20,50 C20.0009836,66.5688525 33.4311475,79.9990164 50,80 C66.5688525,79.9990164 79.9990164,66.5688525 80,50 L78.5245902,50 Z M49.9714754,29.3993443 C50.1701639,29.7337705 50.0403279,30.2855738 50.142623,30.7154098 C50.4081967,31.824918 50.664918,34.1540984 51.8019672,34.2632787 C51.9032787,34.1639344 52.0213115,34.1767213 52.1462295,34.0911475 C52.695082,33.7154098 53.1839344,32.8390164 53.4622951,32.202623 C53.715082,31.6252459 53.9836066,30.2816393 54.32,29.8567213 C54.204918,32.0167213 53.8813115,33.4183607 54.892459,34.9498361 C56.2636066,34.4442623 56.807541,33.5157377 57.5245902,32.3747541 C57.7478689,32.0206557 58.0862295,31.6793443 58.2121311,31.2298361 L58.2691803,31.2298361 L58.2691803,31.4590164 C58.1068852,31.6616393 58.1314754,31.9144262 58.04,32.202623 C57.8127869,32.9147541 56.7918033,36.2590164 58.3262295,36.2659016 C58.6114754,36.0662295 59.004918,36.047541 59.2990164,35.8655738 C59.6088525,35.6737705 59.9137705,35.4042623 60.2147541,35.1790164 C60.8590164,34.695082 61.2613115,33.855082 61.9311475,33.4045902 L61.9311475,33.5186885 C61.3990164,34.0803279 60.6809836,35.8980328 60.4439344,36.7813115 C60.3327869,37.1934426 60.3219672,37.977377 60.615082,38.1544262 C61.0154098,38.4170492 61.7934426,38.0885246 62.0462295,37.9822951 C62.7859016,37.6714754 63.4301639,37.3852459 64.0488525,36.952459 C64.4088525,36.7006557 64.7334426,36.3662295 65.1357377,36.1518033 L65.1357377,36.2659016 C64.5298361,36.6770492 63.2088525,38.507541 62.9039344,39.2413115 C62.7731148,39.5570492 62.8390164,40.3537705 62.6747541,40.6154098 L62.6747541,40.557377 C62.1219672,40.035082 61.7668852,39.2777049 61.187541,38.7839344 C59.5852459,37.4177049 57.9170492,36.1616393 55.8081967,35.2931148 C54.8422951,34.8947541 53.78,34.7019672 52.7177049,34.4344262 C52.0754098,34.2731148 50.4790164,34.1570492 49.9144262,34.2632787 L48.8265574,34.2632787 C48.1213115,34.3586885 47.415082,34.4540984 46.7098361,34.5495082 C44.7121311,35.1140984 42.8727869,35.7563934 41.3304918,36.7813115 C40.7118033,37.192459 40.1904918,37.7747541 39.6131148,38.2114754 C38.7740984,38.8468852 37.8140984,39.707541 37.3242623,40.672459 L37.2672131,40.672459 L37.2672131,40.557377 C37.5593443,40.1059016 37.1177049,39.3347541 36.9809836,39.0701639 C36.6278689,38.387541 36.2747541,37.8259016 35.8370492,37.2386885 C35.5577049,36.864918 35.0383607,36.5540984 34.8642623,36.0937705 L34.9213115,36.0937705 C35.157377,36.4232787 35.6127869,36.6081967 35.9511475,36.8383607 C36.8393443,37.4422951 37.9547541,38.4436066 39.4990164,38.1544262 L39.5560656,38.097377 C39.7842623,36.5393443 39.1252459,35.2518033 38.5262295,34.1481967 C38.3836066,33.8855738 38.1642623,33.6691803 38.0678689,33.347541 L38.1259016,33.347541 C38.7436066,34.2868852 40.7039344,36.2540984 42.1881967,36.2659016 C43.0340984,34.542623 42.0239344,32.8665574 41.7878689,31.2868852 L41.844918,31.2868852 L41.844918,31.344918 C42.1252459,31.6468852 42.2491803,32.0737705 42.4744262,32.4318033 C42.9386885,33.1665574 43.492459,33.9268852 44.1918033,34.4344262 C44.3865574,34.5760656 44.8793443,35.0540984 45.1645902,34.8927869 C46.0252459,34.3006557 45.897377,32.4613115 45.8511475,31.1157377 C45.8393443,30.7685246 45.6308197,30.1291803 45.7940984,29.8567213 C45.9131148,30.9367213 46.8996721,33.0062295 47.5104918,33.6337705 C47.7770492,33.9072131 47.9452459,34.197377 48.4262295,34.2632787 C48.6170492,34.072459 48.8078689,33.8816393 48.9986885,33.6908197 C49.5908197,32.7878689 49.9370492,30.8137705 49.9714754,29.3993443 Z M41.7308197,31.1727869 C41.7770492,31.2308197 41.7514754,31.1885246 41.7878689,31.2868852 L41.7308197,31.2868852 L41.7308197,31.1727869 Z M49.1698361,35.6363934 C57.2029508,35.4770492 62.0855738,40.0901639 63.9337705,46.1088525 C65.1495082,50.0659016 64.0901639,54.6829508 62.4465574,57.324918 C62.0993443,57.882623 61.3144262,59.4229508 60.6721311,59.5567213 C54.6563934,55.5278689 48.6829508,51.527541 41.7878689,46.9095082 C42.1006557,46.5032787 42.2039344,45.9101639 42.4744262,45.4793443 C43.4147541,43.9813115 44.8518033,42.62 46.5377049,41.8744262 C47.115082,41.6186885 47.7937705,41.4721311 48.4262295,41.3019672 C49.5111475,41.0088525 51.1301639,41.1908197 52.0311475,41.4731148 C54.9396721,42.3859016 56.9383607,43.7639344 58.0970492,46.395082 C58.5298361,47.3777049 59.0688525,49.4334426 58.7265574,50.9157377 C58.6527869,51.2383607 58.2121311,53.032459 58.2121311,53.032459 C58.5003279,53.3285246 59.6196721,54.1527869 60.042623,54.2344262 C60.2501639,53.3698361 60.5688525,52.4580328 60.7872131,51.4881967 C61.0596721,50.2744262 60.8236066,48.56 60.5580328,47.5970492 C59.6590164,44.3383607 58.3006557,42.3091803 55.7511475,40.7295082 C54.702623,40.0803279 53.4121311,39.6445902 52.0881967,39.2983607 C51.4055738,39.1203279 50.7190164,39.1272131 49.9144262,39.1272131 C46.557377,39.1272131 44.4219672,40.3518033 42.6465574,41.9314754 C42.2659016,42.2698361 41.8006557,42.6081967 41.5016393,43.0183607 C40.6980328,44.1219672 39.9603279,45.3642623 39.4990164,46.7954098 C38.844918,48.8236066 38.992459,51.7036066 39.6711475,53.5478689 C40.9832787,57.1154098 43.4098361,59.5970492 47.2242623,60.6436066 C49.1934426,61.1845902 52.307541,60.8186885 53.862623,60.1862295 C54.4921311,59.9295082 55.1786885,59.4416393 55.8652459,59.327541 C56.2006557,60.44 57.2127869,61.2622951 57.582623,62.3609836 L57.5245902,62.3609836 C57.0308197,62.8154098 56.2370492,62.992459 55.5790164,63.2767213 C52.8681967,64.4452459 48.92,64.9281967 45.6790164,63.8481967 C40.94,62.2695082 37.7934426,58.9193443 36.237377,54.1203279 C35.6127869,52.1934426 35.3265574,49.067541 35.9511475,46.852459 C37.3213115,41.9934426 40.035082,38.6531148 44.3629508,36.7813115 C45.384918,36.3386885 46.5229508,36.0967213 47.682623,35.8085246 C48.0809836,35.7091803 48.8757377,35.8213115 49.1698361,35.6363934 Z M37.3242623,59.327541 C37.977377,59.9383607 38.3806557,60.8442623 39.0986885,61.3881967 C39.6396721,61.797377 40.0980328,62.3177049 40.6429508,62.7042623 C41.7721311,63.5019672 43.0754098,64.2101639 44.42,64.7639344 C45.3514754,65.147541 46.3783607,65.3157377 47.3963934,65.5655738 C47.72,65.5842623 48.0445902,65.6029508 48.3691803,65.622623 C49.4019672,65.8478689 51.7645902,65.8163934 52.7757377,65.5655738 C54.1518033,65.2232787 55.4678689,64.8898361 56.6668852,64.3636066 C58.2613115,63.6632787 59.8478689,62.5518033 61.0154098,61.3881967 C61.4088525,60.9957377 61.8859016,60.5708197 62.217377,60.1291803 C62.4072131,59.8754098 62.5321311,59.5685246 62.7898361,59.3845902 C62.7622951,61.1363934 63.702623,61.9901639 64.4491803,62.9895082 C64.6527869,63.2629508 65.0068852,63.444918 65.1357377,63.7911475 L65.0216393,63.7911475 C64.7570492,63.4213115 64.2603279,63.2452459 63.8767213,62.9895082 C63.0318033,62.4278689 62.032459,61.5691803 60.5580328,61.8455738 L60.5580328,61.9606557 C60.3229508,62.2793443 60.4429508,63.1340984 60.5580328,63.504918 C60.7537705,64.1403279 61.0213115,64.8927869 61.3586885,65.4504918 C61.5701639,65.7996721 61.8632787,66.167541 61.9881967,66.5954098 L61.9311475,66.5954098 C61.3222951,65.6718033 59.3865574,63.7459016 57.9259016,63.7340984 C57.0121311,65.2665574 58.0970492,67.2445902 58.3262295,68.7701639 L58.2691803,68.7701639 L58.2691803,68.655082 C57.9898361,68.42 57.897377,68 57.6967213,67.6822951 C57.2245902,66.9337705 56.6481967,66.0691803 55.9222951,65.5655738 C55.722623,65.4268852 55.2357377,64.944918 54.9495082,65.1072131 C53.8567213,65.8291803 54.1931148,68.6295082 54.3770492,70.1432787 L54.32,70.1432787 L54.32,70.0291803 C54.0829508,69.7055738 54.0839344,69.2265574 53.9196721,68.8272131 C53.5262295,67.8681967 52.7895082,65.8272131 51.6308197,65.7367213 C51.5108197,65.8980328 51.2885246,65.9786885 51.1734426,66.1370492 C50.78,66.6770492 50.5636066,67.4767213 50.3718033,68.1977049 C50.2577049,68.9983607 50.142623,69.8 50.0285246,70.6006557 C50.0078689,69.1331148 49.6547541,67.4393443 49.0557377,66.4813115 C48.8501639,66.1518033 48.7616393,65.8183607 48.3121311,65.7367213 C48.1695082,65.8754098 47.9609836,65.9019672 47.7967213,66.0229508 C47.4170492,66.3022951 46.8554098,67.2731148 46.6518033,67.7403279 C46.4,68.3196721 46.1304918,69.6603279 45.7940984,70.0862295 C45.8403279,67.944918 46.1855738,66.5511475 45.2216393,65.0501639 C43.8170492,65.5478689 43.2603279,66.5236066 42.5314754,67.6822951 C42.3091803,68.0363934 41.9708197,68.3777049 41.844918,68.8272131 L41.7878689,68.8272131 L41.7878689,68.655082 C41.9757377,68.42 41.9668852,68.0619672 42.0740984,67.7403279 C42.3140984,67.0213115 43.2740984,63.7468852 41.7878689,63.7340984 C41.5881967,63.8678689 41.3295082,63.8580328 41.1013115,63.9632787 C40.7029508,64.1452459 40.3065574,64.5003279 39.9563934,64.7639344 C39.3465574,65.3934426 38.7357377,66.0229508 38.1259016,66.652459 L38.1259016,66.5383607 C38.6432787,65.9963934 39.3652459,64.2259016 39.6131148,63.3908197 C39.7409836,62.9619672 39.7872131,62.2114754 39.5560656,61.902623 C39.2472131,61.6272131 38.3295082,61.8288525 38.0108197,61.9606557 C37.192459,62.2970492 36.4331148,62.7996721 35.7219672,63.2767213 C35.4514754,63.4577049 35.262623,63.7291803 34.9213115,63.8481967 L34.9213115,63.7911475 L34.9783607,63.7911475 C35.8154098,62.4947541 37.5563934,61.4639344 37.3242623,59.327541 Z M61.9881967,66.5954098 C62.0344262,66.6534426 62.0088525,66.6111475 62.0462295,66.7095082 L61.9881967,66.7095082 L61.9881967,66.5954098 Z M58.3262295,68.7701639 C58.372459,68.8281967 58.3468852,68.7859016 58.3832787,68.8842623 L58.3262295,68.8842623 L58.3262295,68.7701639 Z" id="Fill-73"></path>
        </g>
    </g>
</svg>