<?xml version="1.0" encoding="UTF-8"?>
<svg width="100px" height="100px" viewBox="0 0 100 100" version="1.1" xmlns="http://www.w3.org/2000/svg" xmlns:xlink="http://www.w3.org/1999/xlink">
    <!-- Generator: Sketch 46.1 (44463) - http://www.bohemiancoding.com/sketch -->
    <title>fluxbox_press</title>
    <desc>Created with Sketch.</desc>
    <defs>
        <linearGradient x1="50%" y1="0%" x2="50%" y2="98.0707908%" id="linearGradient-1">
            <stop stop-color="#009AFF" offset="0%"></stop>
            <stop stop-color="#2CA7F8" offset="100%"></stop>
        </linearGradient>
    </defs>
    <g id="Page-1" stroke="none" stroke-width="1" fill="none" fill-rule="evenodd">
        <g id="fluxbox_press" fill="url(#linearGradient-1)">
            <path d="M78.5245902,50 L77.0491803,50 C77.0481967,57.4744262 74.0236066,64.2268852 69.1262295,69.1262295 C64.2268852,74.0236066 57.4744262,77.0481967 50,77.0491803 C42.5255738,77.0481967 35.7731148,74.0236066 30.8737705,69.1262295 C25.9763934,64.2268852 22.9518033,57.4744262 22.9508197,50 C22.9518033,42.5255738 25.9763934,35.7731148 30.8737705,30.8737705 C35.7731148,25.9763934 42.5255738,22.9518033 50,22.9508197 C57.4744262,22.9518033 64.2268852,25.9763934 69.1262295,30.8737705 C74.0236066,35.7731148 77.0481967,42.5255738 77.0491803,50 L80,50 C79.9990164,33.4311475 66.5688525,20.0009836 50,20 C33.4311475,20.0009836 20.0009836,33.4311475 20,50 C20.0009836,66.5688525 33.4311475,79.9990164 50,80 C66.5688525,79.9990164 79.9990164,66.5688525 80,50 L78.5245902,50 Z M64.4245902,36.3642623 C67.455082,36.3681967 70.242623,36.5895082 72.5698361,37.0203279 C47.5154098,37.3881967 36.467541,48.9740984 36.467541,48.9740984 C52.6488525,39.7183607 72.6308197,43.1531148 72.6308197,43.1521311 C46.764918,44.0393443 35.5911475,54.5619672 31.977377,61.2613115 C47.4377049,65.3363934 53.84,56.3363934 54.9819672,53.5095082 C55.1019672,59.6531148 46.4698361,70.4481967 31.3095082,62.6452459 C30.6937705,64.1078689 30.4842623,65.2931148 30.5855738,66.0131148 C29.3127869,64.4295082 28.8642623,62.6767213 28.764918,61.192459 C27.7429508,60.5540984 26.6963934,59.8360656 25.6213115,59.027541 C26.6983607,59.4937705 27.7380328,59.8990164 28.7462295,60.2560656 C28.7816393,58.7757377 29.1140984,57.7380328 29.1140984,57.7380328 C24.6662295,42.74 48.0593443,36.3416393 64.4245902,36.3642623 Z M35.1819672,58.4137705 L36.2855738,56.8813115 L38.4308197,56.8203279 L37.5111475,58.3527869 L35.1819672,58.4137705 Z" id="lxde_normal"></path>
        </g>
    </g>
</svg>