<?xml version="1.0" encoding="UTF-8"?>
<svg width="100px" height="100px" viewBox="0 0 100 100" version="1.1" xmlns="http://www.w3.org/2000/svg" xmlns:xlink="http://www.w3.org/1999/xlink">
    <!-- Generator: Sketch 46.1 (44463) - http://www.bohemiancoding.com/sketch -->
    <title>gnome_press</title>
    <desc>Created with Sketch.</desc>
    <defs>
        <linearGradient x1="50%" y1="0%" x2="50%" y2="98.0707908%" id="linearGradient-1">
            <stop stop-color="#009AFF" offset="0%"></stop>
            <stop stop-color="#2CA7F8" offset="100%"></stop>
        </linearGradient>
    </defs>
    <g id="Page-1" stroke="none" stroke-width="1" fill="none" fill-rule="evenodd">
        <g id="gnome_press" fill="url(#linearGradient-1)">
            <path d="M53.7003279,43.9045902 C55.4,43.9331148 56.9363934,44.2547541 57.9986885,44.7544262 C59.0609836,45.2531148 59.6137705,45.8757377 59.7504918,46.6645902 C59.9983607,48.0977049 59.2734426,49.2652459 57.892459,50.512459 C56.512459,51.7596721 54.5413115,52.9291803 52.6921311,54.042623 C50.8429508,55.155082 49.1206557,56.1681967 48.1813115,57.5442623 C47.7101639,58.2327869 47.4603279,59.1013115 47.7032787,59.9590164 C47.9452459,60.8177049 48.5845902,61.5711475 49.5603279,62.2940984 C50.8744262,63.2698361 52.3655738,63.4645902 53.5144262,62.8518033 C54.6632787,62.2390164 55.2888525,60.8737705 55.0803279,59.322623 C55.0803279,59.322623 55.0754098,59.3206557 55.16,59.2163934 C55.2445902,59.1131148 55.4354098,58.9409836 55.7177049,58.7914754 C56.2803279,58.4944262 57.1527869,58.2632787 57.9986885,58.1816393 C58.8455738,58.1 59.6659016,58.197377 60.0957377,58.3931148 C60.3101639,58.4914754 60.4203279,58.5790164 60.467541,58.6596721 C60.5147541,58.7403279 60.5403279,58.8416393 60.4940984,59.0836066 C59.7632787,62.8527869 55.6045902,65.9836066 52.2937705,65.9836066 C48.7429508,65.9836066 45.1439344,63.9081967 42.6347541,61.0744262 C40.1245902,58.2406557 38.7888525,54.6878689 39.4232787,51.9190164 C40.0193443,49.3213115 42.0819672,47.2980328 44.8104918,45.9219672 C47.5390164,44.544918 50.867541,43.8583607 53.7003279,43.9045902 Z M62.5104918,31.1678689 C63.3485246,31.1678689 63.8983607,31.3498361 64.2091803,31.5386885 C64.5190164,31.7285246 64.6370492,31.9036066 64.7137705,32.2291803 C64.8652459,32.8783607 64.5504918,34.1334426 63.8108197,35.4131148 C63.0711475,36.6937705 61.9596721,38.004918 60.8118033,38.9698361 C59.664918,39.9337705 58.4747541,40.5081967 57.7872131,40.5081967 C57.0996721,40.5081967 56.7563934,40.1757377 56.4868852,39.3672131 C56.2163934,38.5577049 56.2203279,37.3193443 56.5665574,36.0770492 C57.2580328,33.5914754 59.1583607,31.1678689 62.5104918,31.1678689 Z M50.595082,32.8921311 C51.4016393,32.7937705 51.5590164,32.9678689 51.7636066,33.3967213 C51.9672131,33.8245902 52.0340984,34.6655738 51.8688525,35.5459016 C51.7045902,36.4262295 51.3219672,37.3577049 50.9147541,37.9872131 C50.5055738,38.6167213 50.1032787,38.784918 50.064918,38.7839344 C49.9291803,38.7760656 49.5839344,38.5803279 49.2681967,38.0403279 C48.9534426,37.5003279 48.7144262,36.7262295 48.6583607,35.9442623 C48.6022951,35.1622951 48.7252459,34.3990164 49.0301639,33.8737705 C49.335082,33.3495082 49.7629508,32.9934426 50.595082,32.8921311 Z M37.8318033,40.0311475 C37.9822951,40.0360656 38.2193443,40.1393443 38.4947541,40.5613115 C38.7701639,40.9832787 39.0180328,41.6442623 39.1586885,42.3131148 C39.2983607,42.9809836 39.3288525,43.6803279 39.264918,44.1701639 C39.2009836,44.6609836 39.0111475,44.7967213 39.1045902,44.7544262 C39.1183607,44.7485246 38.8734426,44.7740984 38.4681967,44.4888525 C38.0639344,44.2036066 37.6055738,43.7078689 37.2740984,43.1354098 C36.942623,42.5629508 36.7321311,41.9118033 36.7439344,41.4101639 C36.7547541,40.9095082 36.8934426,40.5662295 37.3803279,40.2160656 C37.6232787,40.0419672 37.755082,40.0272131 37.8318033,40.0311475 Z M43.5367213,35.4131148 C43.7668852,35.4691803 43.9714754,35.6983607 44.1740984,36.1822951 C44.3757377,36.6672131 44.4947541,37.3429508 44.4918033,38.0403279 C44.4898361,38.7377049 44.3806557,39.4508197 44.1996721,39.9239344 C44.0186885,40.3980328 43.8013115,40.5131148 43.8288525,40.5081967 C43.7668852,40.52 43.4403279,40.4432787 43.0596721,40.0577049 C42.6770492,39.6711475 42.3032787,39.0583607 42.0770492,38.4121311 C41.8498361,37.764918 41.7918033,37.0980328 41.9186885,36.6072131 C42.0436066,36.1163934 42.2855738,35.7731148 42.9259016,35.5193443 C43.2485246,35.3914754 43.4177049,35.3845902 43.5367213,35.4131148 Z M78.5245902,50 L77.0491803,50 C77.0481967,57.4744262 74.0236066,64.2268852 69.1262295,69.1262295 C64.2268852,74.0236066 57.4744262,77.0481967 50,77.0491803 C42.5255738,77.0481967 35.7731148,74.0236066 30.8737705,69.1262295 C25.9763934,64.2268852 22.9518033,57.4744262 22.9508197,50 C22.9518033,42.5255738 25.9763934,35.7731148 30.8737705,30.8737705 C35.7731148,25.9763934 42.5255738,22.9518033 50,22.9508197 C57.4744262,22.9518033 64.2268852,25.9763934 69.1262295,30.8737705 C74.0236066,35.7731148 77.0481967,42.5255738 77.0491803,50 L80,50 C79.9990164,33.4311475 66.5688525,20.0009836 50,20 C33.4311475,20.0009836 20.0009836,33.4311475 20,50 C20.0009836,66.5688525 33.4311475,79.9990164 50,80 C66.5688525,79.9990164 79.9990164,66.5688525 80,50 L78.5245902,50 Z" id="Fill-61"></path>
        </g>
    </g>
</svg>