<?xml version="1.0" encoding="UTF-8"?>
<svg width="100px" height="100px" viewBox="0 0 100 100" version="1.1" xmlns="http://www.w3.org/2000/svg" xmlns:xlink="http://www.w3.org/1999/xlink">
    <!-- Generator: Sketch 46.1 (44463) - http://www.bohemiancoding.com/sketch -->
    <title>lxde_normal</title>
    <desc>Created with Sketch.</desc>
    <defs></defs>
    <g id="Page-1" stroke="none" stroke-width="1" fill="none" fill-rule="evenodd">
        <g id="lxde_normal" fill="#FFFFFF">
            <path d="M69.5124655,68.7319514 C74.182139,63.8676873 77.0482228,57.2759066 77.0491803,50 L78.5245902,50 L80,50 C79.9990164,66.5688525 66.5688525,79.9990164 50,80 C33.4311475,79.9990164 20.0009836,66.5688525 20,50 C20.0009836,33.4311475 33.4311475,20.0009836 50,20 C66.5688525,20.0009836 79.9990164,33.4311475 80,50 L77.0491803,50 C77.0481967,42.5255738 74.0236066,35.7731148 69.1262295,30.8737705 C64.2268852,25.9763934 57.4744262,22.9518033 50,22.9508197 C42.5255738,22.9518033 35.7731148,25.9763934 30.8727869,30.8737705 C25.9763934,35.7731148 22.9518033,42.5255738 22.9508197,50 C22.9518033,57.4744262 25.9763934,64.2268852 30.8727869,69.1262295 C35.7731148,74.0236066 42.5255738,77.0481967 50,77.0491803 C57.4744262,77.0481967 64.2268852,74.0236066 69.1262295,69.1262295 C69.2108596,69.0415654 69.2949304,68.956348 69.378436,68.870583 C68.1869943,65.1002902 63.3042818,48.4487475 58.4265574,42.9416393 C55.6931148,39.8560656 53.2301639,37.8632787 49.5839344,43.0596721 C47.4140984,46.1521311 34.3940984,63.8659016 32.004918,66.6868852 C31.3104918,67.5062295 30.9042623,68.0757377 30.3711475,68.4062295 C30.3721311,67.284918 39.3652459,53.0432787 41.8822951,48.9160656 C44.904918,43.9586885 44.8085246,44.2478689 44.447541,44.2488525 C43.935082,44.2508197 42.8934426,45.0062295 41.3098361,46.6960656 C38.4170492,49.7806557 29.8508197,61.2613115 29.2606557,61.0842623 C29.4652459,60.2501639 36.1665574,49.9744262 39.2088525,45.7232787 C41.8321311,42.0593443 40.8288525,41.78 39.3259016,42.1380328 C32.9206557,43.6655738 25.2593443,47.3590164 25.012459,47.2252459 C25.104918,47.0344262 50.812459,28.9567213 54.2472131,28.6104918 C54.6465574,28.5711475 55.4904918,27.8580328 56.9934426,27.2639344 C58.6252459,26.6186885 59.7229508,26.0944262 59.9954098,26.2606557 C58.8042623,27.9298361 58.1767213,28.2652459 58.1668852,28.8042623 C58.1491803,29.6855738 57.8354098,31.1127869 57.4921311,31.5681967 C64.1344262,35.9934426 66.7272131,51.0829508 68.6245902,63.2196721 C68.9919687,65.5589151 69.3379477,67.4247742 69.5124655,68.7319514 Z" id="Fill-81"></path>
        </g>
    </g>
</svg>