<?xml version="1.0" encoding="UTF-8"?>
<svg width="100px" height="100px" viewBox="0 0 100 100" version="1.1" xmlns="http://www.w3.org/2000/svg" xmlns:xlink="http://www.w3.org/1999/xlink">
    <!-- Generator: Sketch 46.1 (44463) - http://www.bohemiancoding.com/sketch -->
    <title>kde_press</title>
    <desc>Created with Sketch.</desc>
    <defs>
        <linearGradient x1="50%" y1="0%" x2="50%" y2="98.0707908%" id="linearGradient-1">
            <stop stop-color="#009AFF" offset="0%"></stop>
            <stop stop-color="#2CA7F8" offset="100%"></stop>
        </linearGradient>
    </defs>
    <g id="Page-1" stroke="none" stroke-width="1" fill="none" fill-rule="evenodd">
        <g id="kde_press" fill="url(#linearGradient-1)">
            <path d="M66.0790164,55.9016393 C69.0337705,55.9016393 71.4386885,53.4455738 71.4386885,50.4898361 C71.4386885,47.5340984 69.0337705,45.0819672 66.0790164,45.0819672 L65.1495082,45.0819672 C64.962623,44.0983607 64.7452459,43.8013115 64.5062295,43.2957377 L65.157377,42.5304918 C66.1685246,41.5193443 66.7232787,40.1186885 66.7232787,38.6845902 C66.7232787,37.2495082 66.1685246,35.877377 65.157377,34.8662295 C64.1501639,33.8590164 62.8055738,33.2865574 61.3704918,33.2865574 C59.9363934,33.2865574 58.5868852,33.8383607 57.5796721,34.8455738 L57.1960656,35.4977049 C56.6904918,35.2577049 55.9016393,35.037377 55.9016393,34.8495082 L55.9016393,33.9209836 C55.9016393,30.9662295 53.4465574,28.5613115 50.4918033,28.5613115 C47.5360656,28.5613115 45.0819672,30.9662295 45.0819672,33.9209836 L45.0819672,34.8495082 C44.0983607,35.037377 43.8032787,35.2547541 43.2937705,35.4947541 L42.5314754,34.8386885 C41.5203279,33.8314754 40.1196721,33.2727869 38.6855738,33.2727869 C37.2504918,33.2727869 35.8783607,33.8314754 34.8672131,34.8386885 C33.8590164,35.8498361 33.287541,37.1944262 33.287541,38.6295082 C33.287541,40.0636066 33.8383607,41.4091803 34.8455738,42.4203279 L35.4977049,43.2918033 C35.2577049,43.8013115 35.037377,44.0983607 34.8504918,45.0819672 L33.9209836,45.0819672 C30.9622951,45.0819672 28.5613115,47.5340984 28.5613115,50.4898361 C28.5613115,53.4455738 30.9622951,55.9016393 33.9209836,55.9016393 L34.8504918,55.9016393 C35.037377,55.9016393 35.2547541,56.6895082 35.4947541,57.1990164 L34.8386885,57.7154098 C33.8314754,58.722623 33.2737705,60.0032787 33.2737705,61.4383607 C33.2737705,62.872459 33.8314754,64.1836066 34.8386885,65.1908197 C35.8508197,66.2029508 37.1954098,66.74 38.6295082,66.74 C40.0645902,66.74 41.4091803,66.177377 42.4203279,65.1652459 L43.2937705,64.5091803 C43.8032787,64.7491803 44.0983607,64.9586885 45.0819672,65.1495082 L45.0819672,66.0790164 C45.0819672,69.0337705 47.5360656,71.4386885 50.4918033,71.4386885 C53.4465574,71.4386885 55.9016393,69.0337705 55.9016393,66.0790164 L55.9016393,65.1495082 C55.9016393,64.9586885 56.6904918,64.7452459 57.1960656,64.5052459 L57.7154098,65.157377 C58.722623,66.1685246 60.0042623,66.7232787 61.4383607,66.7232787 C62.8734426,66.7232787 64.1836066,66.1685246 65.1918033,65.157377 C66.2029508,64.1491803 66.74,62.8045902 66.74,61.3704918 C66.74,59.9354098 66.177377,58.5868852 65.1662295,57.5796721 L64.5101639,57.1960656 C64.7501639,56.6895082 64.962623,55.9016393 65.1495082,55.9016393 L66.0790164,55.9016393 L66.0790164,55.9016393 Z M59.6108197,60.1931148 C59.3491803,60.5845902 58.8672131,60.7980328 58.4285246,60.7980328 C58.1678689,60.7980328 57.7183607,60.7232787 57.4862295,60.5678689 L46.0655738,53.1367213 L46.0655738,60.9770492 C46.0655738,61.7285246 45.832459,62.337377 45.0819672,62.337377 C44.3304918,62.337377 43.1147541,61.7285246 43.1147541,60.9770492 L43.1147541,40.1196721 C43.1147541,39.3691803 44.3304918,38.7593443 45.0819672,38.7593443 C45.832459,38.7593443 46.0655738,39.3691803 46.0655738,40.1196721 L46.0655738,47.7859016 L56.1721311,39.1852459 C56.7367213,38.6885246 57.8452459,38.7465574 58.3380328,39.3111475 C58.8337705,39.8767213 58.797377,40.7354098 58.2327869,41.2301639 L47.6295082,50.5311475 L59.2813115,58.3065574 C59.9059016,58.7236066 60.0278689,59.567541 59.6108197,60.1931148 Z M78.5245902,50 L77.0491803,50 C77.0481967,57.4744262 74.0236066,64.2268852 69.1262295,69.1262295 C64.2268852,74.0236066 57.4744262,77.0481967 50,77.0491803 C42.5255738,77.0481967 35.7731148,74.0236066 30.8737705,69.1262295 C25.9763934,64.2268852 22.9518033,57.4744262 22.9508197,50 C22.9518033,42.5255738 25.9763934,35.7731148 30.8737705,30.8737705 C35.7731148,25.9763934 42.5255738,22.9518033 50,22.9508197 C57.4744262,22.9518033 64.2268852,25.9763934 69.1262295,30.8737705 C74.0236066,35.7731148 77.0481967,42.5255738 77.0491803,50 L80,50 C79.9990164,33.4311475 66.5688525,20.0009836 50,20 C33.4311475,20.0009836 20.0009836,33.4311475 20,50 C20.0009836,66.5688525 33.4311475,79.9990164 50,80 C66.5688525,79.9990164 79.9990164,66.5688525 80,50 L78.5245902,50 Z" id="Fill-58"></path>
        </g>
    </g>
</svg>