<?xml version="1.0" encoding="UTF-8"?>
<svg width="100px" height="100px" viewBox="0 0 100 100" version="1.1" xmlns="http://www.w3.org/2000/svg" xmlns:xlink="http://www.w3.org/1999/xlink">
    <!-- Generator: Sketch 46.1 (44463) - http://www.bohemiancoding.com/sketch -->
    <title>ubuntu_normal</title>
    <desc>Created with Sketch.</desc>
    <defs></defs>
    <g id="Page-1" stroke="none" stroke-width="1" fill="none" fill-rule="evenodd">
        <g id="ubuntu_normal" fill="#FFFFFF">
            <path d="M74.3482164,30.2397111 C72.9675625,31.6318263 70.730262,31.6318263 69.3496082,30.2397111 C67.9699563,28.8486062 67.9699563,26.5917227 69.3496082,25.2006178 C70.730262,23.8085026 72.9675625,23.8085026 74.3482164,25.2006178 C75.7288702,26.5917227 75.7288702,28.8486062 74.3482164,30.2397111 Z M26.0333471,43.678977 C24.6526933,45.0710922 22.4153928,45.0710922 21.0347389,43.678977 C19.655087,42.2878721 19.655087,40.0309887 21.0347389,38.6398837 C22.4153928,37.2477685 24.6526933,37.2477685 26.0333471,38.6398837 C27.412999,40.0309887 27.412999,42.2878721 26.0333471,43.678977 Z M61.0195965,78.9566713 C59.6399446,80.3477762 57.4016422,80.3477762 56.0219903,78.9566713 C54.6413364,77.5645561 54.6413364,75.3086829 56.0219903,73.9165677 C57.4016422,72.5254628 59.6399446,72.5254628 61.0195965,73.9165677 C62.4002504,75.3086829 62.4002504,77.5645561 61.0195965,78.9566713 Z M30.7774661,27.9710297 C33.2331864,25.4949235 36.1027021,23.7007315 39.0012736,22.3429646 C39.7547219,21.9903897 40.6484398,22.319729 40.9981119,23.0784216 C41.347784,23.8371143 41.0211562,24.7382513 40.2677079,25.0908262 C37.5975755,26.3415073 35.0406607,27.9578965 32.9025509,30.1137556 C32.3578104,30.6630182 31.368259,31.8467301 31.368259,31.8467301 C31.368259,31.8467301 31.4577738,31.8938042 32.0939967,32.5353087 C34.4525302,34.9124111 35.6358046,38.0471959 35.6348027,41.1658168 C35.6358046,44.2854479 34.4525302,47.4192225 32.0939967,49.7973351 C30.4018354,51.5035436 28.322241,52.5971876 26.1423504,53.0782671 C26.1423504,53.0782673 26.1245322,52.9607509 26.0990324,52.7925734 C26.0348868,52.3695154 25.9221333,51.6258754 25.9221333,51.6258754 C26.4291078,55.8436409 27.8768907,59.864409 30.1743067,63.157802 C30.6512234,63.8417367 30.4879095,64.7873244 29.8086038,65.2682002 C29.129298,65.7500862 28.1924973,65.5844063 27.7145787,64.9004716 C25.1005541,61.147418 23.5014804,56.6599175 22.9383981,51.9915834 C22.8893037,51.5844554 23.007531,51.1712659 23.264024,50.8530393 C23.5215189,50.5338024 23.8982431,50.3337742 24.3040231,50.299426 C26.3780096,50.1216232 28.3878729,49.2467525 29.96791,47.6546091 C31.7433226,45.8634479 32.6270212,43.521704 32.6290251,41.1658168 C32.6270212,38.8099295 31.7433226,36.4691959 29.96791,34.6780346 C29.4970048,34.2042305 28.9830169,33.795082 28.4329596,33.4404866 C28.0852913,33.2162126 27.8438271,32.856566 27.7656769,32.4474175 C27.6885286,32.0392793 27.7817077,31.6149771 28.0231719,31.2775558 C28.8367357,30.1400219 29.7364651,29.0206724 30.7774661,27.9710297 Z M79.252332,41.2480953 C80.1688427,44.6128646 80.2879008,47.995034 80.0144756,51.1841541 C79.9430903,52.0129469 79.2110152,52.6222596 78.379132,52.5457382 C77.5472488,52.4692168 76.9301552,51.7357803 77.0015405,50.9069875 C77.2534851,47.9692445 77.1321084,44.9466967 76.3341346,42.0171097 C76.1308294,41.2707193 75.6004805,39.8218867 75.6004805,39.8218867 C75.6004805,39.8218867 75.5149558,39.8758717 74.6412852,40.1061047 C71.4033874,40.9601035 68.0969469,40.4174568 65.3966429,38.8572786 C62.6944621,37.2983308 60.572171,34.7066978 59.6919318,31.4750915 C59.0603925,29.1565326 59.1530662,26.808729 59.8263845,24.6803487 C59.8263843,24.6803486 59.9370656,24.7236757 60.0954614,24.785681 C60.4939133,24.9416583 61.1943011,25.2158309 61.1943011,25.2158309 C57.2881218,23.5460009 53.082143,22.7894336 49.081273,23.1323578 C48.2505098,23.2034124 47.5132638,22.5891846 47.436466,21.7604507 C47.3587934,20.9312116 47.9706767,20.2027584 48.8019408,20.130836 C53.359193,19.7435512 58.0450192,20.602463 62.3694563,22.4489864 C62.7465867,22.6100334 63.0453057,22.919016 63.1926515,23.3002588 C63.3403712,23.6828744 63.3252387,24.1091411 63.1520951,24.477731 C62.2690836,26.3627575 62.0218122,28.5407855 62.6106302,30.7052094 C63.2741151,33.1383425 64.8602754,35.0745199 66.8995317,36.2541989 C68.9407919,37.4304071 71.4097759,37.8354685 73.8486734,37.1934967 C74.4944524,37.0225829 75.1057794,36.7820305 75.6878966,36.4829646 C76.0559578,36.294012 76.4881529,36.2647213 76.881561,36.4016154 C77.2735933,36.5388722 77.5944602,36.8317187 77.7659435,37.2095434 C78.3442948,38.4828773 78.8638152,39.8217406 79.252332,41.2480953 Z M43.4489702,76.8259799 C40.0767392,75.9373168 37.0881655,74.3493393 34.463019,72.5179862 C33.7809561,72.0417683 33.6193134,71.1031163 34.1015244,70.420945 C34.5837355,69.7387737 35.5274569,69.5710732 36.2095199,70.0472911 C38.6277077,71.7343531 41.3059992,73.1405116 44.2420829,73.9142395 C44.9901285,74.1113673 46.5100288,74.376488 46.5100288,74.376488 C46.5100288,74.376488 46.5060388,74.2754289 46.7434865,73.4036914 C47.6228507,70.1725903 49.7460168,67.5804522 52.4473227,66.0220094 C55.1485015,64.4613262 58.4540671,63.9191846 61.6928398,64.7726782 C64.0165404,65.3850286 66.0034611,66.6391882 67.5100334,68.2864891 C67.5100336,68.286489 67.4171706,68.3606782 67.2842744,68.4668504 C66.9499682,68.7339312 66.3623338,69.2033986 66.3623338,69.2033986 C69.7615387,66.655463 72.5197346,63.3912622 74.2231886,59.754945 C74.5770351,58.9999557 75.477595,58.6685959 76.2336985,59.016454 C76.9906769,59.363807 77.3155942,60.2579402 76.9622488,61.0137972 C75.0190212,65.1541357 71.9322686,68.7827244 68.1709139,71.604535 C67.8428779,71.850616 67.4259317,71.954823 67.0220928,71.8918068 C66.6168781,71.8284281 66.2552866,71.6021895 66.0226501,71.2679479 C64.8316751,69.5607242 63.0690832,68.2575669 60.9002281,67.6852863 C58.4613306,67.0433145 55.9914716,67.448881 53.9502115,68.6250892 C51.9109552,69.8047682 50.3256697,71.7404405 49.6621849,74.1735736 C49.4873111,74.8182914 49.3899721,75.4679923 49.3579121,76.1216536 C49.3375193,76.5348802 49.1467882,76.9238175 48.8315303,77.1960719 C48.5166464,77.4669534 48.1026004,77.598409 47.6896529,77.5580056 C46.2977378,77.4222056 44.8784879,77.2026918 43.4489702,76.8259799 Z" id="Fill-48"></path>
        </g>
    </g>
</svg>