<?xml version="1.0" encoding="UTF-8"?>
<svg width="100px" height="100px" viewBox="0 0 100 100" version="1.1" xmlns="http://www.w3.org/2000/svg" xmlns:xlink="http://www.w3.org/1999/xlink">
    <!-- Generator: Sketch 46.1 (44463) - http://www.bohemiancoding.com/sketch -->
    <title>unknown_press</title>
    <desc>Created with Sketch.</desc>
    <defs>
        <linearGradient x1="50%" y1="0%" x2="50%" y2="98.0707908%" id="linearGradient-1">
            <stop stop-color="#009AFF" offset="0%"></stop>
            <stop stop-color="#2CA7F8" offset="100%"></stop>
        </linearGradient>
    </defs>
    <g id="Page-1" stroke="none" stroke-width="1" fill="none" fill-rule="evenodd">
        <g id="unknown_press" fill="url(#linearGradient-1)">
            <path d="M78.5245902,50 L77.0491803,50 C77.0481967,57.4744262 74.0236066,64.2268852 69.1262295,69.1262295 C64.2268852,74.0236066 57.4744262,77.0481967 50,77.0491803 C42.5255738,77.0481967 35.7731148,74.0236066 30.8737705,69.1262295 C25.9763934,64.2268852 22.9518033,57.4744262 22.9508197,50 C22.9518033,42.5255738 25.9763934,35.7731148 30.8737705,30.8737705 C35.7731148,25.9763934 42.5255738,22.9518033 50,22.9508197 C57.4744262,22.9518033 64.2268852,25.9763934 69.1262295,30.8737705 C74.0236066,35.7731148 77.0481967,42.5255738 77.0491803,50 L80,50 C79.9990164,33.4311475 66.5688525,20.0009836 50,20 C33.4311475,20.0009836 20.0009836,33.4311475 20,50 C20.0009836,66.5688525 33.4311475,79.9990164 50,80 C66.5688525,79.9990164 79.9990164,66.5688525 80,50 L78.5245902,50 Z M63.3550612,49.9849102 C63.1998522,50.0292557 63.0002977,50.0957738 62.8450886,50.1401193 C62.8007432,51.6478643 62.5346705,53.0669185 62.0468707,54.4194545 C62.0690434,54.4416272 62.0912161,54.4416272 62.1133888,54.4638 C63.2220249,55.3507088 64.3750064,56.3263085 65.7275424,57.4127719 L64.1089338,60.2508802 C62.5124978,59.630044 61.1156164,59.075726 59.7852531,58.5435807 C59.7630804,58.5435807 59.7409076,58.521408 59.7187349,58.521408 C58.7431352,59.7187349 57.5458082,60.7165074 56.2154449,61.4925526 C56.2154449,61.5147254 56.2154449,61.5368981 56.2376177,61.5590708 C56.525863,62.978125 56.7919357,64.4636973 57.1466992,66.1709968 L54.1312091,67.2796329 C53.3108184,65.7497151 52.5791186,64.4193519 51.8917643,63.1555067 C51.8695915,63.133334 51.8695915,63.1111613 51.8474188,63.0889886 C51.0935463,63.2220249 50.3396738,63.3107158 49.5636285,63.3107158 C48.7875833,63.3107158 48.011538,63.2220249 47.2798382,63.0889886 C47.2576655,63.1111613 47.2576655,63.133334 47.2354928,63.1555067 C46.5481384,64.4193519 45.8164386,65.7497151 44.9960479,67.2796329 L41.9805578,66.1709968 C42.3131486,64.4636973 42.601394,62.9559522 42.8674667,61.5590708 C42.8674667,61.5368981 42.8674667,61.5147254 42.8896394,61.4925526 C41.5592761,60.7165074 40.3619491,59.6965622 39.3863494,58.521408 C39.3641767,58.521408 39.342004,58.5435807 39.3198312,58.5435807 C38.0116407,59.075726 36.5925865,59.6078713 34.9961506,60.2508802 L33.3775419,57.4127719 C34.7079052,56.3263085 35.8830594,55.3507088 36.9916955,54.4638 C37.0138682,54.4416272 37.0360409,54.4416272 37.0582137,54.4194545 C36.5704138,53.0669185 36.3043411,51.6478643 36.2599957,50.1401193 C36.0826139,50.0957738 35.9052321,50.0292557 35.7500231,49.9849102 C33.9096872,49.3862468 32.5128058,48.809756 31.8032787,48.3219561 L32.3575967,45.1069115 C33.1114693,44.907357 34.4418325,44.8408389 36.1269594,44.8851843 C36.4595502,44.8851843 36.792141,44.907357 37.1469045,44.9295298 C37.6347044,43.6435119 38.3220588,42.4683577 39.1424495,41.4040671 C38.942895,41.093649 38.7655132,40.8054036 38.5881314,40.5171582 C37.7012226,39.0537586 37.1025591,37.8564316 36.8808319,37.0803864 L39.342004,34.9739778 C40.051531,35.3065687 41.1158217,36.1269594 42.3796668,37.2799409 C42.6235667,37.5016681 42.8674667,37.745568 43.1335393,37.9672952 C44.2865208,37.3242863 45.550366,36.8364864 46.902902,36.5704138 C46.9472474,36.2156502 46.9915928,35.8608867 47.0359383,35.5504686 C47.2798382,33.8431691 47.5680836,32.5349785 47.9006744,31.8032787 L51.115719,31.8032787 C51.4483098,32.5128058 51.7365552,33.8431691 51.9804552,35.5504686 C52.0248006,35.8830594 52.069146,36.2156502 52.1134915,36.5704138 C53.4438548,36.8364864 54.7076999,37.3242863 55.8828541,37.9672952 C56.1489268,37.7233953 56.3928267,37.4794954 56.6367266,37.2799409 C57.9005718,36.1269594 58.9648624,35.3287414 59.6743895,34.9739778 L62.1355616,37.0803864 C61.9360071,37.8564316 61.3151709,39.0537586 60.428262,40.5171582 C60.2508802,40.8054036 60.0734985,41.093649 59.873944,41.4040671 C60.7165074,42.4683577 61.381689,43.6435119 61.8694889,44.9295298 C62.2242524,44.907357 62.579016,44.8851843 62.8894341,44.8851843 C64.5745609,44.8408389 65.9049242,44.907357 66.6587967,45.1069115 L67.2131148,48.3219561 C66.5922786,48.809756 65.1953971,49.3862468 63.3550612,49.9849102 Z M49.5636285,39.6302493 C44.0426209,39.6302493 39.5859039,44.0869663 39.5859039,49.607974 C39.5859039,55.1289816 44.0426209,59.5856986 49.5636285,59.5856986 C55.0846362,59.5856986 59.5413532,55.1289816 59.5413532,49.607974 C59.5413532,44.0869663 55.0846362,39.6302493 49.5636285,39.6302493 L49.5636285,39.6302493 L49.5636285,39.6302493 Z M49.5636285,54.0425182 C47.1246292,54.0425182 45.1290842,52.0469733 45.1290842,49.607974 C45.1290842,47.1689746 47.1246292,45.1734297 49.5636285,45.1734297 C52.0026279,45.1734297 53.9981728,47.1689746 53.9981728,49.607974 C53.9981728,52.0469733 52.0026279,54.0425182 49.5636285,54.0425182 L49.5636285,54.0425182 L49.5636285,54.0425182 Z" id="Fill-91"></path>
        </g>
    </g>
</svg>