<?xml version="1.0" encoding="UTF-8"?>
<svg width="100px" height="100px" viewBox="0 0 100 100" version="1.1" xmlns="http://www.w3.org/2000/svg" xmlns:xlink="http://www.w3.org/1999/xlink">
    <!-- Generator: Sketch 46.1 (44463) - http://www.bohemiancoding.com/sketch -->
    <title>xfce_press</title>
    <desc>Created with Sketch.</desc>
    <defs>
        <linearGradient x1="50%" y1="0%" x2="50%" y2="98.0707908%" id="linearGradient-1">
            <stop stop-color="#009AFF" offset="0%"></stop>
            <stop stop-color="#2CA7F8" offset="100%"></stop>
        </linearGradient>
    </defs>
    <g id="Page-1" stroke="none" stroke-width="1" fill="none" fill-rule="evenodd">
        <g id="xfce_press" fill="url(#linearGradient-1)">
            <path d="M24.9882093,39.6815896 C23.6753368,42.8600146 22.9513008,46.3436233 22.9508197,50 C22.9518033,57.4744262 25.9763934,64.2268852 30.8737705,69.1262295 C35.7731148,74.0236066 42.5255738,77.0481967 50,77.0491803 C57.4744262,77.0481967 64.2268852,74.0236066 69.1262295,69.1262295 C74.0236066,64.2268852 77.0481967,57.4744262 77.0491803,50 L78.5245902,50 L80,50 C79.9990164,66.5688525 66.5688525,79.9990164 50,80 C33.4311475,79.9990164 20.0009836,66.5688525 20,50 C20.0009836,33.4311475 33.4311475,20.0009836 50,20 C66.5688525,20.0009836 79.9990164,33.4311475 80,50 L77.0491803,50 C77.0481967,42.5255738 74.0236066,35.7731148 69.1262295,30.8737705 C64.2268852,25.9763934 57.4744262,22.9518033 50,22.9508197 C42.5255738,22.9518033 35.7731148,25.9763934 30.8737705,30.8737705 C28.5143854,33.2341033 26.5896695,36.0245396 25.2283036,39.1185984 C26.4015176,39.6671968 28.3500284,40.3988703 29.0137705,40.5337705 C31.0518033,40.9459016 35.7770492,43.3518033 38.8478689,46.5613115 C39.2344262,46.944918 40.2888525,45.3081967 42.6622951,45.712459 C43.344918,45.7763934 48.8413115,47.24 51.1262295,46.8062295 C51.9072131,46.3134426 51.897377,44.9777049 52.644918,44.382623 C52.6409836,43.8780328 52.2111475,42.2540984 52.2072131,41.9088525 C52.182623,40.7088525 53.3059016,40.1177049 53.6304918,40.1845902 C53.9678689,40.2701639 54.5039344,40.1757377 55.7157377,43.1422951 C56.0747541,43.6980328 56.627541,43.9203279 56.5704918,43.3891803 C55.902623,41.3157377 55.4285246,39.102623 57.0062295,38.8803279 C57.2245902,38.8822951 58.732459,38.1298361 59.1160656,41.2419672 C59.1829508,41.7013115 59.1662295,42.9957377 59.1937705,43.4609836 C59.2459016,43.8642623 63.2157377,43.335082 67.0980328,45.8737705 C67.5504918,46.1462295 69.472459,48.0986885 67.5977049,49.6488525 C66.3416393,50.6914754 60.887541,53.3777049 60.522623,53.6344262 C60.315082,53.7770492 60.1193443,54.3957377 60.3947541,54.9131148 C60.74,55.5593443 60.8983607,55.3527869 62.0344262,56.757377 C63.1714754,58.1629508 62.9255738,58.8190164 61.1236066,58.3596721 C60.5206557,58.2062295 58.967541,57.3927869 58.3321311,57.6180328 C58.0340984,57.7232787 59.8144262,59.4308197 60.0554098,60.1055738 C60.855082,62.2429508 58.1432787,61.0960656 57.1527869,60.624918 C56.1632787,60.1527869 54.4468852,59.147541 53.8370492,59.115082 C52.6527869,59.622623 46.2554098,60.1832787 40.5691803,58.8347541 C40.2229508,58.9281967 37.3390164,61.8239344 37.1265574,61.9340984 C35.3452459,62.4967213 36.7193443,59.8380328 37.0045902,58.7363934 C37.1452459,58.1954098 36.7537705,58.5209836 36.4163934,58.7137705 C36.2570492,58.8052459 35.202623,59.2252459 34.5308197,58.9183607 C33.8580328,58.612459 35.9747541,56.475082 36.2029508,56.1386885 C36.5177049,55.7432787 35.2547541,52.0459016 37.9203279,47.8134426 C37.6488525,47.3206557 34.1865574,44.4032787 31.6213115,42.975082 C30.0285244,42.0668572 26.9539391,40.6191016 24.9882093,39.6815896 Z M60.1311475,46.8839344 C59.7140984,46.8839344 59.3609836,46.4944262 59.3609836,46.0586885 C59.3609836,45.6219672 59.7003279,45.2678689 60.117377,45.2678689 C60.5344262,45.2678689 60.8727869,45.6219672 60.8727869,46.0586885 C60.8727869,46.4944262 60.5481967,46.8839344 60.1311475,46.8839344 Z M68.5498361,41.8232787 C68.4662295,41.6019672 66.4901639,44.0944262 66.8383607,45.0111475 C66.9908197,45.4104918 68.812459,42.5177049 68.5498361,41.8232787 Z M66.4193443,41.4318033 C65.6806557,42.1547541 65.8144262,44.8252459 65.9757377,44.7957377 C66.7321311,44.6570492 66.642623,41.2134426 66.4193443,41.4318033 Z" id="Fill-68"></path>
        </g>
    </g>
</svg>