<svg xmlns="http://www.w3.org/2000/svg" width="20" height="20" viewBox="0 0 20 20">
  <path fill-rule="evenodd" d="M13,16 C13,17.6568542 11.6568542,19 10,19 C8.40231912,19 7.09633912,17.75108 7.00509269,16.1762728 L7,16 L13,16 Z M2.78248558,2.5753788 L16.9246212,16.7175144 L16.2175144,17.4246212 L2.0753788,3.28248558 L2.78248558,2.5753788 Z M4.63811001,7.25727229 L11.379,14 L2,14 L2.01691063,13.9755256 C3.42442031,11.8907691 4.30273074,9.60239609 4.63811001,7.25727229 Z M10.3773685,1 C12.8942381,1 15.0585627,3.06738216 15.2115228,5.6176273 L15.2344541,5.999952 C15.4012564,8.78098309 16.3249519,11.5195476 17.9830894,13.9755256 L18,14 L15.621,14 L5.31595075,3.69584706 C6.13093678,2.10500781 7.78256716,1 9.62263149,1 L10.3773685,1 Z"/>
</svg>
