<?xml version="1.0" encoding="UTF-8" standalone="no"?>
<svg width="100px" height="100px" viewBox="0 0 100 100" version="1.1" xmlns="http://www.w3.org/2000/svg" xmlns:xlink="http://www.w3.org/1999/xlink" xmlns:sketch="http://www.bohemiancoding.com/sketch/ns">
    <!-- Generator: Sketch 3.3.3 (12072) - http://www.bohemiancoding.com/sketch -->
    <title>lock_press</title>
    <desc>Created with Sketch.</desc>
    <defs>
        <linearGradient x1="50%" y1="0%" x2="50%" y2="100%" id="linearGradient-1">
            <stop stop-color="#5EB9F5" offset="0%"></stop>
            <stop stop-color="#2CA7F8" offset="100%"></stop>
        </linearGradient>
        <filter x="-50%" y="-50%" width="200%" height="200%" filterUnits="objectBoundingBox" id="filter-2">
            <feOffset dx="0" dy="12" in="SourceAlpha" result="shadowOffsetOuter1"></feOffset>
            <feGaussianBlur stdDeviation="10" in="shadowOffsetOuter1" result="shadowBlurOuter1"></feGaussianBlur>
            <feColorMatrix values="0 0 0 0 0   0 0 0 0 0   0 0 0 0 0  0 0 0 0.21 0" in="shadowBlurOuter1" type="matrix" result="shadowMatrixOuter1"></feColorMatrix>
            <feMerge>
                <feMergeNode in="shadowMatrixOuter1"></feMergeNode>
                <feMergeNode in="SourceGraphic"></feMergeNode>
            </feMerge>
        </filter>
    </defs>
    <g id="Page-1" stroke="none" stroke-width="1" fill="none" fill-rule="evenodd" sketch:type="MSPage">
        <g id="lock_press" sketch:type="MSArtboardGroup" filter="url(#filter-2)" fill="url(#linearGradient-1)">
            <path d="M65.029,42 L62,42 L62,36.524 C62,30.385 56.68,25 50.614,25 L48.958,25 C43.018,25 38,30.277 38,36.524 L38,42 L34.971,42 C31.127,42 28,45.127 28,48.971 L28,69.029 C28,72.873 31.127,76 34.971,76 L65.029,76 C68.873,76 72,72.873 72,69.029 L72,48.971 C72,45.127 68.873,42 65.029,42 L65.029,42 Z M42,36.524 C42,32.445 45.186,29 48.958,29 L50.614,29 C54.48,29 58,32.586 58,36.524 L58,42 L42,42 L42,36.524 L42,36.524 Z M68,69.029 C68,70.667 66.667,72 65.029,72 L34.971,72 C33.333,72 32,70.667 32,69.029 L32,48.971 C32,47.333 33.333,46 34.971,46 L65.029,46 C66.667,46 68,47.333 68,48.971 L68,69.029 L68,69.029 Z" id="Fill-1" sketch:type="MSShapeGroup"></path>
        </g>
    </g>
</svg>